<svg xmlns="http://www.w3.org/2000/svg" viewBox="0 0 490.12 273.4"><defs><style>.cls-1{fill:#ccc;}.cls-2{fill:#662d91;}.cls-11,.cls-13,.cls-14,.cls-16,.cls-17,.cls-3,.cls-4,.cls-5,.cls-6,.cls-9{fill:none;}.cls-3,.cls-4,.cls-5{stroke:red;stroke-width:11px;}.cls-11,.cls-13,.cls-14,.cls-15,.cls-16,.cls-17,.cls-3,.cls-4,.cls-5,.cls-6,.cls-9{stroke-miterlimit:10;}.cls-4{stroke-dasharray:1.98 1.98;}.cls-5{stroke-dasharray:2.02 2.02;}.cls-6{stroke:#29abe2;}.cls-13,.cls-14,.cls-6,.cls-9{stroke-width:4px;}.cls-7{fill:#29abe2;}.cls-8{fill:#0896a5;}.cls-9{stroke:#006837;}.cls-10{fill:#006837;}.cls-11{stroke:#c1272d;}.cls-11,.cls-15,.cls-16{stroke-width:2px;}.cls-12{fill:#c1272d;}.cls-13{stroke:#662d91;}.cls-14{stroke:#000;}.cls-15{fill:#b3b3b3;}.cls-15,.cls-16,.cls-17{stroke:#1b1464;}.cls-15,.cls-16{stroke-dasharray:2;}.cls-17{stroke-dasharray:1;}</style></defs><title>modelo_cajas_anchos</title><g id="fondo"><rect class="cls-1" x="92.72" y="7.97" width="317" height="21"/><path d="M201,134.85c0,2.78-1.69,4.25-3.76,4.25s-3.63-1.65-3.63-4.1,1.59-4.24,3.75-4.24S201,132.45,201,134.85Zm-6.28.13c0,1.73.94,3.27,2.58,3.27s2.59-1.52,2.59-3.36c0-1.6-.84-3.28-2.58-3.28S194.76,133.2,194.76,135Z"/><path d="M203.84,131.5v1.67h1.51v.8h-1.51v3.13c0,.72.2,1.13.79,1.13a2.68,2.68,0,0,0,.61-.07l0,.79a2.73,2.73,0,0,1-.94.14,1.45,1.45,0,0,1-1.14-.44,2.15,2.15,0,0,1-.41-1.51V134h-.9v-.8h.9v-1.39Z"/><path d="M206.54,135c0-.69,0-1.27,0-1.81h.92l0,1.14h.05a1.74,1.74,0,0,1,1.6-1.27,1.32,1.32,0,0,1,.3,0v1a1.28,1.28,0,0,0-.36,0,1.47,1.47,0,0,0-1.41,1.36,2.38,2.38,0,0,0,0,.49V139h-1Z"/><path d="M213.61,139l-.08-.73h0a2.13,2.13,0,0,1-1.77.86,1.64,1.64,0,0,1-1.77-1.66c0-1.41,1.24-2.17,3.48-2.16v-.12a1.2,1.2,0,0,0-1.31-1.35,2.88,2.88,0,0,0-1.52.44l-.24-.7a3.63,3.63,0,0,1,1.91-.51c1.78,0,2.21,1.21,2.21,2.37v2.17a8.39,8.39,0,0,0,.09,1.39Zm-.15-3c-1.15,0-2.46.18-2.46,1.31a.93.93,0,0,0,1,1,1.45,1.45,0,0,0,1.4-1,1.36,1.36,0,0,0,.06-.33Z"/><path d="M222.87,138.76a4,4,0,0,1-1.67.33,2.76,2.76,0,0,1-2.89-3,2.94,2.94,0,0,1,3.12-3.08,3.44,3.44,0,0,1,1.46.3l-.24.81a2.5,2.5,0,0,0-1.22-.27,2.19,2.19,0,0,0,0,4.36,2.9,2.9,0,0,0,1.3-.29Z"/><path d="M227.32,139l-.09-.73h0a2.16,2.16,0,0,1-1.78.86,1.65,1.65,0,0,1-1.77-1.66c0-1.41,1.25-2.17,3.49-2.16v-.12a1.2,1.2,0,0,0-1.32-1.35,2.84,2.84,0,0,0-1.51.44l-.24-.7A3.61,3.61,0,0,1,226,133c1.77,0,2.2,1.21,2.2,2.37v2.17a8.32,8.32,0,0,0,.1,1.39Zm-.16-3c-1.15,0-2.46.18-2.46,1.31a.93.93,0,0,0,1,1,1.45,1.45,0,0,0,1.4-1,1,1,0,0,0,.06-.33Z"/><path d="M228.47,140.65a1.75,1.75,0,0,0,1.15-.44c.29-.34.4-.79.4-2.19v-4.85h1.06v5.26a3.17,3.17,0,0,1-.7,2.39,2.68,2.68,0,0,1-1.8.66Zm2.73-9.11a.62.62,0,0,1-.66.64.63.63,0,0,1-.65-.64.64.64,0,0,1,.67-.66A.63.63,0,0,1,231.2,131.54Z"/><path d="M236,139l-.09-.73h0a2.16,2.16,0,0,1-1.78.86,1.65,1.65,0,0,1-1.77-1.66c0-1.41,1.25-2.17,3.49-2.16v-.12a1.2,1.2,0,0,0-1.32-1.35,2.84,2.84,0,0,0-1.51.44l-.24-.7a3.6,3.6,0,0,1,1.9-.51c1.78,0,2.21,1.21,2.21,2.37v2.17A8.32,8.32,0,0,0,237,139Zm-.16-3c-1.15,0-2.46.18-2.46,1.31a.93.93,0,0,0,1,1,1.45,1.45,0,0,0,1.4-1,1,1,0,0,0,.06-.33Z"/><path d="M243.42,130.65a7.92,7.92,0,0,0-1.51,4.9,8.08,8.08,0,0,0,1.51,4.87h-.82a7.71,7.71,0,0,1-1.58-4.87,7.93,7.93,0,0,1,1.58-4.9Z"/><path d="M249.55,130.46v7c0,.52,0,1.11,0,1.5h-.95l0-1h0a2.14,2.14,0,0,1-2,1.14c-1.4,0-2.48-1.18-2.48-2.95,0-1.93,1.19-3.11,2.6-3.11a1.92,1.92,0,0,1,1.75.88h0v-3.46Zm-1.05,5.07a1.65,1.65,0,0,0-.05-.44,1.55,1.55,0,0,0-1.52-1.23c-1.09,0-1.74,1-1.74,2.25s.57,2.14,1.71,2.14a1.67,1.67,0,0,0,1.6-1.71Z"/><path d="M252.48,131.54a.65.65,0,0,1-1.3,0,.64.64,0,0,1,.66-.66A.62.62,0,0,1,252.48,131.54ZM251.31,139v-5.8h1.05V139Z"/><path d="M254.52,133.17l1.14,3.26a13.28,13.28,0,0,1,.47,1.49h0c.13-.48.3-1,.49-1.49l1.13-3.26h1.1l-2.28,5.8h-1l-2.2-5.8Z"/><path d="M258.74,140.45a18.51,18.51,0,0,0,.72-2.87l1.17-.12a14.23,14.23,0,0,1-1.14,2.92Z"/><path d="M264.45,135.06c0-.74,0-1.34-.05-1.89h1l0,1h0a2.26,2.26,0,0,1,2.06-1.12c1.4,0,2.46,1.18,2.46,3,0,2.08-1.27,3.11-2.64,3.11a2,2,0,0,1-1.79-.91h0v3.16h-1Zm1,1.55a2,2,0,0,0,.05.43,1.63,1.63,0,0,0,1.58,1.24c1.12,0,1.76-.92,1.76-2.25,0-1.16-.61-2.16-1.72-2.16a1.7,1.7,0,0,0-1.6,1.31,2,2,0,0,0-.07.43Z"/><path d="M270.3,140.45a16.49,16.49,0,0,0,.72-2.87l1.18-.12a14.83,14.83,0,0,1-1.14,2.92Z"/><path d="M275.76,138.35a.71.71,0,0,1,.72-.76.76.76,0,1,1-.72.76Z"/><path d="M278.25,138.35a.71.71,0,0,1,.72-.76.76.76,0,1,1-.72.76Z"/><path d="M280.73,138.35a.71.71,0,0,1,.72-.76.76.76,0,1,1-.72.76Z"/><path d="M282.83,140.42a8.09,8.09,0,0,0,1.51-4.9,8,8,0,0,0-1.51-4.87h.82a7.68,7.68,0,0,1,1.57,4.88,7.82,7.82,0,0,1-1.57,4.89Z"/><path class="cls-2" d="M206.71,180.76l.47,2.4c.12.61.24,1.26.33,1.93h0c.12-.67.28-1.34.43-1.92l.62-2.41H210l.59,2.34c.15.66.31,1.32.43,2h0c.09-.67.21-1.33.34-2l.5-2.33h1.79l-1.8,5.86h-1.71l-.56-2.06c-.14-.58-.25-1.1-.37-1.82h0a13.29,13.29,0,0,1-.39,1.82l-.58,2.06h-1.72l-1.7-5.86Z"/><path class="cls-2" d="M216.44,179.13a.91.91,0,0,1-1,.91.92.92,0,1,1,0-1.84A.91.91,0,0,1,216.44,179.13Zm-1.88,7.49v-5.86h1.82v5.86Z"/><path class="cls-2" d="M223.53,178.11v6.76c0,.66,0,1.36.05,1.75H222l-.09-.86h0a2.05,2.05,0,0,1-1.84,1c-1.39,0-2.5-1.19-2.5-3,0-2,1.22-3.12,2.62-3.12a1.78,1.78,0,0,1,1.55.66h0v-3.18Zm-1.82,5.13c0-.09,0-.23,0-.32a1.1,1.1,0,0,0-1.07-.9c-.82,0-1.25.74-1.25,1.67s.49,1.61,1.24,1.61a1.07,1.07,0,0,0,1.06-.87,1.79,1.79,0,0,0,.05-.42Z"/><path class="cls-2" d="M227,179.08v1.68h1.31v1.34H227v2.12c0,.71.17,1,.72,1a3.31,3.31,0,0,0,.54,0l0,1.38a3.82,3.82,0,0,1-1.19.15,1.9,1.9,0,0,1-1.37-.5,2.46,2.46,0,0,1-.5-1.74v-2.4h-.78v-1.34h.78v-1.27Z"/><path class="cls-2" d="M229.4,178.11h1.82v3.34h0a2.22,2.22,0,0,1,.72-.6,2.07,2.07,0,0,1,.94-.22c1.17,0,2.05.8,2.05,2.56v3.43h-1.82V183.4c0-.77-.26-1.3-.95-1.3a1,1,0,0,0-.91.64,1.1,1.1,0,0,0-.06.41v3.47H229.4Z"/><path class="cls-2" d="M238.63,186.62v-1.1l1-.91c1.7-1.52,2.53-2.4,2.55-3.31,0-.64-.38-1.14-1.28-1.14a2.86,2.86,0,0,0-1.67.65l-.52-1.31a4.35,4.35,0,0,1,2.56-.8,2.42,2.42,0,0,1,2.73,2.44c0,1.31-.94,2.35-2.07,3.36l-.72.6v0h2.94v1.5Z"/><path class="cls-2" d="M251.05,182.69c0,2.41-1,4.07-3,4.07s-2.9-1.82-2.91-4,1-4,3-4S251.05,180.55,251.05,182.69Zm-4.05.05c0,1.78.42,2.64,1.13,2.64s1.09-.89,1.09-2.67-.37-2.63-1.1-2.63S247,180.93,247,182.74Z"/><path class="cls-2" d="M257.71,182.69c0,2.41-1,4.07-3,4.07s-2.9-1.82-2.91-4,1-4,3-4S257.71,180.55,257.71,182.69Zm-4,.05c0,1.78.42,2.64,1.13,2.64s1.09-.89,1.09-2.67-.37-2.63-1.1-2.63S253.65,180.93,253.66,182.74Z"/><path class="cls-2" d="M258.84,182.73c0-.77,0-1.43,0-2h1.58l.09.81h0a2.24,2.24,0,0,1,1.95-.94c1.29,0,2.44,1.11,2.44,3,0,2.14-1.36,3.15-2.66,3.15a1.83,1.83,0,0,1-1.53-.68h0V189h-1.82Zm1.82,1.37a1.51,1.51,0,0,0,0,.39,1.1,1.1,0,0,0,1.06.86c.79,0,1.26-.66,1.26-1.65s-.42-1.65-1.23-1.65a1.15,1.15,0,0,0-1.09.93,1.08,1.08,0,0,0,0,.32Z"/><path class="cls-2" d="M267.12,180.76l.57,1c.17.3.32.6.48.88h0c.16-.32.3-.62.46-.9l.52-1h2l-1.94,2.79,2,3.07h-2.06l-.59-1.05c-.17-.29-.31-.59-.46-.89h0c-.15.31-.3.6-.45.89l-.55,1.05h-2l2-3-1.94-2.88Z"/></g><g id="contenido"><polyline class="cls-3" points="333.22 195.97 333.22 196.97 332.22 196.97"/><line class="cls-4" x1="330.23" y1="196.97" x2="148.71" y2="196.97"/><polyline class="cls-3" points="147.72 196.97 146.72 196.97 146.72 195.97"/><line class="cls-5" x1="146.72" y1="193.95" x2="146.72" y2="81.98"/><polyline class="cls-3" points="146.72 80.97 146.72 79.97 147.72 79.97"/><line class="cls-4" x1="149.7" y1="79.97" x2="331.23" y2="79.97"/><polyline class="cls-3" points="332.22 79.97 333.22 79.97 333.22 80.97"/><line class="cls-5" x1="333.22" y1="82.99" x2="333.22" y2="194.96"/><rect class="cls-1" x="185.72" y="108.97" width="106" height="58"/><path d="M194.78,130.73a5.25,5.25,0,0,1-2.14.38,3.77,3.77,0,0,1-4-4.09,4,4,0,0,1,4.22-4.24,4.26,4.26,0,0,1,1.92.36l-.25.85a3.84,3.84,0,0,0-1.63-.34,3,3,0,0,0-3.16,3.34,2.94,2.94,0,0,0,3.11,3.25,4.24,4.24,0,0,0,1.7-.34Z"/><path d="M201.17,128a2.83,2.83,0,0,1-2.89,3.08,2.76,2.76,0,0,1-2.78-3,2.83,2.83,0,0,1,2.88-3.08A2.74,2.74,0,0,1,201.17,128Zm-4.6.06c0,1.27.73,2.23,1.76,2.23s1.76-1,1.76-2.25c0-1-.49-2.23-1.73-2.23S196.57,127,196.57,128.1Z"/><path d="M202.51,126.76c0-.6,0-1.09,0-1.57h.94l.06,1h0a2.12,2.12,0,0,1,1.92-1.09c.8,0,2,.47,2,2.47V131h-1.06v-3.34c0-.94-.34-1.72-1.34-1.72a1.5,1.5,0,0,0-1.41,1.08,1.44,1.44,0,0,0-.08.49V131h-1.05Z"/><path d="M210.39,123.52v1.67h1.51v.8h-1.51v3.13c0,.72.21,1.13.79,1.13a2.78,2.78,0,0,0,.62-.07l0,.79a2.63,2.63,0,0,1-.93.14,1.45,1.45,0,0,1-1.14-.44,2.15,2.15,0,0,1-.41-1.51V126h-.9v-.8h.9V123.8Z"/><path d="M213.61,128.28a1.86,1.86,0,0,0,2,2,4,4,0,0,0,1.61-.3l.18.75a4.72,4.72,0,0,1-1.94.36,2.69,2.69,0,0,1-2.85-2.92c0-1.76,1-3.13,2.72-3.13a2.45,2.45,0,0,1,2.4,2.73,4.68,4.68,0,0,1,0,.49Zm3.09-.75a1.5,1.5,0,0,0-1.46-1.72,1.74,1.74,0,0,0-1.62,1.72Z"/><path d="M219,126.76c0-.6,0-1.09-.05-1.57h.94l.06,1h0a2.12,2.12,0,0,1,1.92-1.09c.81,0,2.05.47,2.05,2.47V131h-1.05v-3.34c0-.94-.35-1.72-1.35-1.72a1.5,1.5,0,0,0-1.41,1.08,1.45,1.45,0,0,0-.07.49V131H219Z"/><path d="M226.87,123.56a.66.66,0,0,1-1.31,0,.64.64,0,0,1,.66-.66A.62.62,0,0,1,226.87,123.56ZM225.69,131v-5.8h1.06V131Z"/><path d="M233.51,122.48v7c0,.52,0,1.11.05,1.5h-.95l0-1h0a2.14,2.14,0,0,1-2,1.14c-1.4,0-2.48-1.18-2.48-3,0-1.93,1.19-3.11,2.6-3.11a1.92,1.92,0,0,1,1.75.88h0v-3.46Zm-1,5.07a1.65,1.65,0,0,0-.05-.44,1.55,1.55,0,0,0-1.52-1.23c-1.09,0-1.74,1-1.74,2.25s.57,2.14,1.71,2.14a1.67,1.67,0,0,0,1.6-1.71Z"/><path d="M240.52,128a2.83,2.83,0,0,1-2.89,3.08,2.76,2.76,0,0,1-2.78-3,2.83,2.83,0,0,1,2.88-3.08A2.75,2.75,0,0,1,240.52,128Zm-4.6.06c0,1.27.73,2.23,1.76,2.23s1.76-1,1.76-2.25c0-1-.49-2.23-1.74-2.23S235.92,127,235.92,128.1Z"/><path d="M241.6,126.15a.72.72,0,1,1,1.43,0,.69.69,0,0,1-.72.74A.7.7,0,0,1,241.6,126.15Zm0,4.23a.72.72,0,1,1,1.43,0,.69.69,0,0,1-.72.74A.7.7,0,0,1,241.6,130.38Z"/><path d="M248.16,123.52v1.67h1.51v.8h-1.51v3.13c0,.72.2,1.13.79,1.13a2.68,2.68,0,0,0,.61-.07l.05.79a2.73,2.73,0,0,1-.94.14,1.45,1.45,0,0,1-1.14-.44,2.15,2.15,0,0,1-.41-1.51V126h-.9v-.8h.9V123.8Z"/><path d="M251.37,128.28a1.87,1.87,0,0,0,2,2A4,4,0,0,0,255,130l.18.75a4.67,4.67,0,0,1-1.93.36,2.69,2.69,0,0,1-2.86-2.92c0-1.76,1-3.13,2.73-3.13a2.46,2.46,0,0,1,2.4,2.73,4.15,4.15,0,0,1,0,.49Zm3.1-.75a1.51,1.51,0,0,0-1.47-1.72,1.76,1.76,0,0,0-1.62,1.72Z"/><path d="M257.25,125.19l.83,1.24c.22.33.4.63.59.95h0c.2-.35.39-.65.58-1l.81-1.23h1.14l-2,2.8,2,3h-1.2l-.85-1.31c-.22-.33-.42-.66-.62-1h0c-.2.34-.4.66-.62,1l-.84,1.31H256l2.06-3-2-2.84Z"/><path d="M263.74,123.52v1.67h1.52v.8h-1.52v3.13c0,.72.21,1.13.8,1.13a2.76,2.76,0,0,0,.61-.07l.05.79a2.73,2.73,0,0,1-.94.14,1.45,1.45,0,0,1-1.14-.44,2.15,2.15,0,0,1-.41-1.51V126h-.9v-.8h.9V123.8Z"/><path d="M271.63,128a2.83,2.83,0,0,1-2.89,3.08,2.76,2.76,0,0,1-2.79-3,2.83,2.83,0,0,1,2.88-3.08A2.75,2.75,0,0,1,271.63,128Zm-4.61.06c0,1.27.73,2.23,1.76,2.23s1.77-1,1.77-2.25c0-1-.5-2.23-1.74-2.23S267,127,267,128.1Z"/><path d="M272,132.47a17.44,17.44,0,0,0,.72-2.87l1.17-.12a14.23,14.23,0,0,1-1.14,2.92Z"/><path d="M190.27,138a.66.66,0,0,1-1.31,0,.64.64,0,0,1,.66-.66A.62.62,0,0,1,190.27,138Zm-1.18,7.43v-5.8h1.06v5.8Z"/><path d="M191.9,141.16c0-.6,0-1.09-.05-1.57h.93l0,.93h0a2,2,0,0,1,1.82-1.06,1.72,1.72,0,0,1,1.65,1.16h0a2.35,2.35,0,0,1,.65-.76,2,2,0,0,1,1.28-.4c.77,0,1.91.5,1.91,2.51v3.42h-1v-3.28c0-1.12-.41-1.79-1.26-1.79a1.36,1.36,0,0,0-1.25,1,1.64,1.64,0,0,0-.08.53v3.58h-1v-3.48c0-.92-.4-1.59-1.21-1.59a1.43,1.43,0,0,0-1.3,1.05,1.5,1.5,0,0,0-.09.52v3.5h-1Z"/><path d="M205.12,145.39l-.08-.73h0a2.13,2.13,0,0,1-1.77.86,1.65,1.65,0,0,1-1.78-1.66c0-1.41,1.25-2.17,3.49-2.16v-.12a1.2,1.2,0,0,0-1.32-1.35,2.84,2.84,0,0,0-1.51.44l-.24-.7a3.63,3.63,0,0,1,1.91-.51c1.77,0,2.21,1.21,2.21,2.37V144a8.39,8.39,0,0,0,.09,1.39Zm-.15-3c-1.15,0-2.46.18-2.46,1.31a.93.93,0,0,0,1,1,1.45,1.45,0,0,0,1.41-1,1.36,1.36,0,0,0,.06-.33Z"/><path d="M212.69,139.59c0,.42,0,.88,0,1.59v3.37a3.35,3.35,0,0,1-.83,2.65,3.08,3.08,0,0,1-2.11.7,3.73,3.73,0,0,1-1.93-.48l.26-.81a3.25,3.25,0,0,0,1.7.46c1.08,0,1.87-.56,1.87-2v-.64h0a2.07,2.07,0,0,1-1.85,1,2.6,2.6,0,0,1-2.47-2.83,2.79,2.79,0,0,1,2.62-3.08,1.93,1.93,0,0,1,1.81,1h0l.05-.87Zm-1.09,2.29a1.44,1.44,0,0,0-.06-.48,1.53,1.53,0,0,0-1.47-1.12c-1,0-1.73.85-1.73,2.2,0,1.14.58,2.08,1.71,2.08a1.54,1.54,0,0,0,1.47-1.08,1.81,1.81,0,0,0,.08-.56Z"/><path d="M215,142.68a1.86,1.86,0,0,0,2,2,4,4,0,0,0,1.61-.3l.18.75a4.72,4.72,0,0,1-1.94.36,2.69,2.69,0,0,1-2.85-2.93c0-1.75,1-3.12,2.72-3.12a2.45,2.45,0,0,1,2.4,2.73,4.68,4.68,0,0,1,0,.49Zm3.09-.75a1.5,1.5,0,0,0-1.46-1.72,1.74,1.74,0,0,0-1.62,1.72Z"/><path d="M220.41,141.16c0-.6,0-1.09,0-1.57h.94l.06,1h0a2.12,2.12,0,0,1,1.92-1.09c.81,0,2,.47,2,2.47v3.46h-1v-3.34c0-.94-.35-1.72-1.35-1.72a1.5,1.5,0,0,0-1.41,1.08,1.45,1.45,0,0,0-.07.49v3.49h-1.06Z"/><path d="M226.39,146.87a17.44,17.44,0,0,0,.72-2.87l1.17-.12a13.89,13.89,0,0,1-1.14,2.91Z"/><path d="M237.35,142.44a2.83,2.83,0,0,1-2.89,3.08,2.76,2.76,0,0,1-2.78-3,2.83,2.83,0,0,1,2.88-3.08A2.74,2.74,0,0,1,237.35,142.44Zm-4.6.06c0,1.27.73,2.23,1.76,2.23s1.76-.95,1.76-2.25c0-1-.49-2.23-1.74-2.23S232.75,141.4,232.75,142.5Z"/><path d="M240,137.92v1.67h1.51v.8H240v3.13c0,.72.2,1.13.79,1.13a2.6,2.6,0,0,0,.61-.07l0,.79a2.69,2.69,0,0,1-.94.14,1.43,1.43,0,0,1-1.13-.44,2.15,2.15,0,0,1-.41-1.51v-3.17H238v-.8h.9V138.2Z"/><path d="M242.66,141.4c0-.69,0-1.27,0-1.81h.93l0,1.14h.05a1.74,1.74,0,0,1,1.61-1.27,1.39,1.39,0,0,1,.3,0v1a1.32,1.32,0,0,0-.36,0,1.48,1.48,0,0,0-1.42,1.36,3.37,3.37,0,0,0-.05.49v3.09h-1Z"/><path d="M249.74,145.39l-.09-.73h0a2.16,2.16,0,0,1-1.78.86,1.65,1.65,0,0,1-1.77-1.66c0-1.41,1.25-2.17,3.49-2.16v-.12a1.2,1.2,0,0,0-1.32-1.35,2.84,2.84,0,0,0-1.51.44l-.24-.7a3.6,3.6,0,0,1,1.9-.51c1.78,0,2.21,1.21,2.21,2.37V144a8.32,8.32,0,0,0,.1,1.39Zm-.16-3c-1.15,0-2.46.18-2.46,1.31a.93.93,0,0,0,1,1,1.45,1.45,0,0,0,1.4-1,1,1,0,0,0,.06-.33Z"/><path d="M259,145.18a4,4,0,0,1-1.67.33,2.76,2.76,0,0,1-2.89-3,3,3,0,0,1,3.12-3.08,3.4,3.4,0,0,1,1.46.3l-.24.81a2.47,2.47,0,0,0-1.22-.27,2.19,2.19,0,0,0,0,4.36,2.9,2.9,0,0,0,1.3-.29Z"/><path d="M263.44,145.39l-.08-.73h0a2.14,2.14,0,0,1-1.77.86,1.65,1.65,0,0,1-1.78-1.66c0-1.41,1.25-2.17,3.49-2.16v-.12a1.2,1.2,0,0,0-1.32-1.35,2.84,2.84,0,0,0-1.51.44l-.24-.7a3.63,3.63,0,0,1,1.91-.51c1.77,0,2.21,1.21,2.21,2.37V144a8.39,8.39,0,0,0,.09,1.39Zm-.15-3c-1.16,0-2.46.18-2.46,1.31a.93.93,0,0,0,1,1,1.45,1.45,0,0,0,1.41-1,1.36,1.36,0,0,0,.06-.33Z"/><path d="M264.6,147.07a1.75,1.75,0,0,0,1.15-.44c.29-.34.39-.79.39-2.19v-4.85h1.06v5.26a3.17,3.17,0,0,1-.7,2.39,2.65,2.65,0,0,1-1.8.66Zm2.72-9.11a.62.62,0,0,1-.66.64A.63.63,0,0,1,266,138a.64.64,0,0,1,.67-.66A.62.62,0,0,1,267.32,138Z"/><path d="M272.14,145.39l-.08-.73h0a2.14,2.14,0,0,1-1.77.86,1.65,1.65,0,0,1-1.78-1.66c0-1.41,1.25-2.17,3.49-2.16v-.12a1.2,1.2,0,0,0-1.32-1.35,2.84,2.84,0,0,0-1.51.44l-.24-.7a3.63,3.63,0,0,1,1.91-.51c1.77,0,2.21,1.21,2.21,2.37V144a8.39,8.39,0,0,0,.09,1.39Zm-.15-3c-1.15,0-2.46.18-2.46,1.31a.93.93,0,0,0,1,1,1.45,1.45,0,0,0,1.41-1,1.36,1.36,0,0,0,.06-.33Z"/><path d="M274,146.87a17.44,17.44,0,0,0,.72-2.87l1.17-.12a13.89,13.89,0,0,1-1.14,2.91Z"/><path d="M279.49,144.77a.71.71,0,0,1,.72-.76.76.76,0,1,1-.72.76Z"/><path d="M282,144.77a.71.71,0,0,1,.72-.76.76.76,0,1,1-.72.76Z"/><path d="M284.46,144.77a.71.71,0,0,1,.72-.76.76.76,0,1,1-.72.76Z"/></g><g id="borde"><line class="cls-6" x1="296.97" y1="121.97" x2="320.46" y2="121.97"/><polygon class="cls-7" points="297.79 115.9 297.79 128.05 291.72 121.97 297.79 115.9"/><polygon class="cls-7" points="319.64 115.9 319.64 128.05 325.72 121.97 319.64 115.9"/><line class="cls-6" x1="158.97" y1="121.97" x2="180.46" y2="121.97"/><polygon class="cls-7" points="159.79 115.9 159.79 128.05 153.72 121.97 159.79 115.9"/><polygon class="cls-7" points="179.65 115.9 179.65 128.05 185.72 121.97 179.65 115.9"/><path class="cls-8" d="M154.83,92.22c0-.64,0-1.19,0-1.64h1.32l.07.68h0a1.87,1.87,0,0,1,1.62-.79,2.22,2.22,0,0,1,2,2.49,2.33,2.33,0,0,1-2.22,2.62,1.51,1.51,0,0,1-1.26-.56h0v2.43h-1.52Zm1.52,1.15a1.51,1.51,0,0,0,0,.32.92.92,0,0,0,.89.72c.65,0,1-.55,1-1.38s-.34-1.37-1-1.37a1,1,0,0,0-.91.77,1.18,1.18,0,0,0,0,.27Z"/><path class="cls-8" d="M163.59,95.47,163.5,95h0a1.76,1.76,0,0,1-1.4.6,1.5,1.5,0,0,1-1.58-1.5c0-1.27,1.14-1.88,2.87-1.87v-.07c0-.26-.14-.63-.89-.63a2.75,2.75,0,0,0-1.35.37l-.28-1a4,4,0,0,1,1.9-.43,1.9,1.9,0,0,1,2.14,2.11v1.7a7.58,7.58,0,0,0,.07,1.19Zm-.19-2.31c-.79,0-1.41.18-1.41.77a.55.55,0,0,0,.6.58.83.83,0,0,0,.79-.56,1.1,1.1,0,0,0,0-.26Z"/><path class="cls-8" d="M170.82,88.38V94c0,.55,0,1.13,0,1.46h-1.35l-.07-.72h0a1.69,1.69,0,0,1-1.52.83,2.24,2.24,0,0,1-2.09-2.51,2.31,2.31,0,0,1,2.19-2.6,1.48,1.48,0,0,1,1.28.55h0V88.38Zm-1.52,4.27a2.45,2.45,0,0,0,0-.27.91.91,0,0,0-.88-.75c-.69,0-1.05.62-1.05,1.39s.41,1.35,1,1.35a.89.89,0,0,0,.88-.73,1.29,1.29,0,0,0,0-.35Z"/><path class="cls-8" d="M176.78,88.38V94c0,.55,0,1.13,0,1.46h-1.35l-.07-.72h0a1.69,1.69,0,0,1-1.52.83,2.24,2.24,0,0,1-2.09-2.51,2.31,2.31,0,0,1,2.19-2.6,1.48,1.48,0,0,1,1.28.55h0V88.38Zm-1.52,4.27a2.45,2.45,0,0,0,0-.27.91.91,0,0,0-.88-.75c-.69,0-1.05.62-1.05,1.39s.41,1.35,1,1.35a.89.89,0,0,0,.88-.73,1.29,1.29,0,0,0,0-.35Z"/><path class="cls-8" d="M179.58,89.23a.76.76,0,0,1-.82.75.74.74,0,0,1-.79-.75.74.74,0,0,1,.8-.77A.76.76,0,0,1,179.58,89.23ZM178,95.47V90.58h1.52v4.89Z"/><path class="cls-8" d="M180.75,92.14c0-.61,0-1.13,0-1.56H182l.07.67h0a1.77,1.77,0,0,1,1.5-.78c1,0,1.75.66,1.75,2.1v2.9h-1.52V92.76c0-.63-.22-1.06-.77-1.06a.79.79,0,0,0-.76.57,1,1,0,0,0-.06.38v2.82h-1.52Z"/><path class="cls-8" d="M191.27,90.58c0,.31,0,.72,0,1.45v2.73a2.81,2.81,0,0,1-.74,2.2,3,3,0,0,1-2,.6,3.81,3.81,0,0,1-1.76-.38l.3-1.15a3,3,0,0,0,1.42.37,1.16,1.16,0,0,0,1.26-1.29v-.32h0a1.55,1.55,0,0,1-1.31.64A2.15,2.15,0,0,1,186.33,93a2.34,2.34,0,0,1,2.22-2.57,1.46,1.46,0,0,1,1.33.69h0l0-.58Zm-1.56,2a1.2,1.2,0,0,0,0-.28.83.83,0,0,0-.81-.67c-.55,0-1,.5-1,1.39,0,.73.36,1.3,1,1.3a.81.81,0,0,0,.79-.62,1.29,1.29,0,0,0,.05-.4Z"/><path class="cls-8" d="M194.76,92.34v1h-2.61v-1Z"/><path class="cls-8" d="M195.68,88.38h1.52v7.09h-1.52Z"/><path class="cls-8" d="M199.6,93.51c.05.63.67.93,1.37.93a4.31,4.31,0,0,0,1.35-.2l.2,1a4.81,4.81,0,0,1-1.76.3,2.35,2.35,0,0,1-2.61-2.49,2.45,2.45,0,0,1,2.46-2.61,2.17,2.17,0,0,1,2.18,2.44,3.61,3.61,0,0,1,0,.6Zm1.78-1a.88.88,0,0,0-.85-1,1,1,0,0,0-.94,1Z"/><path class="cls-8" d="M203.88,95.47V91.7h-.64V90.58h.64v-.19a2.21,2.21,0,0,1,.62-1.63,2,2,0,0,1,1.34-.49,2.92,2.92,0,0,1,.81.1l-.06,1.17a1.61,1.61,0,0,0-.49-.08c-.49,0-.7.39-.7.87v.25h1V91.7h-1v3.77Z"/><path class="cls-8" d="M209,89.19v1.39h1.08V91.7H209v1.77c0,.59.14.86.59.86a2.48,2.48,0,0,0,.45,0v1.15a2.91,2.91,0,0,1-1,.13,1.58,1.58,0,0,1-1.14-.42,2,2,0,0,1-.42-1.45v-2h-.65V90.58h.65V89.52Z"/><line class="cls-9" x1="368.46" y1="173.97" x2="343.97" y2="173.97"/><polygon class="cls-10" points="367.64 180.05 367.64 167.9 373.72 173.97 367.64 180.05"/><polygon class="cls-10" points="344.79 180.05 344.79 167.9 338.72 173.97 344.79 180.05"/><line class="cls-9" x1="133.46" y1="171.97" x2="112.97" y2="171.97"/><polygon class="cls-10" points="132.65 178.05 132.65 165.9 138.72 171.97 132.65 178.05"/><polygon class="cls-10" points="113.79 178.05 113.79 165.9 107.72 171.97 113.79 178.05"/><path class="cls-10" d="M343.83,150.64c0-.61,0-1.13,0-1.56h1.28l.07.66h0a1.7,1.7,0,0,1,1.48-.77,1.38,1.38,0,0,1,1.33.83h0a2.19,2.19,0,0,1,.63-.59,1.76,1.76,0,0,1,.93-.24c.94,0,1.65.66,1.65,2.12V154h-1.48v-2.66c0-.71-.23-1.12-.72-1.12a.74.74,0,0,0-.7.53,1.27,1.27,0,0,0-.06.39V154h-1.47v-2.74c0-.62-.22-1-.7-1a.77.77,0,0,0-.71.55,1,1,0,0,0-.06.38V154h-1.48Z"/><path class="cls-10" d="M355.2,154l-.09-.49h0a1.74,1.74,0,0,1-1.39.6,1.5,1.5,0,0,1-1.58-1.5c0-1.27,1.14-1.88,2.86-1.87v-.07c0-.26-.13-.63-.88-.63a2.75,2.75,0,0,0-1.35.37l-.28-1a4,4,0,0,1,1.9-.43,1.9,1.9,0,0,1,2.14,2.11v1.7a7.58,7.58,0,0,0,.07,1.19Zm-.18-2.31c-.79,0-1.41.18-1.41.77a.55.55,0,0,0,.6.58.82.82,0,0,0,.78-.56,1.09,1.09,0,0,0,0-.26Z"/><path class="cls-10" d="M357.71,150.69c0-.72,0-1.19,0-1.61H359l0,.9h0a1.43,1.43,0,0,1,1.31-1,1.52,1.52,0,0,1,.32,0v1.43a2.06,2.06,0,0,0-.4,0,1,1,0,0,0-1,.77,1.79,1.79,0,0,0,0,.34V154h-1.52Z"/><path class="cls-10" d="M366.09,149.08c0,.31,0,.72,0,1.45v2.73a2.81,2.81,0,0,1-.74,2.2,3,3,0,0,1-2,.6,3.81,3.81,0,0,1-1.76-.38l.3-1.15a3,3,0,0,0,1.42.37,1.16,1.16,0,0,0,1.26-1.29v-.32h0a1.55,1.55,0,0,1-1.31.64,2.15,2.15,0,0,1-2.07-2.39,2.34,2.34,0,0,1,2.22-2.57,1.47,1.47,0,0,1,1.33.69h0l0-.58Zm-1.56,2a1.2,1.2,0,0,0,0-.28.83.83,0,0,0-.81-.67c-.55,0-1,.5-1,1.39,0,.73.36,1.3,1,1.3a.82.82,0,0,0,.79-.62,1.29,1.29,0,0,0,0-.4Z"/><path class="cls-10" d="M368.85,147.73a.76.76,0,0,1-.82.75.74.74,0,0,1-.79-.75.74.74,0,0,1,.8-.77A.76.76,0,0,1,368.85,147.73ZM367.28,154v-4.89h1.52V154Z"/><path class="cls-10" d="M370,150.64c0-.61,0-1.13,0-1.56h1.32l.07.67h0a1.77,1.77,0,0,1,1.5-.78c1,0,1.75.66,1.75,2.1V154h-1.52v-2.71c0-.63-.22-1.06-.77-1.06a.81.81,0,0,0-.76.57,1,1,0,0,0-.06.38V154H370Z"/><path class="cls-10" d="M378.19,150.84v1h-2.62v-1Z"/><path class="cls-10" d="M379.1,150.69c0-.72,0-1.19,0-1.61h1.31l.05.9h0a1.43,1.43,0,0,1,1.31-1,1.57,1.57,0,0,1,.32,0v1.43a2.18,2.18,0,0,0-.41,0,1,1,0,0,0-1,.77c0,.1,0,.22,0,.34V154H379.1Z"/><path class="cls-10" d="M384.47,147.73a.76.76,0,0,1-.82.75.74.74,0,0,1-.79-.75.74.74,0,0,1,.8-.77A.77.77,0,0,1,384.47,147.73ZM382.9,154v-4.89h1.52V154Z"/><path class="cls-10" d="M390.3,149.08c0,.31,0,.72,0,1.45v2.73a2.81,2.81,0,0,1-.74,2.2,3,3,0,0,1-2,.6,3.78,3.78,0,0,1-1.76-.38l.3-1.15a2.93,2.93,0,0,0,1.41.37,1.16,1.16,0,0,0,1.27-1.29v-.32h0a1.56,1.56,0,0,1-1.32.64,2.15,2.15,0,0,1-2.06-2.39,2.34,2.34,0,0,1,2.21-2.57,1.47,1.47,0,0,1,1.34.69h0l.05-.58Zm-1.56,2a1.2,1.2,0,0,0,0-.28.83.83,0,0,0-.82-.67c-.55,0-1,.5-1,1.39,0,.73.37,1.3,1,1.3a.83.83,0,0,0,.8-.62,1.29,1.29,0,0,0,.05-.4Z"/><path class="cls-10" d="M391.49,146.88H393v2.78h0a1.75,1.75,0,0,1,1.38-.69c1,0,1.71.67,1.71,2.14V154H394.6v-2.69c0-.64-.22-1.08-.79-1.08a.81.81,0,0,0-.76.53,1,1,0,0,0,0,.34V154h-1.52Z"/><path class="cls-10" d="M399,147.69v1.39h1.09v1.12H399V152c0,.59.15.86.6.86a2.48,2.48,0,0,0,.45,0v1.15a3,3,0,0,1-1,.13,1.54,1.54,0,0,1-1.13-.42,2,2,0,0,1-.42-1.45v-2h-.65v-1.12h.65V148Z"/><path class="cls-10" d="M345.58,160.82h0l-1.24.59-.25-1.14,1.72-.79h1.26V166h-1.47Z"/><path class="cls-10" d="M354,162.69c0,2-.81,3.39-2.46,3.39s-2.42-1.51-2.43-3.35.8-3.36,2.48-3.36S354,160.91,354,162.69Zm-3.36,0c0,1.49.35,2.2.94,2.2s.9-.74.9-2.22-.31-2.2-.91-2.2S350.61,161.22,350.62,162.73Z"/><path class="cls-10" d="M359.53,162.69c0,2-.81,3.39-2.46,3.39s-2.42-1.51-2.43-3.35.8-3.36,2.47-3.36S359.53,160.91,359.53,162.69Zm-3.36,0c0,1.49.35,2.2.94,2.2s.9-.74.9-2.22-.31-2.2-.92-2.2S356.16,161.22,356.17,162.73Z"/><path class="cls-10" d="M360.48,162.72c0-.64,0-1.19,0-1.64h1.32l.07.68h0a1.87,1.87,0,0,1,1.62-.79,2.22,2.22,0,0,1,2,2.49,2.33,2.33,0,0,1-2.22,2.62,1.51,1.51,0,0,1-1.26-.56h0V168h-1.52Zm1.52,1.15a1.51,1.51,0,0,0,0,.32.92.92,0,0,0,.89.72c.65,0,1-.55,1-1.38s-.35-1.37-1-1.37a1,1,0,0,0-.91.77,1.18,1.18,0,0,0,0,.27Z"/><path class="cls-10" d="M367.38,161.08l.48.81.4.73h0c.12-.26.25-.51.37-.75l.43-.79h1.65l-1.61,2.33,1.63,2.56H369l-.48-.88a7.39,7.39,0,0,1-.38-.74h0c-.12.26-.25.5-.37.74l-.46.88h-1.67l1.66-2.49-1.62-2.4Z"/><line class="cls-11" x1="145.72" y1="62.97" x2="145.72" y2="67.56"/><polygon class="cls-12" points="150.82 66.87 140.62 66.87 145.72 71.97 150.82 66.87"/><line class="cls-13" x1="286.46" y1="173.97" x2="190.97" y2="173.97"/><polygon class="cls-2" points="285.64 180.05 285.64 167.9 291.72 173.97 285.64 180.05"/><polygon class="cls-2" points="191.79 180.05 191.79 167.9 185.72 173.97 191.79 180.05"/><path class="cls-8" d="M156.14,108.47v-1.1l1-.91c1.71-1.53,2.53-2.4,2.56-3.31,0-.64-.39-1.14-1.29-1.14a2.79,2.79,0,0,0-1.66.64l-.52-1.3a4.29,4.29,0,0,1,2.56-.81,2.43,2.43,0,0,1,2.73,2.45c0,1.31-.95,2.35-2.08,3.36l-.71.6v0h2.93v1.5Z"/><path class="cls-8" d="M168.56,104.54c0,2.41-1,4.06-3,4.06s-2.9-1.81-2.92-4,1-4,3-4S168.56,102.4,168.56,104.54Zm-4,0c0,1.78.42,2.63,1.13,2.63s1.09-.88,1.09-2.66-.37-2.64-1.11-2.64S164.51,102.77,164.52,104.59Z"/><path class="cls-8" d="M169.69,104.57c0-.76,0-1.42-.05-2h1.59l.08.81h0a2.24,2.24,0,0,1,1.95-.94c1.28,0,2.43,1.11,2.43,3,0,2.14-1.35,3.14-2.66,3.14a1.79,1.79,0,0,1-1.52-.67h0v2.92h-1.83Zm1.83,1.38a2.21,2.21,0,0,0,0,.39,1.1,1.1,0,0,0,1.07.86c.79,0,1.26-.66,1.26-1.65s-.42-1.65-1.24-1.65a1.15,1.15,0,0,0-1.09.93,1.58,1.58,0,0,0,0,.32Z"/><path class="cls-8" d="M178,102.61l.58,1c.17.3.32.6.48.87h0c.16-.31.3-.61.46-.9l.51-.94h2l-1.93,2.79,2,3.07H180l-.59-1c-.16-.29-.31-.59-.45-.89h0c-.14.31-.3.6-.44.89l-.55,1h-2l2-3-1.95-2.88Z"/><path class="cls-8" d="M296.72,111.47v-1.1l1-.91c1.7-1.53,2.53-2.4,2.55-3.31,0-.64-.38-1.14-1.28-1.14a2.85,2.85,0,0,0-1.67.64l-.51-1.3a4.25,4.25,0,0,1,2.55-.81,2.43,2.43,0,0,1,2.74,2.45c0,1.31-.95,2.35-2.08,3.36l-.72.6v0h2.94v1.5Z"/><path class="cls-8" d="M309.14,107.54c0,2.41-1,4.06-3,4.06s-2.91-1.81-2.92-4,1-4,3-4S309.14,105.4,309.14,107.54Zm-4,0c0,1.78.42,2.63,1.12,2.63s1.09-.88,1.09-2.66-.37-2.64-1.1-2.64S305.08,105.77,305.1,107.59Z"/><path class="cls-8" d="M310.27,107.57c0-.76,0-1.42,0-2h1.58l.09.81h0a2.25,2.25,0,0,1,2-.94c1.28,0,2.43,1.11,2.43,3,0,2.14-1.35,3.14-2.66,3.14a1.79,1.79,0,0,1-1.52-.67h0v2.92h-1.82Zm1.82,1.38a1.51,1.51,0,0,0,0,.39,1.1,1.1,0,0,0,1.07.86c.79,0,1.25-.66,1.25-1.65s-.42-1.65-1.23-1.65a1.15,1.15,0,0,0-1.09.93,1.08,1.08,0,0,0,0,.32Z"/><path class="cls-8" d="M318.55,105.61l.57,1,.48.87h0q.22-.47.45-.9l.52-.94h2l-1.93,2.79,2,3.07h-2.06l-.59-1c-.17-.29-.31-.59-.45-.89h0c-.14.31-.3.6-.44.89l-.56,1h-2l2-3-1.94-2.88Z"/><path class="cls-10" d="M90.83,147.64c0-.61,0-1.13,0-1.56h1.28l.07.66h0a1.7,1.7,0,0,1,1.48-.77,1.38,1.38,0,0,1,1.33.83h0a2.19,2.19,0,0,1,.63-.59,1.76,1.76,0,0,1,.93-.24c.94,0,1.65.66,1.65,2.12V151H96.73v-2.66c0-.71-.23-1.12-.72-1.12a.74.74,0,0,0-.7.53,1.27,1.27,0,0,0-.06.39V151H93.78v-2.74c0-.62-.22-1-.7-1a.77.77,0,0,0-.71.55,1,1,0,0,0-.06.38V151H90.83Z"/><path class="cls-10" d="M102.2,151l-.09-.49h0a1.74,1.74,0,0,1-1.39.6,1.5,1.5,0,0,1-1.58-1.5c0-1.27,1.14-1.88,2.86-1.87v-.07c0-.26-.13-.63-.88-.63a2.75,2.75,0,0,0-1.35.37l-.28-1a4,4,0,0,1,1.9-.43,1.9,1.9,0,0,1,2.14,2.11v1.7a7.58,7.58,0,0,0,.07,1.19Zm-.18-2.31c-.79,0-1.41.18-1.41.77a.55.55,0,0,0,.6.58.82.82,0,0,0,.78-.56,1.09,1.09,0,0,0,0-.26Z"/><path class="cls-10" d="M104.71,147.69c0-.72,0-1.19,0-1.61H106l0,.9h0a1.43,1.43,0,0,1,1.31-1,1.52,1.52,0,0,1,.32,0v1.43a2.06,2.06,0,0,0-.4,0,1,1,0,0,0-1,.77,1.79,1.79,0,0,0,0,.34V151h-1.52Z"/><path class="cls-10" d="M113.09,146.08c0,.31,0,.72,0,1.45v2.73a2.81,2.81,0,0,1-.74,2.2,3,3,0,0,1-2,.6,3.81,3.81,0,0,1-1.76-.38l.3-1.15a3,3,0,0,0,1.42.37,1.16,1.16,0,0,0,1.26-1.29v-.32h0a1.55,1.55,0,0,1-1.31.64,2.15,2.15,0,0,1-2.07-2.39,2.34,2.34,0,0,1,2.22-2.57,1.47,1.47,0,0,1,1.33.69h0l0-.58Zm-1.56,2a1.2,1.2,0,0,0,0-.28.83.83,0,0,0-.81-.67c-.55,0-1,.5-1,1.39,0,.73.36,1.3,1,1.3a.82.82,0,0,0,.79-.62,1.29,1.29,0,0,0,0-.4Z"/><path class="cls-10" d="M115.85,144.73a.76.76,0,0,1-.82.75.74.74,0,0,1-.79-.75.74.74,0,0,1,.8-.77A.76.76,0,0,1,115.85,144.73ZM114.28,151v-4.89h1.52V151Z"/><path class="cls-10" d="M117,147.64c0-.61,0-1.13,0-1.56h1.32l.07.67h0a1.77,1.77,0,0,1,1.5-.78c1,0,1.75.66,1.75,2.1V151h-1.52v-2.71c0-.63-.22-1.06-.77-1.06a.81.81,0,0,0-.76.57,1,1,0,0,0-.06.38V151H117Z"/><path class="cls-10" d="M125.19,147.84v1h-2.62v-1Z"/><path class="cls-10" d="M126.1,143.88h1.52V151H126.1Z"/><path class="cls-10" d="M130,149c0,.63.67.93,1.37.93a4.31,4.31,0,0,0,1.35-.2l.2,1a4.83,4.83,0,0,1-1.77.3,2.34,2.34,0,0,1-2.6-2.49A2.45,2.45,0,0,1,131,146a2.17,2.17,0,0,1,2.18,2.44,3.61,3.61,0,0,1-.05.6Zm1.78-1a.88.88,0,0,0-.85-1,1,1,0,0,0-.94,1Z"/><path class="cls-10" d="M134.3,151V147.2h-.64v-1.12h.64v-.19a2.21,2.21,0,0,1,.62-1.63,2,2,0,0,1,1.34-.49,2.92,2.92,0,0,1,.81.1L137,145a1.61,1.61,0,0,0-.49-.08c-.49,0-.7.39-.7.87v.25h1v1.12h-1V151Z"/><path class="cls-10" d="M139.38,144.69v1.39h1.09v1.12h-1.09V149c0,.59.15.86.6.86a2.48,2.48,0,0,0,.45,0v1.15a3,3,0,0,1-1,.13,1.58,1.58,0,0,1-1.14-.42,2,2,0,0,1-.42-1.45v-2h-.65v-1.12h.65V145Z"/><path class="cls-10" d="M92.58,157.82h0l-1.24.59-.25-1.14,1.72-.79h1.26V163H92.58Z"/><path class="cls-10" d="M101,159.69c0,2-.81,3.39-2.46,3.39s-2.42-1.51-2.43-3.35.8-3.36,2.48-3.36S101,157.91,101,159.69Zm-3.36,0c0,1.49.35,2.2.94,2.2s.9-.74.9-2.22-.31-2.2-.91-2.2S97.61,158.22,97.62,159.73Z"/><path class="cls-10" d="M106.53,159.69c0,2-.81,3.39-2.46,3.39s-2.42-1.51-2.43-3.35.8-3.36,2.47-3.36S106.53,157.91,106.53,159.69Zm-3.36,0c0,1.49.35,2.2.94,2.2s.9-.74.9-2.22-.31-2.2-.92-2.2S103.16,158.22,103.17,159.73Z"/><path class="cls-10" d="M107.48,159.72c0-.64,0-1.19,0-1.64h1.32l.07.68h0a1.87,1.87,0,0,1,1.62-.79,2.22,2.22,0,0,1,2,2.49,2.33,2.33,0,0,1-2.22,2.62,1.51,1.51,0,0,1-1.26-.56h0V165h-1.52Zm1.52,1.15a1.51,1.51,0,0,0,0,.32.92.92,0,0,0,.89.72c.65,0,1-.55,1-1.38s-.35-1.37-1-1.37a1,1,0,0,0-.91.77,1.18,1.18,0,0,0,0,.27Z"/><path class="cls-10" d="M114.38,158.08l.48.81.4.73h0c.12-.26.25-.51.37-.75l.43-.79h1.65l-1.61,2.33,1.63,2.56H116l-.48-.88a7.39,7.39,0,0,1-.38-.74h0c-.12.26-.25.5-.37.74l-.46.88h-1.67l1.66-2.49-1.62-2.4Z"/><path class="cls-8" d="M264.83,95.22c0-.64,0-1.19,0-1.64h1.32l.07.68h0a1.87,1.87,0,0,1,1.62-.79,2.22,2.22,0,0,1,2,2.49,2.33,2.33,0,0,1-2.22,2.62,1.51,1.51,0,0,1-1.26-.56h0v2.43h-1.52Zm1.52,1.15a1.51,1.51,0,0,0,0,.32.92.92,0,0,0,.89.72c.65,0,1-.55,1-1.38s-.34-1.37-1-1.37a1,1,0,0,0-.91.77,1.18,1.18,0,0,0,0,.27Z"/><path class="cls-8" d="M273.59,98.47,273.5,98h0a1.76,1.76,0,0,1-1.4.6,1.5,1.5,0,0,1-1.58-1.5c0-1.27,1.14-1.88,2.87-1.87v-.07c0-.26-.14-.63-.89-.63a2.75,2.75,0,0,0-1.35.37l-.28-1a4,4,0,0,1,1.9-.43,1.9,1.9,0,0,1,2.14,2.11v1.7a7.58,7.58,0,0,0,.07,1.19Zm-.19-2.31c-.79,0-1.41.18-1.41.77a.55.55,0,0,0,.6.58.83.83,0,0,0,.79-.56,1.1,1.1,0,0,0,0-.26Z"/><path class="cls-8" d="M280.82,91.38V97c0,.55,0,1.13,0,1.46h-1.35l-.07-.72h0a1.69,1.69,0,0,1-1.52.83,2.24,2.24,0,0,1-2.09-2.51,2.31,2.31,0,0,1,2.19-2.6,1.48,1.48,0,0,1,1.28.55h0V91.38Zm-1.52,4.27a2.45,2.45,0,0,0,0-.27.91.91,0,0,0-.88-.75c-.69,0-1,.62-1,1.39s.41,1.35,1,1.35a.89.89,0,0,0,.88-.73,1.29,1.29,0,0,0,0-.35Z"/><path class="cls-8" d="M286.78,91.38V97c0,.55,0,1.13,0,1.46h-1.35l-.07-.72h0a1.69,1.69,0,0,1-1.52.83,2.24,2.24,0,0,1-2.09-2.51,2.31,2.31,0,0,1,2.19-2.6,1.48,1.48,0,0,1,1.28.55h0V91.38Zm-1.52,4.27a2.45,2.45,0,0,0,0-.27.91.91,0,0,0-.88-.75c-.69,0-1.05.62-1.05,1.39s.41,1.35,1,1.35a.89.89,0,0,0,.88-.73,1.29,1.29,0,0,0,0-.35Z"/><path class="cls-8" d="M289.58,92.23a.76.76,0,0,1-.82.75.74.74,0,0,1-.79-.75.74.74,0,0,1,.8-.77A.76.76,0,0,1,289.58,92.23ZM288,98.47V93.58h1.52v4.89Z"/><path class="cls-8" d="M290.75,95.14c0-.61,0-1.13,0-1.56H292l.07.67h0a1.77,1.77,0,0,1,1.5-.78c1,0,1.75.66,1.75,2.1v2.9h-1.52V95.76c0-.63-.22-1.06-.77-1.06a.79.79,0,0,0-.76.57,1,1,0,0,0-.06.38v2.82h-1.52Z"/><path class="cls-8" d="M301.27,93.58c0,.31,0,.72,0,1.45v2.73a2.81,2.81,0,0,1-.74,2.2,3,3,0,0,1-2,.6,3.81,3.81,0,0,1-1.76-.38l.3-1.15a3,3,0,0,0,1.42.37,1.16,1.16,0,0,0,1.26-1.29v-.32h0a1.55,1.55,0,0,1-1.31.64A2.15,2.15,0,0,1,296.33,96a2.34,2.34,0,0,1,2.22-2.57,1.46,1.46,0,0,1,1.33.69h0l.05-.58Zm-1.56,2a1.2,1.2,0,0,0,0-.28.83.83,0,0,0-.81-.67c-.55,0-1,.5-1,1.39,0,.73.36,1.3,1,1.3a.81.81,0,0,0,.79-.62,1.29,1.29,0,0,0,0-.4Z"/><path class="cls-8" d="M304.76,95.34v1h-2.61v-1Z"/><path class="cls-8" d="M305.68,95.19c0-.72,0-1.19,0-1.61H307l.05.9h0a1.43,1.43,0,0,1,1.31-1,1.57,1.57,0,0,1,.32,0v1.43a2.18,2.18,0,0,0-.41,0,1,1,0,0,0-1,.77,1.79,1.79,0,0,0,0,.34v2.48h-1.52Z"/><path class="cls-8" d="M311.05,92.23a.76.76,0,0,1-.82.75.74.74,0,0,1-.79-.75.74.74,0,0,1,.8-.77A.76.76,0,0,1,311.05,92.23Zm-1.57,6.24V93.58H311v4.89Z"/><path class="cls-8" d="M316.88,93.58c0,.31,0,.72,0,1.45v2.73a2.81,2.81,0,0,1-.74,2.2,3,3,0,0,1-2,.6,3.8,3.8,0,0,1-1.75-.38l.3-1.15a3,3,0,0,0,1.41.37,1.17,1.17,0,0,0,1.27-1.29v-.32h0a1.56,1.56,0,0,1-1.31.64A2.15,2.15,0,0,1,311.94,96a2.34,2.34,0,0,1,2.21-2.57,1.47,1.47,0,0,1,1.34.69h0l.05-.58Zm-1.56,2a1.2,1.2,0,0,0,0-.28.83.83,0,0,0-.82-.67c-.55,0-1,.5-1,1.39,0,.73.36,1.3,1,1.3a.83.83,0,0,0,.8-.62,1.29,1.29,0,0,0,.05-.4Z"/><path class="cls-8" d="M318.07,91.38h1.52v2.78h0a1.79,1.79,0,0,1,.59-.5,1.71,1.71,0,0,1,.79-.19c1,0,1.71.67,1.71,2.14v2.86h-1.52V95.78c0-.64-.22-1.08-.79-1.08a.81.81,0,0,0-.76.53,1,1,0,0,0,0,.34v2.9h-1.52Z"/><path class="cls-8" d="M325.56,92.19v1.39h1.09V94.7h-1.09v1.77c0,.59.14.86.6.86a2.48,2.48,0,0,0,.45,0v1.15a3,3,0,0,1-1,.13,1.57,1.57,0,0,1-1.13-.42,2,2,0,0,1-.42-1.45v-2h-.65V93.58h.65V92.52Z"/><path class="cls-12" d="M135.79,47.47c0-.32,0-.91,0-1.46V40.38h1.52v2.78h0a1.72,1.72,0,0,1,1.47-.69c1.17,0,2,1,2,2.47a2.35,2.35,0,0,1-2.23,2.64,1.62,1.62,0,0,1-1.47-.79h0l-.06.68Zm1.56-2.08a1.12,1.12,0,0,0,0,.27.92.92,0,0,0,.89.72c.64,0,1-.5,1-1.38s-.34-1.36-1-1.36a.94.94,0,0,0-.89.75,1.27,1.27,0,0,0,0,.28Z"/><path class="cls-12" d="M146.66,45a2.45,2.45,0,0,1-2.57,2.61,2.4,2.4,0,0,1-2.53-2.52,2.44,2.44,0,0,1,2.61-2.59A2.38,2.38,0,0,1,146.66,45Zm-3.53.05c0,.84.35,1.47,1,1.47s1-.59,1-1.47-.28-1.47-1-1.47S143.13,44.3,143.13,45Z"/><path class="cls-12" d="M147.61,44.19c0-.72,0-1.19,0-1.61h1.31l.05.9h0a1.43,1.43,0,0,1,1.31-1,1.57,1.57,0,0,1,.32,0v1.43a2.15,2.15,0,0,0-.4,0,1,1,0,0,0-1,.77,1.79,1.79,0,0,0,0,.34v2.48h-1.52Z"/><path class="cls-12" d="M156.06,40.38V46c0,.55,0,1.13,0,1.46h-1.35l-.07-.72h0a1.71,1.71,0,0,1-1.53.83,2.24,2.24,0,0,1-2.08-2.51,2.31,2.31,0,0,1,2.19-2.6,1.48,1.48,0,0,1,1.28.55h0V40.38Zm-1.52,4.27a2.45,2.45,0,0,0,0-.27.91.91,0,0,0-.89-.75c-.68,0-1,.62-1,1.39s.41,1.35,1,1.35a.89.89,0,0,0,.88-.73,1.29,1.29,0,0,0,0-.35Z"/><path class="cls-12" d="M158.46,45.51c0,.63.67.93,1.37.93a4.31,4.31,0,0,0,1.35-.2l.2,1a4.83,4.83,0,0,1-1.77.3,2.34,2.34,0,0,1-2.6-2.49,2.45,2.45,0,0,1,2.46-2.61,2.17,2.17,0,0,1,2.18,2.44,3.61,3.61,0,0,1-.05.6Zm1.78-1a.88.88,0,0,0-.86-1,1,1,0,0,0-.93,1Z"/><path class="cls-12" d="M162.57,44.19c0-.72,0-1.19,0-1.61h1.31l0,.9h0a1.43,1.43,0,0,1,1.31-1,1.57,1.57,0,0,1,.32,0v1.43a2.18,2.18,0,0,0-.41,0,1,1,0,0,0-1,.77,1.79,1.79,0,0,0,0,.34v2.48h-1.52Z"/><path class="cls-12" d="M168.67,44.34v1h-2.61v-1Z"/><path class="cls-12" d="M170.64,42.58l.39,2c.1.51.19,1.05.27,1.61h0c.1-.56.24-1.12.36-1.6l.52-2h1.2l.49,2c.13.55.26,1.1.36,1.66h0c.07-.56.17-1.11.28-1.67l.42-1.94h1.49L175,47.47h-1.43l-.46-1.72c-.12-.48-.21-.92-.31-1.52h0a11.44,11.44,0,0,1-.32,1.52l-.49,1.72h-1.42l-1.42-4.89Z"/><path class="cls-12" d="M178.74,41.23a.75.75,0,0,1-.81.75.74.74,0,0,1-.79-.75.74.74,0,0,1,.8-.77A.75.75,0,0,1,178.74,41.23Zm-1.56,6.24V42.58h1.52v4.89Z"/><path class="cls-12" d="M184.65,40.38V46c0,.55,0,1.13,0,1.46h-1.35l-.07-.72h0a1.71,1.71,0,0,1-1.53.83,2.24,2.24,0,0,1-2.08-2.51,2.31,2.31,0,0,1,2.18-2.6,1.49,1.49,0,0,1,1.29.55h0V40.38Zm-1.52,4.27a2.45,2.45,0,0,0,0-.27.91.91,0,0,0-.89-.75c-.68,0-1,.62-1,1.39s.41,1.35,1,1.35a.89.89,0,0,0,.88-.73,1.29,1.29,0,0,0,0-.35Z"/><path class="cls-12" d="M187.57,41.19v1.39h1.09V43.7h-1.09v1.77c0,.59.15.86.6.86a2.48,2.48,0,0,0,.45,0v1.15a3,3,0,0,1-1,.13,1.58,1.58,0,0,1-1.14-.42,2,2,0,0,1-.42-1.45v-2h-.65V42.58h.65V41.52Z"/><path class="cls-12" d="M189.55,40.38h1.52v2.78h0a1.79,1.79,0,0,1,.59-.5,1.71,1.71,0,0,1,.79-.19c1,0,1.71.67,1.71,2.14v2.86h-1.52V44.78c0-.64-.22-1.08-.79-1.08a.81.81,0,0,0-.76.53,1,1,0,0,0,0,.34v2.9h-1.52Z"/><path class="cls-12" d="M140,54.22h-2.51l-.14,1a2.82,2.82,0,0,1,.42,0,2.92,2.92,0,0,1,1.7.47,1.85,1.85,0,0,1,.79,1.63c0,1.21-1,2.28-2.78,2.28a4.13,4.13,0,0,1-1.81-.37l.27-1.14a3.73,3.73,0,0,0,1.47.32c.63,0,1.29-.3,1.29-1s-.52-1.08-1.82-1.08a5.61,5.61,0,0,0-.88.06l.43-3.4H140Z"/><path class="cls-12" d="M141.38,56.22c0-.64,0-1.19,0-1.64h1.32l.07.68h0a1.87,1.87,0,0,1,1.62-.79,2.22,2.22,0,0,1,2,2.49,2.33,2.33,0,0,1-2.22,2.62,1.51,1.51,0,0,1-1.26-.56h0v2.43h-1.52Zm1.52,1.15a1.51,1.51,0,0,0,0,.32.92.92,0,0,0,.89.72c.65,0,1-.55,1-1.38s-.35-1.37-1-1.37a1,1,0,0,0-.91.77,1.18,1.18,0,0,0,0,.27Z"/><path class="cls-12" d="M148.28,54.58l.48.81.4.73h0c.13-.26.25-.51.38-.75l.43-.79h1.64L150,56.91l1.62,2.56h-1.71l-.49-.88c-.14-.24-.26-.49-.38-.74h0c-.12.26-.25.5-.37.74l-.46.88h-1.67L148.2,57l-1.62-2.4Z"/><path class="cls-12" d="M326.79,47.47c0-.32,0-.91,0-1.46V40.38h1.52v2.78h0a1.72,1.72,0,0,1,1.47-.69c1.17,0,2,1,2,2.47a2.35,2.35,0,0,1-2.23,2.64,1.62,1.62,0,0,1-1.47-.79h0l-.06.68Zm1.56-2.08a1.12,1.12,0,0,0,0,.27.92.92,0,0,0,.89.72c.64,0,1-.5,1-1.38s-.34-1.36-1-1.36a.94.94,0,0,0-.89.75,1.27,1.27,0,0,0,0,.28Z"/><path class="cls-12" d="M337.66,45a2.45,2.45,0,0,1-2.57,2.61,2.4,2.4,0,0,1-2.53-2.52,2.44,2.44,0,0,1,2.61-2.59A2.38,2.38,0,0,1,337.66,45Zm-3.53.05c0,.84.35,1.47,1,1.47s1-.59,1-1.47-.28-1.47-1-1.47S334.13,44.3,334.13,45Z"/><path class="cls-12" d="M338.61,44.19c0-.72,0-1.19,0-1.61h1.31l.05.9h0a1.43,1.43,0,0,1,1.31-1,1.57,1.57,0,0,1,.32,0v1.43a2.15,2.15,0,0,0-.4,0,1,1,0,0,0-1,.77,1.79,1.79,0,0,0,0,.34v2.48h-1.52Z"/><path class="cls-12" d="M347.06,40.38V46c0,.55,0,1.13,0,1.46h-1.35l-.07-.72h0a1.71,1.71,0,0,1-1.53.83,2.24,2.24,0,0,1-2.08-2.51,2.31,2.31,0,0,1,2.19-2.6,1.48,1.48,0,0,1,1.28.55h0V40.38Zm-1.52,4.27a2.45,2.45,0,0,0,0-.27.91.91,0,0,0-.89-.75c-.68,0-1,.62-1,1.39s.41,1.35,1,1.35a.89.89,0,0,0,.88-.73,1.29,1.29,0,0,0,0-.35Z"/><path class="cls-12" d="M349.46,45.51c.05.63.67.93,1.37.93a4.31,4.31,0,0,0,1.35-.2l.2,1a4.83,4.83,0,0,1-1.77.3,2.34,2.34,0,0,1-2.6-2.49,2.45,2.45,0,0,1,2.46-2.61,2.17,2.17,0,0,1,2.18,2.44,3.61,3.61,0,0,1,0,.6Zm1.78-1a.88.88,0,0,0-.86-1,1,1,0,0,0-.93,1Z"/><path class="cls-12" d="M353.57,44.19c0-.72,0-1.19,0-1.61h1.31l.05.9h0a1.43,1.43,0,0,1,1.31-1,1.57,1.57,0,0,1,.32,0v1.43a2.18,2.18,0,0,0-.41,0,1,1,0,0,0-1,.77,1.79,1.79,0,0,0,0,.34v2.48h-1.52Z"/><path class="cls-12" d="M359.67,44.34v1h-2.61v-1Z"/><path class="cls-12" d="M361.64,42.58l.39,2c.1.51.19,1.05.27,1.61h0c.1-.56.24-1.12.36-1.6l.52-2h1.2l.49,2c.13.55.26,1.1.36,1.66h0c.07-.56.17-1.11.28-1.67l.42-1.94h1.49L366,47.47h-1.43l-.46-1.72c-.12-.48-.21-.92-.31-1.52h0a11.44,11.44,0,0,1-.32,1.52l-.49,1.72h-1.42l-1.42-4.89Z"/><path class="cls-12" d="M369.74,41.23a.75.75,0,0,1-.81.75.74.74,0,0,1-.79-.75.74.74,0,0,1,.8-.77A.75.75,0,0,1,369.74,41.23Zm-1.56,6.24V42.58h1.52v4.89Z"/><path class="cls-12" d="M375.65,40.38V46c0,.55,0,1.13,0,1.46h-1.35l-.07-.72h0a1.71,1.71,0,0,1-1.53.83,2.24,2.24,0,0,1-2.08-2.51,2.31,2.31,0,0,1,2.18-2.6,1.49,1.49,0,0,1,1.29.55h0V40.38Zm-1.52,4.27a2.45,2.45,0,0,0,0-.27.91.91,0,0,0-.89-.75c-.68,0-1,.62-1,1.39s.41,1.35,1,1.35a.89.89,0,0,0,.88-.73,1.29,1.29,0,0,0,0-.35Z"/><path class="cls-12" d="M378.57,41.19v1.39h1.09V43.7h-1.09v1.77c0,.59.15.86.6.86a2.48,2.48,0,0,0,.45,0v1.15a3,3,0,0,1-1,.13,1.57,1.57,0,0,1-1.13-.42,2,2,0,0,1-.42-1.45v-2h-.65V42.58h.65V41.52Z"/><path class="cls-12" d="M380.55,40.38h1.51v2.78h0a1.79,1.79,0,0,1,.59-.5,1.71,1.71,0,0,1,.79-.19c1,0,1.71.67,1.71,2.14v2.86h-1.52V44.78c0-.64-.22-1.08-.78-1.08a.84.84,0,0,0-.82.87v2.9h-1.51Z"/><path class="cls-12" d="M331,54.22h-2.51l-.14,1a2.82,2.82,0,0,1,.42,0,2.92,2.92,0,0,1,1.7.47,1.85,1.85,0,0,1,.79,1.63c0,1.21-1,2.28-2.78,2.28a4.13,4.13,0,0,1-1.81-.37l.27-1.14a3.73,3.73,0,0,0,1.47.32c.63,0,1.29-.3,1.29-1s-.52-1.08-1.82-1.08a5.61,5.61,0,0,0-.88.06l.43-3.4H331Z"/><path class="cls-12" d="M332.38,56.22c0-.64,0-1.19,0-1.64h1.32l.07.68h0a1.87,1.87,0,0,1,1.62-.79,2.22,2.22,0,0,1,2,2.49,2.33,2.33,0,0,1-2.22,2.62,1.51,1.51,0,0,1-1.26-.56h0v2.43h-1.52Zm1.52,1.15a1.51,1.51,0,0,0,0,.32.92.92,0,0,0,.89.72c.65,0,1-.55,1-1.38s-.35-1.37-1-1.37a1,1,0,0,0-.91.77,1.18,1.18,0,0,0,0,.27Z"/><path class="cls-12" d="M339.28,54.58l.48.81.4.73h0c.13-.26.25-.51.38-.75l.43-.79h1.64L341,56.91l1.62,2.56h-1.71l-.49-.88c-.14-.24-.26-.49-.38-.74h0c-.12.26-.25.5-.37.74l-.46.88h-1.67L339.2,57l-1.62-2.4Z"/><line class="cls-11" x1="334.72" y1="62.97" x2="334.72" y2="67.56"/><polygon class="cls-12" points="339.82 66.87 329.62 66.87 334.72 71.97 339.82 66.87"/><line class="cls-14" x1="367.46" y1="214.97" x2="112.97" y2="214.97"/><polygon points="366.64 221.05 366.64 208.9 372.72 214.97 366.64 221.05"/><polygon points="113.79 221.05 113.79 208.9 107.72 214.97 113.79 221.05"/></g><g id="margen"><rect class="cls-15" x="420.72" y="77.97" width="55" height="107"/><line class="cls-16" x1="92.72" y1="28.97" x2="409.72" y2="29.97"/><line class="cls-16" x1="409.72" y1="10.97" x2="409.72" y2="29.97"/><line class="cls-16" x1="92.72" y1="28.97" x2="92.72" y2="10.97"/><path d="M213,16.85c0,2.78-1.69,4.25-3.76,4.25s-3.63-1.65-3.63-4.1,1.59-4.24,3.75-4.24S213,14.45,213,16.85Zm-6.28.13c0,1.73.94,3.27,2.58,3.27s2.59-1.52,2.59-3.36c0-1.6-.84-3.28-2.58-3.28S206.76,15.2,206.76,17Z"/><path d="M215.84,13.5v1.67h1.51V16h-1.51V19.1c0,.72.2,1.13.79,1.13a2.68,2.68,0,0,0,.61-.07l0,.79a2.73,2.73,0,0,1-.94.14,1.45,1.45,0,0,1-1.14-.44,2.15,2.15,0,0,1-.41-1.51V16h-.9v-.8h.9V13.78Z"/><path d="M218.54,17c0-.69,0-1.27,0-1.81h.92l0,1.14h.05A1.74,1.74,0,0,1,221.1,15a1.32,1.32,0,0,1,.3,0v1a1.28,1.28,0,0,0-.36,0,1.47,1.47,0,0,0-1.41,1.36,2.38,2.38,0,0,0,0,.49V21h-1Z"/><path d="M225.61,21l-.08-.73h0a2.13,2.13,0,0,1-1.77.86A1.64,1.64,0,0,1,222,19.44c0-1.41,1.24-2.17,3.48-2.16v-.12a1.2,1.2,0,0,0-1.31-1.35,2.88,2.88,0,0,0-1.52.44l-.24-.7a3.63,3.63,0,0,1,1.91-.51c1.78,0,2.21,1.21,2.21,2.37v2.17a8.39,8.39,0,0,0,.09,1.39Zm-.15-3c-1.15,0-2.46.18-2.46,1.31a.93.93,0,0,0,1,1,1.45,1.45,0,0,0,1.4-1,1.36,1.36,0,0,0,.06-.33Z"/><path d="M234.87,20.76a4,4,0,0,1-1.67.33,2.76,2.76,0,0,1-2.89-3,2.94,2.94,0,0,1,3.12-3.08,3.44,3.44,0,0,1,1.46.3l-.24.81a2.5,2.5,0,0,0-1.22-.27,2,2,0,0,0-2.05,2.19,2,2,0,0,0,2,2.17,2.9,2.9,0,0,0,1.3-.29Z"/><path d="M239.32,21l-.09-.73h0a2.16,2.16,0,0,1-1.78.86,1.65,1.65,0,0,1-1.77-1.66c0-1.41,1.25-2.17,3.49-2.16v-.12a1.2,1.2,0,0,0-1.32-1.35,2.84,2.84,0,0,0-1.51.44l-.24-.7A3.61,3.61,0,0,1,238,15c1.77,0,2.2,1.21,2.2,2.37v2.17a8.32,8.32,0,0,0,.1,1.39Zm-.16-3c-1.15,0-2.46.18-2.46,1.31a.93.93,0,0,0,1,1,1.45,1.45,0,0,0,1.4-1,1,1,0,0,0,.06-.33Z"/><path d="M240.47,22.65a1.75,1.75,0,0,0,1.15-.44c.29-.34.4-.79.4-2.19V15.17h1.06v5.26a3.17,3.17,0,0,1-.7,2.39,2.68,2.68,0,0,1-1.8.66Zm2.73-9.11a.62.62,0,0,1-.66.64.63.63,0,0,1-.65-.64.64.64,0,0,1,.67-.66A.63.63,0,0,1,243.2,13.54Z"/><path d="M248,21l-.09-.73h0a2.16,2.16,0,0,1-1.78.86,1.65,1.65,0,0,1-1.77-1.66c0-1.41,1.25-2.17,3.49-2.16v-.12a1.2,1.2,0,0,0-1.32-1.35,2.84,2.84,0,0,0-1.51.44l-.24-.7a3.6,3.6,0,0,1,1.9-.51c1.78,0,2.21,1.21,2.21,2.37v2.17A8.32,8.32,0,0,0,249,21Zm-.16-3c-1.15,0-2.46.18-2.46,1.31a.93.93,0,0,0,1,1,1.45,1.45,0,0,0,1.4-1,1,1,0,0,0,.06-.33Z"/><path d="M255.42,12.65a7.92,7.92,0,0,0-1.51,4.9,8.08,8.08,0,0,0,1.51,4.87h-.82A7.71,7.71,0,0,1,253,17.55a7.93,7.93,0,0,1,1.58-4.9Z"/><path d="M261.55,12.46v7c0,.52,0,1.11.05,1.5h-1l0-1h0a2.14,2.14,0,0,1-2,1.14c-1.4,0-2.48-1.18-2.48-3,0-1.93,1.19-3.11,2.6-3.11a1.92,1.92,0,0,1,1.75.88h0V12.46Zm-1.05,5.07a1.65,1.65,0,0,0-.05-.44,1.55,1.55,0,0,0-1.52-1.23c-1.09,0-1.74,1-1.74,2.25s.57,2.14,1.71,2.14a1.67,1.67,0,0,0,1.6-1.71Z"/><path d="M264.48,13.54a.65.65,0,0,1-1.3,0,.64.64,0,0,1,.66-.66A.62.62,0,0,1,264.48,13.54ZM263.31,21v-5.8h1.05V21Z"/><path d="M266.52,15.17l1.14,3.26a13.28,13.28,0,0,1,.47,1.49h0c.13-.48.3-1,.49-1.49l1.13-3.26h1.1L268.61,21h-1l-2.2-5.8Z"/><path d="M270.74,22.45a18.51,18.51,0,0,0,.72-2.87l1.17-.12a14.23,14.23,0,0,1-1.14,2.92Z"/><path d="M276.45,17.06c0-.74,0-1.34-.05-1.89h1l0,1h0A2.26,2.26,0,0,1,279.48,15c1.4,0,2.46,1.18,2.46,2.95,0,2.08-1.27,3.11-2.64,3.11a2,2,0,0,1-1.79-.91h0v3.16h-1Zm1,1.55a2,2,0,0,0,.05.43,1.63,1.63,0,0,0,1.58,1.24c1.12,0,1.76-.92,1.76-2.25,0-1.16-.61-2.16-1.72-2.16a1.7,1.7,0,0,0-1.6,1.31,2,2,0,0,0-.07.43Z"/><path d="M282.3,22.45a16.49,16.49,0,0,0,.72-2.87l1.18-.12a14.83,14.83,0,0,1-1.14,2.92Z"/><path d="M287.76,20.35a.71.71,0,0,1,.72-.76.76.76,0,1,1-.72.76Z"/><path d="M290.25,20.35a.71.71,0,0,1,.72-.76.76.76,0,1,1-.72.76Z"/><path d="M292.73,20.35a.71.71,0,0,1,.72-.76.76.76,0,1,1-.72.76Z"/><path d="M294.83,22.42a8.09,8.09,0,0,0,1.51-4.9,8,8,0,0,0-1.51-4.87h.82a7.68,7.68,0,0,1,1.57,4.88,7.82,7.82,0,0,1-1.57,4.89Z"/><path d="M433,104.85c0,2.78-1.69,4.25-3.76,4.25s-3.63-1.65-3.63-4.1,1.59-4.24,3.75-4.24S433,102.45,433,104.85Zm-6.28.13c0,1.73.94,3.27,2.58,3.27s2.59-1.52,2.59-3.36c0-1.6-.84-3.28-2.58-3.28S426.76,103.2,426.76,105Z"/><path d="M435.84,101.5v1.67h1.51v.8h-1.51v3.13c0,.72.2,1.13.79,1.13a2.68,2.68,0,0,0,.61-.07l.05.79a2.73,2.73,0,0,1-.94.14,1.45,1.45,0,0,1-1.14-.44,2.15,2.15,0,0,1-.41-1.51V104h-.9v-.8h.9v-1.39Z"/><path d="M438.54,105c0-.69,0-1.27-.05-1.81h.92l0,1.14h.05a1.73,1.73,0,0,1,1.6-1.27,1.32,1.32,0,0,1,.3,0v1a1.23,1.23,0,0,0-.36,0,1.47,1.47,0,0,0-1.41,1.36,2.38,2.38,0,0,0-.05.49V109h-1Z"/><path d="M445.62,109l-.09-.73h0a2.13,2.13,0,0,1-1.77.86,1.65,1.65,0,0,1-1.77-1.66c0-1.41,1.24-2.17,3.48-2.16v-.12a1.2,1.2,0,0,0-1.31-1.35,2.88,2.88,0,0,0-1.52.44l-.24-.7a3.63,3.63,0,0,1,1.91-.51c1.78,0,2.21,1.21,2.21,2.37v2.17a8.39,8.39,0,0,0,.09,1.39Zm-.16-3c-1.15,0-2.46.18-2.46,1.31a.93.93,0,0,0,1,1,1.45,1.45,0,0,0,1.4-1,1.36,1.36,0,0,0,.06-.33Z"/><path d="M454.87,108.76a4,4,0,0,1-1.67.33,2.76,2.76,0,0,1-2.89-3,2.94,2.94,0,0,1,3.12-3.08,3.44,3.44,0,0,1,1.46.3l-.24.81a2.5,2.5,0,0,0-1.22-.27,2.19,2.19,0,0,0,0,4.36,2.9,2.9,0,0,0,1.3-.29Z"/><path d="M459.32,109l-.09-.73h0a2.15,2.15,0,0,1-1.78.86,1.65,1.65,0,0,1-1.77-1.66c0-1.41,1.25-2.17,3.49-2.16v-.12a1.2,1.2,0,0,0-1.32-1.35,2.84,2.84,0,0,0-1.51.44l-.24-.7A3.6,3.6,0,0,1,458,103c1.78,0,2.21,1.21,2.21,2.37v2.17a8.32,8.32,0,0,0,.1,1.39Zm-.16-3c-1.15,0-2.46.18-2.46,1.31a.93.93,0,0,0,1,1,1.44,1.44,0,0,0,1.4-1,1,1,0,0,0,.06-.33Z"/><path d="M460.47,110.65a1.8,1.8,0,0,0,1.16-.44c.28-.34.39-.79.39-2.19v-4.85h1.06v5.26a3.17,3.17,0,0,1-.7,2.39,2.68,2.68,0,0,1-1.8.66Zm2.73-9.11a.62.62,0,0,1-.66.64.63.63,0,0,1-.65-.64.64.64,0,0,1,.67-.66A.63.63,0,0,1,463.2,101.54Z"/><path d="M468,109l-.09-.73h0a2.16,2.16,0,0,1-1.78.86,1.65,1.65,0,0,1-1.77-1.66c0-1.41,1.25-2.17,3.49-2.16v-.12a1.2,1.2,0,0,0-1.32-1.35,2.84,2.84,0,0,0-1.51.44l-.24-.7a3.6,3.6,0,0,1,1.9-.51c1.78,0,2.21,1.21,2.21,2.37v2.17A8.32,8.32,0,0,0,469,109Zm-.16-3c-1.15,0-2.46.18-2.46,1.31a.93.93,0,0,0,1,1,1.45,1.45,0,0,0,1.4-1,1,1,0,0,0,.06-.33Z"/><rect class="cls-15" x="13.72" y="84.97" width="55" height="107"/><path d="M28,121.85c0,2.78-1.69,4.25-3.76,4.25s-3.63-1.65-3.63-4.1,1.59-4.24,3.75-4.24S28,119.45,28,121.85Zm-6.28.13c0,1.73.94,3.27,2.58,3.27s2.59-1.52,2.59-3.36c0-1.6-.84-3.28-2.58-3.28S21.76,120.2,21.76,122Z"/><path d="M30.84,118.5v1.67h1.51v.8H30.84v3.13c0,.72.2,1.13.79,1.13a2.68,2.68,0,0,0,.61-.07l0,.79a2.73,2.73,0,0,1-.94.14,1.45,1.45,0,0,1-1.14-.44,2.15,2.15,0,0,1-.41-1.51V121h-.9v-.8h.9v-1.39Z"/><path d="M33.54,122c0-.69,0-1.27,0-1.81h.92l0,1.14h0A1.74,1.74,0,0,1,36.1,120a1.32,1.32,0,0,1,.3,0v1a1.28,1.28,0,0,0-.36,0,1.47,1.47,0,0,0-1.41,1.36,2.38,2.38,0,0,0-.05.49V126h-1Z"/><path d="M40.61,126l-.08-.73h0a2.13,2.13,0,0,1-1.77.86A1.64,1.64,0,0,1,37,124.44c0-1.41,1.24-2.17,3.48-2.16v-.12a1.2,1.2,0,0,0-1.31-1.35,2.88,2.88,0,0,0-1.52.44l-.24-.7a3.63,3.63,0,0,1,1.91-.51c1.78,0,2.21,1.21,2.21,2.37v2.17a8.39,8.39,0,0,0,.09,1.39Zm-.15-3c-1.15,0-2.46.18-2.46,1.31a.93.93,0,0,0,1,1,1.45,1.45,0,0,0,1.4-1,1.36,1.36,0,0,0,.06-.33Z"/><path d="M49.87,125.76a4,4,0,0,1-1.67.33,2.76,2.76,0,0,1-2.89-3,2.94,2.94,0,0,1,3.12-3.08,3.44,3.44,0,0,1,1.46.3l-.24.81a2.5,2.5,0,0,0-1.22-.27,2.19,2.19,0,0,0,0,4.36,2.9,2.9,0,0,0,1.3-.29Z"/><path d="M54.32,126l-.09-.73h0a2.16,2.16,0,0,1-1.78.86,1.65,1.65,0,0,1-1.77-1.66c0-1.41,1.25-2.17,3.49-2.16v-.12a1.2,1.2,0,0,0-1.32-1.35,2.84,2.84,0,0,0-1.51.44l-.24-.7A3.61,3.61,0,0,1,53,120c1.77,0,2.2,1.21,2.2,2.37v2.17a8.32,8.32,0,0,0,.1,1.39Zm-.16-3c-1.15,0-2.46.18-2.46,1.31a.93.93,0,0,0,1,1,1.45,1.45,0,0,0,1.4-1,1,1,0,0,0,.06-.33Z"/><path d="M55.47,127.65a1.75,1.75,0,0,0,1.15-.44c.29-.34.4-.79.4-2.19v-4.85h1.06v5.26a3.17,3.17,0,0,1-.7,2.39,2.68,2.68,0,0,1-1.8.66Zm2.73-9.11a.62.62,0,0,1-.66.64.63.63,0,0,1-.65-.64.64.64,0,0,1,.67-.66A.63.63,0,0,1,58.2,118.54Z"/><path d="M63,126l-.09-.73h0a2.16,2.16,0,0,1-1.78.86,1.65,1.65,0,0,1-1.77-1.66c0-1.41,1.25-2.17,3.49-2.16v-.12a1.2,1.2,0,0,0-1.32-1.35,2.84,2.84,0,0,0-1.51.44l-.24-.7a3.6,3.6,0,0,1,1.9-.51c1.78,0,2.21,1.21,2.21,2.37v2.17A8.32,8.32,0,0,0,64,126Zm-.16-3c-1.15,0-2.46.18-2.46,1.31a.93.93,0,0,0,1,1,1.45,1.45,0,0,0,1.4-1,1,1,0,0,0,.06-.33Z"/><line class="cls-17" x1="107.72" y1="223.97" x2="107.22" y2="54.47"/><line class="cls-17" x1="373.72" y1="223.97" x2="373.22" y2="57.47"/><path d="M179.47,247.36l-.58,2.07H177l2.47-8.08h2.4l2.5,8.08h-2l-.63-2.07Zm2.05-1.37-.51-1.71c-.14-.48-.28-1.08-.4-1.56h0c-.12.48-.24,1.09-.37,1.56l-.48,1.71Z"/><path d="M185.32,245.44c0-.73,0-1.35,0-1.87h1.58l.08.8h0a2.15,2.15,0,0,1,1.81-.93c1.2,0,2.1.79,2.1,2.52v3.47h-1.82v-3.25c0-.75-.27-1.27-.93-1.27a1,1,0,0,0-.92.69,1.18,1.18,0,0,0-.07.45v3.38h-1.83Z"/><path d="M196.76,249.29a4.59,4.59,0,0,1-1.63.26,2.84,2.84,0,0,1-3.11-3,3.06,3.06,0,0,1,3.36-3.12,4.05,4.05,0,0,1,1.39.23l-.29,1.35a2.41,2.41,0,0,0-1-.18,1.51,1.51,0,0,0-1.57,1.64,1.53,1.53,0,0,0,1.61,1.65,2.74,2.74,0,0,0,1-.18Z"/><path d="M197.77,240.92h1.82v3.35h0a2,2,0,0,1,.72-.6,2,2,0,0,1,.94-.23c1.17,0,2.05.8,2.05,2.56v3.43h-1.82v-3.22c0-.77-.26-1.3-.95-1.3a1,1,0,0,0-.91.64,1.1,1.1,0,0,0-.06.41v3.47h-1.82Z"/><path d="M210.33,247.55c0,.77,0,1.39,0,1.88h-1.59l-.08-.82h0a2.08,2.08,0,0,1-1.83,1c-1.19,0-2.06-.75-2.06-2.56v-3.44h1.83v3.15c0,.86.28,1.37.91,1.37a1,1,0,0,0,.91-.63,1,1,0,0,0,.06-.4v-3.49h1.84Z"/><path d="M211.8,245.5c0-.86,0-1.43-.05-1.93h1.57l.06,1.08h.05a1.72,1.72,0,0,1,1.58-1.21,2.18,2.18,0,0,1,.38,0v1.72a2.11,2.11,0,0,0-.49-.05,1.17,1.17,0,0,0-1.24.92,1.78,1.78,0,0,0,0,.41v3H211.8Z"/><path d="M219.56,249.43l-.11-.58h0a2.16,2.16,0,0,1-1.68.72,1.8,1.8,0,0,1-1.9-1.8c0-1.53,1.37-2.26,3.44-2.25v-.08c0-.31-.16-.75-1.06-.75a3.29,3.29,0,0,0-1.62.44l-.34-1.18a5,5,0,0,1,2.28-.51,2.28,2.28,0,0,1,2.58,2.53v2a9.06,9.06,0,0,0,.08,1.42Zm-.22-2.77c-1,0-1.7.22-1.7.93a.65.65,0,0,0,.72.69,1,1,0,0,0,.95-.67,1.48,1.48,0,0,0,0-.31Z"/><path d="M227,241.89v1.68h1.31v1.34H227V247c0,.7.17,1,.72,1a3.31,3.31,0,0,0,.54,0l0,1.38a3.87,3.87,0,0,1-1.19.15,1.9,1.9,0,0,1-1.37-.5,2.41,2.41,0,0,1-.5-1.74v-2.4h-.78v-1.34h.78V242.3Z"/><path d="M235.12,246.44a2.94,2.94,0,0,1-3.09,3.13,2.88,2.88,0,0,1-3-3,2.93,2.93,0,0,1,3.13-3.1A2.85,2.85,0,0,1,235.12,246.44Zm-4.24.06c0,1,.42,1.76,1.19,1.76s1.17-.71,1.17-1.76c0-.88-.34-1.77-1.17-1.77S230.88,245.63,230.88,246.5Z"/><path d="M238.29,241.89v1.68h1.31v1.34h-1.31V247c0,.7.17,1,.72,1a3.31,3.31,0,0,0,.54,0v1.38a3.75,3.75,0,0,1-1.18.15,1.9,1.9,0,0,1-1.37-.5,2.41,2.41,0,0,1-.51-1.74v-2.4h-.78v-1.34h.78V242.3Z"/><path d="M244,249.43l-.11-.58h0a2.16,2.16,0,0,1-1.68.72,1.8,1.8,0,0,1-1.9-1.8c0-1.53,1.37-2.26,3.44-2.25v-.08c0-.31-.16-.75-1.06-.75a3.29,3.29,0,0,0-1.62.44l-.34-1.18a5,5,0,0,1,2.28-.51,2.28,2.28,0,0,1,2.58,2.53v2a9.06,9.06,0,0,0,.08,1.42Zm-.22-2.77c-1,0-1.7.22-1.7.93a.65.65,0,0,0,.72.69,1,1,0,0,0,1-.67,1.48,1.48,0,0,0,0-.31Z"/><path d="M247,240.92h1.83v8.51H247Z"/><path d="M252.46,245.54v-1.12h6.19v1.12Zm0,2.48V246.9h6.19V248Z"/><path d="M265.29,249.43v-1.85h-3.45v-1.19l3-4.75H267v4.57H268v1.37H267v1.85Zm0-3.22v-1.73c0-.47,0-.95.06-1.45h-.05c-.25.5-.45,1-.72,1.45l-1,1.7v0Z"/><path d="M273.93,243.14h-3l-.17,1.2a2.69,2.69,0,0,1,.5,0,3.52,3.52,0,0,1,2.05.57,2.2,2.2,0,0,1,.95,2c0,1.45-1.25,2.74-3.35,2.74a5,5,0,0,1-2.17-.45l.33-1.36a4.61,4.61,0,0,0,1.76.38c.76,0,1.56-.36,1.56-1.19s-.64-1.29-2.2-1.29a6.43,6.43,0,0,0-1.05.07l.51-4.09h4.3Z"/><path d="M281.14,245.5c0,2.41-1,4.07-3,4.07s-2.9-1.81-2.92-4,1-4,3-4S281.14,243.37,281.14,245.5Zm-4,.05c0,1.79.42,2.64,1.13,2.64s1.09-.89,1.09-2.67-.37-2.63-1.11-2.63S277.09,243.74,277.1,245.55Z"/><path d="M284.7,245.54c0-.77,0-1.43-.05-2h1.58l.08.82h0a2.23,2.23,0,0,1,2-.95c1.29,0,2.44,1.11,2.44,3,0,2.14-1.36,3.15-2.66,3.15a1.83,1.83,0,0,1-1.53-.68h0v2.92H284.7Zm1.82,1.38a2.17,2.17,0,0,0,0,.38,1.1,1.1,0,0,0,1.07.86c.79,0,1.26-.66,1.26-1.65s-.42-1.64-1.23-1.64a1.15,1.15,0,0,0-1.1.92,1.58,1.58,0,0,0,0,.32Z"/><path d="M293,243.57l.58,1c.17.3.32.6.48.88h0c.16-.32.3-.62.46-.9l.52-1h2l-1.93,2.79,2,3.07H295l-.59-1.05c-.17-.29-.31-.59-.46-.89h0c-.15.31-.3.6-.45.89l-.55,1.05h-2l2-3-1.94-2.88Z"/><path d="M116.15,224.39h0L115,225l-.17-.67,1.42-.75H117v6.49h-.85Z"/><path d="M123.69,226.75c0,2.21-.82,3.43-2.26,3.43-1.27,0-2.13-1.19-2.15-3.34s.94-3.38,2.26-3.38S123.69,224.68,123.69,226.75Zm-3.53.1c0,1.69.52,2.65,1.32,2.65s1.33-1.05,1.33-2.71-.41-2.65-1.32-2.65S120.16,225.08,120.16,226.85Z"/><path d="M128.82,226.75c0,2.21-.82,3.43-2.26,3.43-1.27,0-2.13-1.19-2.15-3.34s.94-3.38,2.26-3.38S128.82,224.68,128.82,226.75Zm-3.53.1c0,1.69.52,2.65,1.32,2.65s1.33-1.05,1.33-2.71-.41-2.65-1.32-2.65S125.29,225.08,125.29,226.85Z"/><path d="M134.6,224.75v2.35h2.26v.6H134.6v2.37H134V227.7H131.7v-.6H134v-2.35Z"/><path d="M145.83,224.31h-2.48L143.1,226a3.48,3.48,0,0,1,.53,0,2.75,2.75,0,0,1,1.4.35A1.85,1.85,0,0,1,146,228a2.26,2.26,0,0,1-2.42,2.22,3.18,3.18,0,0,1-1.62-.4l.22-.67a2.91,2.91,0,0,0,1.39.36,1.43,1.43,0,0,0,1.54-1.41c0-.84-.57-1.44-1.87-1.44a6.72,6.72,0,0,0-.9.07l.42-3.11h3.11Z"/><path d="M154.17,224.75v2.35h2.26v.6h-2.26v2.37h-.64V227.7h-2.26v-.6h2.26v-2.35Z"/><path d="M161.52,230.07v-.54l.69-.67c1.66-1.58,2.41-2.42,2.42-3.4a1.16,1.16,0,0,0-1.29-1.27,2.21,2.21,0,0,0-1.38.55l-.28-.61a2.86,2.86,0,0,1,1.84-.67,1.83,1.83,0,0,1,2,1.89c0,1.2-.87,2.17-2.24,3.49l-.52.48v0h2.92v.73Z"/><path d="M171,226.75c0,2.21-.82,3.43-2.26,3.43-1.27,0-2.13-1.19-2.15-3.34s.94-3.38,2.26-3.38S171,224.68,171,226.75Zm-3.53.1c0,1.69.52,2.65,1.32,2.65s1.33-1.05,1.33-2.71-.41-2.65-1.32-2.65S167.44,225.08,167.44,226.85Z"/><path d="M195.83,224.75v2.35h2.26v.6h-2.26v2.37h-.64V227.7h-2.26v-.6h2.26v-2.35Z"/><path d="M226.51,230.07v-.54l.68-.67c1.66-1.58,2.41-2.42,2.42-3.4a1.16,1.16,0,0,0-1.29-1.27,2.16,2.16,0,0,0-1.37.55l-.28-.61a2.81,2.81,0,0,1,1.83-.67,1.83,1.83,0,0,1,2,1.89c0,1.2-.87,2.17-2.24,3.49l-.52.48v0h2.92v.73Z"/><path d="M236,226.75c0,2.21-.82,3.43-2.26,3.43-1.27,0-2.12-1.19-2.14-3.34s.93-3.38,2.25-3.38S236,224.68,236,226.75Zm-3.53.1c0,1.69.52,2.65,1.32,2.65s1.33-1.05,1.33-2.71-.41-2.65-1.32-2.65S232.42,225.08,232.42,226.85Z"/><path d="M241.08,226.75c0,2.21-.82,3.43-2.26,3.43-1.27,0-2.12-1.19-2.15-3.34s.94-3.38,2.26-3.38S241.08,224.68,241.08,226.75Zm-3.53.1c0,1.69.52,2.65,1.32,2.65s1.33-1.05,1.33-2.71-.41-2.65-1.32-2.65S237.55,225.08,237.55,226.85Z"/><path d="M287.15,224.75v2.35h2.25v.6h-2.25v2.37h-.64V227.7h-2.26v-.6h2.26v-2.35Z"/><path d="M305.1,230.07v-.54l.69-.67c1.66-1.58,2.41-2.42,2.42-3.4a1.16,1.16,0,0,0-1.29-1.27,2.21,2.21,0,0,0-1.38.55l-.28-.61a2.86,2.86,0,0,1,1.84-.67,1.83,1.83,0,0,1,2,1.89c0,1.2-.87,2.17-2.24,3.49l-.52.48v0h2.92v.73Z"/><path d="M314.55,226.75c0,2.21-.82,3.43-2.26,3.43-1.27,0-2.13-1.19-2.15-3.34s.94-3.38,2.26-3.38S314.55,224.68,314.55,226.75Zm-3.53.1c0,1.69.52,2.65,1.32,2.65s1.33-1.05,1.33-2.71-.41-2.65-1.32-2.65S311,225.08,311,226.85Z"/><path d="M326.69,224.75v2.35H329v.6h-2.26v2.37h-.64V227.7h-2.26v-.6h2.26v-2.35Z"/><path d="M337.92,224.31h-2.48l-.25,1.67a3.48,3.48,0,0,1,.53,0,2.75,2.75,0,0,1,1.4.35,1.85,1.85,0,0,1,.93,1.67,2.26,2.26,0,0,1-2.42,2.22,3.18,3.18,0,0,1-1.62-.4l.22-.67a2.91,2.91,0,0,0,1.39.36,1.43,1.43,0,0,0,1.54-1.41c0-.84-.57-1.44-1.87-1.44a6.72,6.72,0,0,0-.9.07l.42-3.11h3.11Z"/><path d="M346.26,224.75v2.35h2.26v.6h-2.26v2.37h-.64V227.7h-2.26v-.6h2.26v-2.35Z"/><path d="M353.4,224.39h0l-1.13.61-.17-.67,1.42-.75h.75v6.49h-.85Z"/><path d="M360.94,226.75c0,2.21-.82,3.43-2.26,3.43-1.27,0-2.13-1.19-2.15-3.34s.94-3.38,2.26-3.38S360.94,224.68,360.94,226.75Zm-3.53.1c0,1.69.52,2.65,1.32,2.65s1.33-1.05,1.33-2.71-.41-2.65-1.32-2.65S357.41,225.08,357.41,226.85Z"/><path d="M366.07,226.75c0,2.21-.82,3.43-2.26,3.43-1.27,0-2.13-1.19-2.15-3.34s.94-3.38,2.26-3.38S366.07,224.68,366.07,226.75Zm-3.53.1c0,1.69.52,2.65,1.32,2.65s1.33-1.05,1.33-2.71-.41-2.65-1.32-2.65S362.54,225.08,362.54,226.85Z"/><path d="M180.73,264.08a4.32,4.32,0,0,1-1.78.32,3.15,3.15,0,0,1-3.33-3.41,3.35,3.35,0,0,1,3.52-3.54,3.61,3.61,0,0,1,1.6.3l-.21.71a3.17,3.17,0,0,0-1.36-.28,2.51,2.51,0,0,0-2.63,2.78,2.45,2.45,0,0,0,2.59,2.71,3.48,3.48,0,0,0,1.42-.28Z"/><path d="M186.06,261.84a2.37,2.37,0,0,1-2.41,2.57,2.3,2.3,0,0,1-2.32-2.49,2.36,2.36,0,0,1,2.4-2.57A2.29,2.29,0,0,1,186.06,261.84Zm-3.84.05c0,1.06.61,1.86,1.47,1.86s1.47-.79,1.47-1.88c0-.82-.41-1.86-1.45-1.86S182.22,261,182.22,261.89Z"/><path d="M187.17,260.77c0-.5,0-.91,0-1.31h.78l.05.8h0a1.78,1.78,0,0,1,1.6-.91c.67,0,1.71.4,1.71,2.06v2.89h-.88v-2.79c0-.78-.29-1.43-1.12-1.43a1.25,1.25,0,0,0-1.18.9,1.27,1.27,0,0,0-.06.41v2.91h-.88Z"/><path d="M194.68,264.3c0-.32,0-.91,0-1.46V257.2h1.52V260h0a1.72,1.72,0,0,1,1.48-.69c1.17,0,2,1,2,2.47a2.35,2.35,0,0,1-2.24,2.64,1.62,1.62,0,0,1-1.47-.79h0l-.06.68Zm1.56-2.08a1.12,1.12,0,0,0,0,.27.92.92,0,0,0,.89.72c.65,0,1.05-.5,1.05-1.38s-.34-1.36-1.05-1.36a.94.94,0,0,0-.89.75,1.27,1.27,0,0,0,0,.28Z"/><path d="M205.56,261.8a2.45,2.45,0,0,1-2.58,2.61,2.4,2.4,0,0,1-2.53-2.52,2.44,2.44,0,0,1,2.61-2.59A2.38,2.38,0,0,1,205.56,261.8Zm-3.54.05c0,.84.35,1.47,1,1.47s1-.59,1-1.47-.28-1.47-1-1.47S202,261.13,202,261.85Z"/><path d="M207.42,259.41l.48.81.4.73h0c.13-.26.25-.51.38-.75l.43-.79h1.65l-1.61,2.33,1.63,2.56h-1.72l-.49-.88c-.14-.24-.26-.49-.38-.74h0c-.12.26-.25.5-.37.74l-.46.88h-1.67l1.66-2.49-1.62-2.4Z"/><path d="M213.72,261.17v1H211.1v-1Z"/><path d="M214.62,263a3,3,0,0,0,1.31.37c.46,0,.65-.16.65-.41s-.15-.37-.72-.56c-1-.34-1.4-.89-1.39-1.47,0-.91.78-1.6,2-1.6a3.28,3.28,0,0,1,1.38.28l-.27,1.05a2.4,2.4,0,0,0-1.06-.28c-.37,0-.58.15-.58.4s.19.35.79.56c.93.32,1.32.79,1.33,1.51,0,.91-.72,1.58-2.12,1.58a3.46,3.46,0,0,1-1.58-.34Z"/><path d="M220.54,258.05a.76.76,0,0,1-.82.76.77.77,0,1,1,0-1.53A.76.76,0,0,1,220.54,258.05ZM219,264.3v-4.89h1.52v4.89Z"/><path d="M221.32,263.43l1.54-1.93c.28-.33.5-.57.78-.87v0h-2.15v-1.2h4v.91L224,262.17a11.88,11.88,0,0,1-.8.9v0h2.35v1.21h-4.25Z"/><path d="M228,258.05a.76.76,0,0,1-.82.76.77.77,0,1,1,0-1.53A.76.76,0,0,1,228,258.05Zm-1.57,6.25v-4.89h1.52v4.89Z"/><path d="M229.14,261c0-.61,0-1.13,0-1.56h1.32l.07.67h0a1.79,1.79,0,0,1,1.51-.78c1,0,1.75.66,1.75,2.1v2.9h-1.52v-2.71c0-.63-.22-1.06-.77-1.06a.81.81,0,0,0-.77.57,1,1,0,0,0-.06.38v2.82h-1.52Z"/><path d="M239.67,259.41c0,.31,0,.72,0,1.45v2.73a2.81,2.81,0,0,1-.74,2.2,3,3,0,0,1-2,.6,3.81,3.81,0,0,1-1.76-.38l.3-1.15a3,3,0,0,0,1.42.37,1.17,1.17,0,0,0,1.27-1.29v-.32h0a1.56,1.56,0,0,1-1.32.64,2.15,2.15,0,0,1-2.07-2.39,2.34,2.34,0,0,1,2.22-2.57,1.47,1.47,0,0,1,1.34.69h0l0-.58Zm-1.56,2a1.2,1.2,0,0,0,0-.28.83.83,0,0,0-.82-.67c-.55,0-1,.5-1,1.39,0,.73.36,1.3,1,1.3a.83.83,0,0,0,.8-.62,1.29,1.29,0,0,0,.05-.4Z"/><path d="M240.74,260.27a.9.9,0,1,1,.89.91A.87.87,0,0,1,240.74,260.27Zm0,3.23a.9.9,0,1,1,.89.91A.88.88,0,0,1,240.74,263.5Z"/><path d="M249.14,264.18a3.71,3.71,0,0,1-1.36.22,2.37,2.37,0,0,1-2.59-2.5,2.55,2.55,0,0,1,2.8-2.6,3.53,3.53,0,0,1,1.16.19l-.24,1.13a2.08,2.08,0,0,0-.85-.15,1.37,1.37,0,0,0,0,2.74,2.34,2.34,0,0,0,.87-.15Z"/><path d="M254.7,261.8a2.45,2.45,0,0,1-2.58,2.61,2.4,2.4,0,0,1-2.53-2.52,2.44,2.44,0,0,1,2.61-2.59A2.38,2.38,0,0,1,254.7,261.8Zm-3.54.05c0,.84.35,1.47,1,1.47s1-.59,1-1.47-.28-1.47-1-1.47S251.16,261.13,251.16,261.85Z"/><path d="M255.64,261c0-.61,0-1.13,0-1.56h1.32l.07.67h0a1.79,1.79,0,0,1,1.51-.78c1,0,1.75.66,1.75,2.1v2.9h-1.52v-2.71c0-.63-.22-1.06-.77-1.06a.81.81,0,0,0-.77.57,1,1,0,0,0-.06.38v2.82h-1.52Z"/><path d="M263.14,258v1.4h1.09v1.12h-1.09v1.77c0,.59.14.86.6.86a2.48,2.48,0,0,0,.45,0v1.15a3,3,0,0,1-1,.13,1.58,1.58,0,0,1-1.14-.42,2,2,0,0,1-.42-1.45v-2H261v-1.12h.65v-1.06Z"/><path d="M266.23,262.34c0,.63.67.93,1.38.93a4.31,4.31,0,0,0,1.35-.2l.2,1a4.83,4.83,0,0,1-1.77.3,2.35,2.35,0,0,1-2.61-2.49,2.45,2.45,0,0,1,2.47-2.61,2.17,2.17,0,0,1,2.18,2.44,3.61,3.61,0,0,1-.05.6Zm1.79-1a.88.88,0,0,0-.86-1,1,1,0,0,0-.94,1Z"/><path d="M270.34,261c0-.61,0-1.13,0-1.56h1.32l.07.67h0a1.79,1.79,0,0,1,1.51-.78c1,0,1.75.66,1.75,2.1v2.9h-1.52v-2.71c0-.63-.22-1.06-.77-1.06a.81.81,0,0,0-.77.57,1,1,0,0,0-.06.38v2.82h-1.52Z"/><path d="M277.84,258v1.4h1.09v1.12h-1.09v1.77c0,.59.14.86.6.86a2.48,2.48,0,0,0,.45,0v1.15a3,3,0,0,1-1,.13,1.58,1.58,0,0,1-1.14-.42,2,2,0,0,1-.42-1.45v-2h-.65v-1.12h.65v-1.06Z"/><path d="M282.12,261.17v1H279.5v-1Z"/><path d="M283,264.3c0-.32,0-.91,0-1.46V257.2h1.52V260h0a1.72,1.72,0,0,1,1.48-.69c1.17,0,2,1,2,2.47a2.35,2.35,0,0,1-2.24,2.64,1.62,1.62,0,0,1-1.47-.79h0l-.06.68Zm1.56-2.08a1.12,1.12,0,0,0,0,.27.92.92,0,0,0,.89.72c.65,0,1-.5,1-1.38s-.34-1.36-1-1.36a.94.94,0,0,0-.89.75,1.27,1.27,0,0,0,0,.28Z"/><path d="M293.87,261.8a2.45,2.45,0,0,1-2.58,2.61,2.4,2.4,0,0,1-2.53-2.52,2.44,2.44,0,0,1,2.61-2.59A2.38,2.38,0,0,1,293.87,261.8Zm-3.54.05c0,.84.35,1.47,1,1.47s1-.59,1-1.47-.28-1.47-1-1.47S290.33,261.13,290.33,261.85Z"/><path d="M295.73,259.41l.48.81.4.73h0c.13-.26.25-.51.38-.75l.43-.79h1.65l-1.61,2.33,1.63,2.56h-1.72l-.49-.88c-.14-.24-.26-.49-.38-.74h0c-.12.26-.25.5-.37.74l-.46.88H294l1.66-2.49-1.62-2.4Z"/></g></svg>