<svg xmlns="http://www.w3.org/2000/svg" viewBox="0 0 558.9 270.9"><defs><style>.a{fill:#fcd1a5;}.b,.e{fill:none;stroke-miterlimit:10;stroke-width:0.9px;}.b{stroke:#000;opacity:0;}.c{fill:#3d4752;}.d{fill:#d6d6d6;}.e{stroke:#3d4752;}</style></defs><title>hierarchical-model</title><rect class="a" x="243.45" y="0.45" width="72" height="54" rx="1.8" ry="1.8"/><rect class="b" x="243.45" y="0.45" width="72" height="54" rx="1.8" ry="1.8"/><path class="c" d="M294.33,170.68a5.7,5.7,0,0,0-1,3.25,5.64,5.64,0,0,0,1,3.25l-0.55.36a6.2,6.2,0,0,1-.86-5.56,6.5,6.5,0,0,1,.86-1.65" transform="translate(-26.55 -152.55)"/><polyline class="c" points="269.82 23 272.38 23 272.38 23.36 272.38 23.71 269.02 23.71 269.02 20.85 269.02 17.98 269.82 17.98 269.82 20.49 269.82 23"/><path class="c" d="M300.06,170.55a0.5,0.5,0,0,1,.51.49,0.51,0.51,0,1,1-.51-0.49m0.38,5.72h-0.76v-3.84h0.76v3.84Z" transform="translate(-26.55 -152.55)"/><path class="c" d="M303.57,176.27h-0.83l-1.56-3.84H302c0.38,1,.74,2,1.14,3l1.13-3h0.81" transform="translate(-26.55 -152.55)"/><path class="c" d="M306.24,170.55a0.5,0.5,0,0,1,.51.49,0.51,0.51,0,1,1-.51-0.49m0.38,5.72h-0.76v-3.84h0.76v3.84Z" transform="translate(-26.55 -152.55)"/><path class="c" d="M307.94,176.27c0-1.28,0-2.61,0-3.84h0.72c0,0.16,0,.45,0,0.63h0a1.34,1.34,0,0,1,1.25-.74,1.36,1.36,0,0,1,1.43,1.56v2.38h-0.76v-2.13c0-.68-0.19-1.17-0.87-1.17a1.11,1.11,0,0,0-1,1.26v2h-0.76" transform="translate(-26.55 -152.55)"/><path class="c" d="M314.47,173a1.36,1.36,0,0,0,0,2.71,1.35,1.35,0,0,0,0-2.71m2,3.12a1.92,1.92,0,0,1-2.12,2.14,2.81,2.81,0,0,1-1.88-.7l0.49-.59a2,2,0,0,0,1.4.62c1.1,0,1.47-.77,1.34-1.91a1.56,1.56,0,0,1-1.35.66,2,2,0,0,1,0-4,1.63,1.63,0,0,1,1.4.72v-0.62h0.74v3.64Z" transform="translate(-26.55 -152.55)"/><path class="c" d="M317.66,177.18a5.7,5.7,0,0,0,1-3.25,5.64,5.64,0,0,0-1-3.25l0.55-.36a6.2,6.2,0,0,1,.86,5.56,6.51,6.51,0,0,1-.86,1.65" transform="translate(-26.55 -152.55)"/><path class="c" d="M291.37,187a4.37,4.37,0,0,1-3.39.28,3,3,0,0,1,1.22-5.8,2.91,2.91,0,0,1,2.12.75l-0.56.58a2,2,0,0,0-1.56-.62,2.3,2.3,0,0,0,0,4.6,2.66,2.66,0,0,0,1.34-.28v-1.6h-1.27V184.2h2.07V187" transform="translate(-26.55 -152.55)"/><path class="c" d="M292.71,187.34c0-1.28,0-2.61,0-3.84h0.72c0,0.16,0,.48,0,0.65h0a1.3,1.3,0,0,1,1.47-.72l0,0.7a1.1,1.1,0,0,0-1.43,1.19v2h-0.76" transform="translate(-26.55 -152.55)"/><path class="c" d="M297.23,183.39c1.3,0,1.9.87,1.84,2.25h-3a1.2,1.2,0,0,0,1.25,1.17,1.28,1.28,0,0,0,1.12-.58l0.53,0.43a1.92,1.92,0,0,1-1.65.79,2,2,0,0,1,0-4m1.08,1.68a1.07,1.07,0,0,0-1.54-1,1.12,1.12,0,0,0-.75,1h2.28Z" transform="translate(-26.55 -152.55)"/><path class="c" d="M301.37,186.83a1.09,1.09,0,0,0,1.11-1.33c-0.83,0-1.9,0-1.9.73a0.65,0.65,0,0,0,.79.6m-1.56-.58c0-1.24,1.4-1.26,2.67-1.3a0.83,0.83,0,0,0-.95-0.95,1.6,1.6,0,0,0-1.09.45L300,184a2.26,2.26,0,0,1,1.57-.58,1.42,1.42,0,0,1,1.6,1.51,23.92,23.92,0,0,0,.06,2.44h-0.69a2.56,2.56,0,0,1-.06-0.55h0a1.47,1.47,0,0,1-1.29.65A1.19,1.19,0,0,1,299.8,186.25Z" transform="translate(-26.55 -152.55)"/><path class="c" d="M305.62,187.4a1,1,0,0,1-1.12-1.2v-2.08h-0.74V183.5h0.74v-1.1h0.75v1.1h1v0.62h-1v2c0,0.44.13,0.64,0.54,0.65a1.09,1.09,0,0,0,.45-0.1l0,0.62a1.94,1.94,0,0,1-.65.11" transform="translate(-26.55 -152.55)"/><path class="c" d="M310.37,186.83a1.09,1.09,0,0,0,1.11-1.33c-0.83,0-1.9,0-1.9.73a0.65,0.65,0,0,0,.79.6m-1.56-.58c0-1.24,1.4-1.26,2.67-1.3a0.83,0.83,0,0,0-.95-0.95,1.6,1.6,0,0,0-1.09.45L309,184a2.26,2.26,0,0,1,1.57-.58,1.42,1.42,0,0,1,1.6,1.51,23.92,23.92,0,0,0,.06,2.44h-0.69a2.56,2.56,0,0,1-.06-0.55h0a1.47,1.47,0,0,1-1.29.65A1.19,1.19,0,0,1,308.8,186.25Z" transform="translate(-26.55 -152.55)"/><path class="c" d="M315.49,186.8a1.39,1.39,0,0,0,0-2.78,1.39,1.39,0,0,0,0,2.78m0.13,0.64a1.59,1.59,0,0,1-1.35-.68h0v2.52h-0.76V183.5h0.75v0.6h0a1.54,1.54,0,0,1,1.39-.7A2,2,0,0,1,315.61,187.44Z" transform="translate(-26.55 -152.55)"/><path class="c" d="M320.35,183.39c1.3,0,1.9.87,1.84,2.25h-3a1.2,1.2,0,0,0,1.25,1.17,1.28,1.28,0,0,0,1.12-.58l0.53,0.43a1.92,1.92,0,0,1-1.65.79,2,2,0,0,1,0-4m1.08,1.68a1.07,1.07,0,0,0-1.54-1,1.12,1.12,0,0,0-.75,1h2.28Z" transform="translate(-26.55 -152.55)"/><path class="c" d="M323.12,185c-0.5-1.26.95-2,2.14-1.47a1.3,1.3,0,0,1,.6.47l-0.53.45a1,1,0,0,0-.89-0.48,0.58,0.58,0,0,0-.71.5c0,0.59.92,0.51,1.39,0.73a1.08,1.08,0,0,1,.78,1c0.06,1.56-2.45,1.51-3.08.55l0.54-.46a1.24,1.24,0,0,0,1,.53,0.62,0.62,0,0,0,.76-0.56c0-.73-1.27-0.51-1.76-0.95a0.84,0.84,0,0,1-.26-0.3" transform="translate(-26.55 -152.55)"/><rect class="d" x="67.95" y="108.45" width="72" height="54" rx="1.8" ry="1.8"/><rect class="b" x="67.95" y="108.45" width="72" height="54" rx="1.8" ry="1.8"/><path class="c" d="M111.93,290.44a2.3,2.3,0,1,0-2.16-2.3,2.07,2.07,0,0,0,2.16,2.3m2.82-3.52a3.36,3.36,0,0,1,0,2.45,3.1,3.1,0,0,1-5.62,0,3.44,3.44,0,0,1,0-2.45A3.11,3.11,0,0,1,114.75,286.92Z" transform="translate(-26.55 -152.55)"/><path class="c" d="M116,291c0-1.28,0-2.61,0-3.84h0.72c0,0.16,0,.48,0,0.65h0a1.3,1.3,0,0,1,1.47-.72l0,0.7a1.1,1.1,0,0,0-1.43,1.19v2H116" transform="translate(-26.55 -152.55)"/><path class="c" d="M120.13,290.51a1.09,1.09,0,0,0,1.11-1.33c-0.83,0-1.9,0-1.9.73a0.65,0.65,0,0,0,.79.6m-1.56-.58c0-1.24,1.4-1.26,2.67-1.3a0.83,0.83,0,0,0-.95-0.95,1.6,1.6,0,0,0-1.09.45l-0.4-.49a2.26,2.26,0,0,1,1.57-.58,1.42,1.42,0,0,1,1.6,1.51A23.93,23.93,0,0,0,122,291h-0.69a2.56,2.56,0,0,1-.06-0.55h0a1.47,1.47,0,0,1-1.29.65A1.19,1.19,0,0,1,118.57,289.93Z" transform="translate(-26.55 -152.55)"/><path class="c" d="M123.25,291c0-1.28,0-2.61,0-3.84h0.72c0,0.16,0,.45,0,0.63h0a1.34,1.34,0,0,1,1.25-.74,1.36,1.36,0,0,1,1.43,1.56V291h-0.76v-2.13c0-.68-0.19-1.17-0.87-1.17a1.11,1.11,0,0,0-1,1.26v2h-0.76" transform="translate(-26.55 -152.55)"/><path class="c" d="M129.77,287.7a1.36,1.36,0,0,0,0,2.71,1.35,1.35,0,0,0,0-2.71m2,3.12a1.92,1.92,0,0,1-2.12,2.14,2.81,2.81,0,0,1-1.88-.7l0.49-.59a2,2,0,0,0,1.4.62c1.1,0,1.47-.77,1.34-1.91a1.56,1.56,0,0,1-1.35.66,2,2,0,0,1,0-4,1.63,1.63,0,0,1,1.4.72v-0.62h0.74v3.64Z" transform="translate(-26.55 -152.55)"/><path class="c" d="M136.47,287.18c0,1.28,0,2.61,0,3.84h-0.72c0-.16,0-0.49,0-0.63a1.41,1.41,0,0,1-1.26.74,1.36,1.36,0,0,1-1.43-1.56v-2.38h0.76v2.12c0,0.68.19,1.18,0.87,1.18a1.11,1.11,0,0,0,1-1.26v-2h0.76" transform="translate(-26.55 -152.55)"/><path class="c" d="M139,291.08a1,1,0,0,1-1.12-1.2V287.8h-0.74v-0.62h0.74v-1.1h0.75v1.1h1v0.62h-1v2c0,0.44.13,0.64,0.54,0.65a1.09,1.09,0,0,0,.45-0.1l0,0.62a1.94,1.94,0,0,1-.65.11" transform="translate(-26.55 -152.55)"/><path class="c" d="M141.74,290.51a1.09,1.09,0,0,0,1.11-1.33c-0.83,0-1.9,0-1.9.73a0.65,0.65,0,0,0,.79.6m-1.56-.58c0-1.24,1.4-1.26,2.67-1.3a0.83,0.83,0,0,0-.95-0.95,1.6,1.6,0,0,0-1.09.45l-0.4-.49a2.26,2.26,0,0,1,1.57-.58,1.42,1.42,0,0,1,1.6,1.51,23.92,23.92,0,0,0,.06,2.44h-0.69a2.56,2.56,0,0,1-.06-0.55h0a1.47,1.47,0,0,1-1.29.65A1.19,1.19,0,0,1,140.17,289.93Z" transform="translate(-26.55 -152.55)"/><path class="c" d="M144.85,291c0-1.28,0-2.61,0-3.84h0.72c0,0.16,0,.45,0,0.63h0a1.34,1.34,0,0,1,1.25-.74,1.36,1.36,0,0,1,1.43,1.56V291h-0.76v-2.13c0-.68-0.19-1.17-0.87-1.17a1.11,1.11,0,0,0-1,1.26v2h-0.76" transform="translate(-26.55 -152.55)"/><path class="c" d="M149.42,288.7c-0.5-1.26.95-2,2.14-1.47a1.3,1.3,0,0,1,.6.47l-0.53.45a1,1,0,0,0-.89-0.48,0.58,0.58,0,0,0-.71.5c0,0.59.92,0.51,1.39,0.73a1.08,1.08,0,0,1,.78,1c0.06,1.56-2.45,1.51-3.08.55l0.54-.46a1.24,1.24,0,0,0,1,.53,0.62,0.62,0,0,0,.76-0.56c0-.73-1.27-0.51-1.76-0.95a0.84,0.84,0,0,1-.26-0.3" transform="translate(-26.55 -152.55)"/><rect class="d" x="184.95" y="108.45" width="72" height="54" rx="1.8" ry="1.8"/><rect class="b" x="184.95" y="108.45" width="72" height="54" rx="1.8" ry="1.8"/><path class="c" d="M238.86,290.66a4.37,4.37,0,0,1-3.39.28,3,3,0,0,1,1.22-5.8,2.91,2.91,0,0,1,2.12.75l-0.56.58a2,2,0,0,0-1.56-.62,2.3,2.3,0,0,0,0,4.6,2.66,2.66,0,0,0,1.34-.28v-1.6h-1.27v-0.68h2.07v2.78" transform="translate(-26.55 -152.55)"/><path class="c" d="M242,290.48a1.39,1.39,0,1,0-1.28-1.39,1.24,1.24,0,0,0,1.28,1.39m0-3.41a2,2,0,1,1-2.07,2A1.9,1.9,0,0,1,242,287.07Z" transform="translate(-26.55 -152.55)"/><path class="c" d="M245.13,291c0-1.28,0-2.61,0-3.84h0.72c0,0.16,0,.48,0,0.65h0a1.3,1.3,0,0,1,1.47-.72l0,0.7A1.1,1.1,0,0,0,245.9,289v2h-0.76" transform="translate(-26.55 -152.55)"/><path class="c" d="M248.45,285.3a0.5,0.5,0,0,1,.51.49,0.51,0.51,0,1,1-.51-0.49m0.38,5.72h-0.76v-3.84h0.76V291Z" transform="translate(-26.55 -152.55)"/><polyline class="c" points="224.39 138.47 223.63 138.47 223.63 135.4 223.63 132.34 224.39 132.34 224.39 135.4 224.39 138.47"/><polyline class="c" points="226.5 138.47 225.74 138.47 225.74 135.4 225.74 132.34 226.5 132.34 226.5 135.4 226.5 138.47"/><path class="c" d="M255.66,290.51a1.09,1.09,0,0,0,1.11-1.33c-0.83,0-1.9,0-1.9.73a0.65,0.65,0,0,0,.79.6m-1.56-.58c0-1.24,1.4-1.26,2.67-1.3a0.83,0.83,0,0,0-.95-0.95,1.6,1.6,0,0,0-1.09.45l-0.4-.49a2.26,2.26,0,0,1,1.57-.58,1.42,1.42,0,0,1,1.6,1.51,23.93,23.93,0,0,0,.06,2.44h-0.69a2.56,2.56,0,0,1-.06-0.55h0a1.47,1.47,0,0,1-1.29.65A1.19,1.19,0,0,1,254.09,289.93Z" transform="translate(-26.55 -152.55)"/><path class="c" d="M258.63,288.7c-0.5-1.26.95-2,2.14-1.47a1.3,1.3,0,0,1,.6.47l-0.53.45a1,1,0,0,0-.89-0.48,0.58,0.58,0,0,0-.71.5c0,0.59.92,0.51,1.39,0.73a1.08,1.08,0,0,1,.78,1c0.06,1.56-2.45,1.51-3.08.55l0.54-.46a1.24,1.24,0,0,0,1,.53,0.62,0.62,0,0,0,.76-0.56c0-.73-1.27-0.51-1.76-0.95a0.84,0.84,0,0,1-.26-0.3" transform="translate(-26.55 -152.55)"/><rect class="d" x="418.95" y="108.45" width="72" height="54" rx="1.8" ry="1.8"/><rect class="b" x="418.95" y="108.45" width="72" height="54" rx="1.8" ry="1.8"/><polyline class="c" points="440.39 132.73 441.19 132.73 441.19 133.93 441.19 135.13 444.09 135.13 444.09 133.93 444.09 132.73 444.9 132.73 444.9 135.6 444.9 138.47 444.09 138.47 444.09 137.15 444.09 135.84 441.19 135.84 441.19 137.15 441.19 138.47 440.39 138.47 440.39 135.6 440.39 132.73"/><path class="c" d="M476.2,287.18c0,1.28,0,2.61,0,3.84h-0.72c0-.16,0-0.49,0-0.63a1.41,1.41,0,0,1-1.26.74,1.36,1.36,0,0,1-1.43-1.56v-2.38h0.76v2.12c0,0.68.19,1.18,0.87,1.18a1.11,1.11,0,0,0,1-1.26v-2h0.76" transform="translate(-26.55 -152.55)"/><path class="c" d="M478.27,287.81a1.34,1.34,0,0,1,1.22-.74,1.2,1.2,0,0,1,1.19.77,1.41,1.41,0,0,1,1.3-.77,1.36,1.36,0,0,1,1.43,1.56V291h-0.76v-2.13c0-.66-0.19-1.17-0.85-1.17-1.39,0-.87,2-1,3.3h-0.76v-2.28a0.83,0.83,0,0,0-.81-1,1.11,1.11,0,0,0-1,1.26v2h-0.76c0-1.28,0-2.61,0-3.84h0.72c0,0.16,0,.45,0,0.63h0" transform="translate(-26.55 -152.55)"/><path class="c" d="M486,290.51a1.09,1.09,0,0,0,1.11-1.33c-0.83,0-1.9,0-1.9.73a0.65,0.65,0,0,0,.79.6m-1.56-.58c0-1.24,1.4-1.26,2.67-1.3a0.83,0.83,0,0,0-.95-0.95,1.6,1.6,0,0,0-1.09.45l-0.4-.49a2.26,2.26,0,0,1,1.57-.58,1.42,1.42,0,0,1,1.6,1.51,23.92,23.92,0,0,0,.06,2.44h-0.69a2.56,2.56,0,0,1-.06-0.55h0a1.47,1.47,0,0,1-1.29.65A1.19,1.19,0,0,1,484.42,289.93Z" transform="translate(-26.55 -152.55)"/><path class="c" d="M489.1,291c0-1.28,0-2.61,0-3.84h0.72c0,0.16,0,.45,0,0.63h0a1.34,1.34,0,0,1,1.25-.74,1.36,1.36,0,0,1,1.43,1.56V291h-0.76v-2.13c0-.68-0.19-1.17-0.87-1.17a1.11,1.11,0,0,0-1,1.26v2H489.1" transform="translate(-26.55 -152.55)"/><path class="c" d="M493.67,288.7c-0.5-1.26.95-2,2.14-1.47a1.3,1.3,0,0,1,.6.47l-0.53.45a1,1,0,0,0-.89-0.48,0.58,0.58,0,0,0-.71.5c0,0.59.92,0.51,1.39,0.73a1.08,1.08,0,0,1,.78,1c0.06,1.56-2.45,1.51-3.08.55l0.54-.46a1.24,1.24,0,0,0,1,.53,0.62,0.62,0,0,0,.76-0.56c0-.73-1.27-0.51-1.76-0.95a0.84,0.84,0,0,1-.26-0.3" transform="translate(-26.55 -152.55)"/><rect class="d" x="301.95" y="108.45" width="72" height="54" rx="1.8" ry="1.8"/><rect class="b" x="301.95" y="108.45" width="72" height="54" rx="1.8" ry="1.8"/><path class="c" d="M342.6,290.45a1.78,1.78,0,0,0,1.54-.76l0.64,0.44a2.57,2.57,0,0,1-2.19,1,2.87,2.87,0,0,1-2.79-1.8,3.44,3.44,0,0,1,0-2.45,3,3,0,0,1,3.42-1.73,2.23,2.23,0,0,1,1.47.83l-0.63.49a1.73,1.73,0,0,0-1.43-.67,2.1,2.1,0,0,0-2.18,2.3,2.06,2.06,0,0,0,2.15,2.31" transform="translate(-26.55 -152.55)"/><path class="c" d="M347.37,287.72a1.12,1.12,0,0,0-1,1.26v2h-0.76v-6.12h0.76c0,0.95,0,1.94,0,2.87a1.35,1.35,0,0,1,1.21-.69,1.37,1.37,0,0,1,1.43,1.56V291h-0.76v-2.12c0-.67-0.19-1.17-0.87-1.17" transform="translate(-26.55 -152.55)"/><path class="c" d="M350.68,285.3a0.5,0.5,0,0,1,.51.49,0.51,0.51,0,1,1-.51-0.49m0.38,5.72h-0.76v-3.84h0.76V291Z" transform="translate(-26.55 -152.55)"/><path class="c" d="M353.13,287.81a1.34,1.34,0,0,1,1.22-.74,1.2,1.2,0,0,1,1.19.77,1.41,1.41,0,0,1,1.3-.77,1.36,1.36,0,0,1,1.43,1.56V291h-0.76v-2.13c0-.66-0.19-1.17-0.85-1.17-1.39,0-.87,2-1,3.3h-0.76v-2.28a0.83,0.83,0,0,0-.81-1,1.11,1.11,0,0,0-1,1.26v2h-0.76c0-1.28,0-2.61,0-3.84h0.72c0,0.16,0,.45,0,0.63h0" transform="translate(-26.55 -152.55)"/><path class="c" d="M361.58,290.48a1.39,1.39,0,0,0,0-2.78,1.39,1.39,0,0,0,0,2.78m0.13,0.64a1.59,1.59,0,0,1-1.35-.68h0V293h-0.76v-5.78h0.75v0.6h0a1.54,1.54,0,0,1,1.39-.7A2,2,0,0,1,361.71,291.12Z" transform="translate(-26.55 -152.55)"/><path class="c" d="M366,290.51a1.09,1.09,0,0,0,1.11-1.33c-0.83,0-1.9,0-1.9.73a0.65,0.65,0,0,0,.79.6m-1.56-.58c0-1.24,1.4-1.26,2.67-1.3a0.83,0.83,0,0,0-.95-0.95,1.6,1.6,0,0,0-1.09.45l-0.4-.49a2.26,2.26,0,0,1,1.57-.58,1.42,1.42,0,0,1,1.6,1.51,23.92,23.92,0,0,0,.06,2.44h-0.69a2.56,2.56,0,0,1-.06-0.55h0a1.47,1.47,0,0,1-1.29.65A1.19,1.19,0,0,1,364.42,289.93Z" transform="translate(-26.55 -152.55)"/><path class="c" d="M369.09,291c0-1.28,0-2.61,0-3.84h0.72c0,0.16,0,.45,0,0.63h0a1.34,1.34,0,0,1,1.25-.74,1.36,1.36,0,0,1,1.43,1.56V291h-0.76v-2.13c0-.68-0.19-1.17-0.87-1.17a1.11,1.11,0,0,0-1,1.26v2h-0.76" transform="translate(-26.55 -152.55)"/><polyline class="c" points="350 135.25 347.81 137.82 350.09 137.82 350.09 138.15 350.09 138.47 346.87 138.47 346.87 138.15 346.87 137.84 349.04 135.25 346.98 135.25 346.98 134.94 346.98 134.63 350 134.63 350 134.94 350 135.25"/><path class="c" d="M379.28,287.07c1.3,0,1.9.87,1.84,2.25h-3a1.2,1.2,0,0,0,1.25,1.17,1.28,1.28,0,0,0,1.12-.58l0.53,0.43a1.92,1.92,0,0,1-1.65.79,2,2,0,0,1,0-4m1.08,1.68a1.07,1.07,0,0,0-1.54-1,1.12,1.12,0,0,0-.75,1h2.28Z" transform="translate(-26.55 -152.55)"/><path class="c" d="M383.93,287.07c1.3,0,1.9.87,1.84,2.25h-3a1.2,1.2,0,0,0,1.25,1.17,1.28,1.28,0,0,0,1.12-.58l0.53,0.43a1.92,1.92,0,0,1-1.65.79,2,2,0,0,1,0-4m1.08,1.68a1.07,1.07,0,0,0-1.54-1,1.12,1.12,0,0,0-.75,1H385Z" transform="translate(-26.55 -152.55)"/><path class="c" d="M386.7,288.7c-0.5-1.26.95-2,2.14-1.47a1.3,1.3,0,0,1,.6.47l-0.53.45a1,1,0,0,0-.89-0.48,0.58,0.58,0,0,0-.71.5c0,0.59.92,0.51,1.39,0.73a1.08,1.08,0,0,1,.78,1c0.06,1.56-2.45,1.51-3.08.55l0.54-.46a1.24,1.24,0,0,0,1,.53,0.62,0.62,0,0,0,.76-0.56c0-.73-1.27-0.51-1.76-0.95a0.84,0.84,0,0,1-.26-0.3" transform="translate(-26.55 -152.55)"/><path class="e" d="M306,207v23.18a3.61,3.61,0,0,1-3.6,3.6H134.68a3.61,3.61,0,0,0-3.6,3.6v23.18" transform="translate(-26.55 -152.55)"/><polygon class="c" points="104.53 108 102.42 101.56 106.61 101.56 104.53 108"/><path class="c" d="M129.6,254.57l1.48,4.55,1.44-4.55H129.6Zm1.8,6.43h-0.68l-2.34-7.33h5.4Z" transform="translate(-26.55 -152.55)"/><path class="e" d="M306,207v23.4a3.61,3.61,0,0,1-3.6,3.6H251.1a3.61,3.61,0,0,0-3.6,3.6V261" transform="translate(-26.55 -152.55)"/><polygon class="c" points="220.95 108.45 218.88 102.02 223.02 102.02 220.95 108.45"/><path class="c" d="M246,255l1.49,4.54L249,255h-3Zm2,6h-1l-2.21-6.88h5.4Z" transform="translate(-26.55 -152.55)"/><path class="e" d="M306,207v23.4a3.61,3.61,0,0,0,3.6,3.6h51.3a3.61,3.61,0,0,1,3.6,3.6V261" transform="translate(-26.55 -152.55)"/><polygon class="c" points="337.95 108.45 335.88 102.02 340.02 102.02 337.95 108.45"/><path class="c" d="M363,255l1.48,4.54L366,255h-3Zm2,6h-1l-2.2-6.88h5.4Z" transform="translate(-26.55 -152.55)"/><path class="e" d="M306,207v23.4a3.61,3.61,0,0,0,3.6,3.6H477.9a3.61,3.61,0,0,1,3.6,3.6V261" transform="translate(-26.55 -152.55)"/><polygon class="c" points="454.95 108.45 452.88 102.02 457.02 102.02 454.95 108.45"/><path class="c" d="M480,255l1.49,4.54L483,255h-3Zm2,6h-1l-2.21-6.88h5.4Z" transform="translate(-26.55 -152.55)"/><rect class="d" x="486.45" y="216.45" width="72" height="54" rx="1.8" ry="1.8"/><rect class="b" x="486.45" y="216.45" width="72" height="54" rx="1.8" ry="1.8"/><path class="c" d="M520.39,393.28c0.58,1.47,1.13,3,1.73,4.41l1.69-4.41h1.25V399h-0.8c0-1.6,0-3.23,0-4.8l-1.9,4.8h-0.51c-0.64-1.6-1.25-3.22-1.91-4.8V399h-0.78v-5.73h1.25" transform="translate(-26.55 -152.55)"/><path class="c" d="M528.23,398.48a1.39,1.39,0,1,0-1.28-1.39,1.24,1.24,0,0,0,1.28,1.39m0-3.41a2,2,0,1,1-2.07,2A1.9,1.9,0,0,1,528.23,395.07Z" transform="translate(-26.55 -152.55)"/><path class="c" d="M533.16,395.7a1.39,1.39,0,0,0,0,2.78,1.39,1.39,0,0,0,0-2.78m-0.14-.63a1.7,1.7,0,0,1,1.39.68v-2.86h0.76V399h-0.74a3.74,3.74,0,0,0,0-.61,1.6,1.6,0,0,1-1.39.71,1.84,1.84,0,0,1-1.94-2A1.86,1.86,0,0,1,533,395.07Z" transform="translate(-26.55 -152.55)"/><path class="c" d="M538.23,395.07c1.3,0,1.9.87,1.84,2.25h-3a1.2,1.2,0,0,0,1.25,1.17,1.28,1.28,0,0,0,1.12-.58l0.53,0.43a1.92,1.92,0,0,1-1.65.79,2,2,0,0,1,0-4m1.08,1.68a1.07,1.07,0,0,0-1.54-1,1.12,1.12,0,0,0-.75,1h2.28Z" transform="translate(-26.55 -152.55)"/><path class="c" d="M541.14,399c0-1.28,0-2.61,0-3.84h0.72c0,0.16,0,.48,0,0.65h0a1.3,1.3,0,0,1,1.47-.72l0,0.7A1.1,1.1,0,0,0,541.9,397v2h-0.76" transform="translate(-26.55 -152.55)"/><path class="c" d="M544.07,399c0-1.28,0-2.61,0-3.84h0.72c0,0.16,0,.45,0,0.63h0a1.34,1.34,0,0,1,1.25-.74,1.36,1.36,0,0,1,1.43,1.56V399h-0.76v-2.13c0-.68-0.19-1.17-0.87-1.17a1.11,1.11,0,0,0-1,1.26v2h-0.76" transform="translate(-26.55 -152.55)"/><path class="c" d="M552.64,395.72a1.12,1.12,0,0,0-1,1.26v2h-0.76v-6.12h0.76c0,0.95,0,1.94,0,2.87a1.35,1.35,0,0,1,1.21-.69,1.37,1.37,0,0,1,1.43,1.56V399h-0.76v-2.12c0-.67-0.19-1.17-0.87-1.17" transform="translate(-26.55 -152.55)"/><path class="c" d="M559,395.18c0,1.28,0,2.61,0,3.84h-0.72c0-.16,0-0.49,0-0.63a1.41,1.41,0,0,1-1.26.74,1.36,1.36,0,0,1-1.43-1.56v-2.38h0.76v2.12c0,0.68.19,1.18,0.87,1.18a1.11,1.11,0,0,0,1-1.26v-2H559" transform="translate(-26.55 -152.55)"/><path class="c" d="M561,395.81a1.34,1.34,0,0,1,1.22-.74,1.2,1.2,0,0,1,1.19.77,1.41,1.41,0,0,1,1.3-.77,1.36,1.36,0,0,1,1.43,1.56V399h-0.76v-2.13c0-.66-0.19-1.17-0.85-1.17-1.39,0-.87,2-1,3.3h-0.76v-2.28a0.83,0.83,0,0,0-.81-1,1.11,1.11,0,0,0-1,1.26v2h-0.76c0-1.28,0-2.61,0-3.84H561c0,0.16,0,.45,0,0.63h0" transform="translate(-26.55 -152.55)"/><path class="c" d="M568.74,398.51a1.09,1.09,0,0,0,1.11-1.33c-0.83,0-1.9,0-1.9.73a0.65,0.65,0,0,0,.79.6m-1.56-.58c0-1.24,1.4-1.26,2.67-1.3a0.83,0.83,0,0,0-.95-0.95,1.6,1.6,0,0,0-1.09.45l-0.41-.49a2.26,2.26,0,0,1,1.57-.58,1.42,1.42,0,0,1,1.6,1.51,23.91,23.91,0,0,0,.06,2.44h-0.69a2.56,2.56,0,0,1-.06-0.55h0a1.47,1.47,0,0,1-1.29.65A1.19,1.19,0,0,1,567.17,397.93Z" transform="translate(-26.55 -152.55)"/><path class="c" d="M571.85,399c0-1.28,0-2.61,0-3.84h0.72c0,0.16,0,.45,0,0.63h0a1.34,1.34,0,0,1,1.25-.74,1.36,1.36,0,0,1,1.43,1.56V399h-0.76v-2.13c0-.68-0.19-1.17-0.87-1.17a1.11,1.11,0,0,0-1,1.26v2h-0.76" transform="translate(-26.55 -152.55)"/><path class="c" d="M576.42,396.7c-0.5-1.26.95-2,2.14-1.47a1.3,1.3,0,0,1,.6.47l-0.53.45a1,1,0,0,0-.89-0.48,0.58,0.58,0,0,0-.71.5c0,0.59.92,0.51,1.39,0.73a1.08,1.08,0,0,1,.78,1c0.06,1.56-2.45,1.51-3.08.55l0.54-.46a1.24,1.24,0,0,0,1,.53,0.62,0.62,0,0,0,.76-0.56c0-.73-1.27-0.51-1.76-0.95a0.84,0.84,0,0,1-.26-0.3" transform="translate(-26.55 -152.55)"/><rect class="d" x="405.45" y="216.45" width="72" height="54" rx="1.8" ry="1.8"/><rect class="b" x="405.45" y="216.45" width="72" height="54" rx="1.8" ry="1.8"/><path class="c" d="M456.94,397.35c0-1.13-1.3-1-2.43-1v2c1.13,0,2.4.12,2.43-1m-0.26-2.54c0-1-1.17-.86-2.17-0.86v1.75C455.54,395.71,456.68,395.82,456.68,394.81Zm1.07,2.58c0,1.84-2.15,1.64-4,1.63v-5.73h2c1,0,1.77.4,1.8,1.45a1.3,1.3,0,0,1-1,1.26A1.32,1.32,0,0,1,457.75,397.39Z" transform="translate(-26.55 -152.55)"/><path class="c" d="M460.69,398.48a1.39,1.39,0,1,0-1.28-1.39,1.24,1.24,0,0,0,1.28,1.39m0-3.41a2,2,0,1,1-2.07,2A1.9,1.9,0,0,1,460.69,395.07Z" transform="translate(-26.55 -152.55)"/><path class="c" d="M463.81,399c0-1.28,0-2.61,0-3.84h0.72c0,0.16,0,.45,0,0.63h0a1.34,1.34,0,0,1,1.25-.74,1.36,1.36,0,0,1,1.43,1.56V399h-0.76v-2.13c0-.68-0.19-1.17-0.87-1.17a1.11,1.11,0,0,0-1,1.26v2h-0.76" transform="translate(-26.55 -152.55)"/><path class="c" d="M470.34,398.48a1.39,1.39,0,1,0-1.28-1.39,1.24,1.24,0,0,0,1.28,1.39m0-3.41a2,2,0,1,1-2.07,2A1.9,1.9,0,0,1,470.34,395.07Z" transform="translate(-26.55 -152.55)"/><path class="c" d="M475.49,398.48a1.39,1.39,0,0,0,0-2.78,1.39,1.39,0,0,0,0,2.78m0.13,0.64a1.62,1.62,0,0,1-1.39-.71h0V399h-0.74v-6.12h0.76v2.86h0a1.6,1.6,0,0,1,1.37-.68A2,2,0,0,1,475.62,399.12Z" transform="translate(-26.55 -152.55)"/><path class="c" d="M480.43,398.48a1.39,1.39,0,1,0-1.28-1.39,1.24,1.24,0,0,0,1.28,1.39m0-3.41a2,2,0,1,1-2.07,2A1.9,1.9,0,0,1,480.43,395.07Z" transform="translate(-26.55 -152.55)"/><rect class="d" x="324.45" y="216.45" width="72" height="54" rx="1.8" ry="1.8"/><rect class="b" x="324.45" y="216.45" width="72" height="54" rx="1.8" ry="1.8"/><path class="c" d="M373.11,391.7a1.78,1.78,0,0,0,1.54-.76l0.64,0.44a2.57,2.57,0,0,1-2.19,1,2.87,2.87,0,0,1-2.79-1.8,3.44,3.44,0,0,1,0-2.45,3,3,0,0,1,3.42-1.73,2.23,2.23,0,0,1,1.47.83l-0.63.49a1.73,1.73,0,0,0-1.43-.67,2.1,2.1,0,0,0-2.18,2.3,2.06,2.06,0,0,0,2.15,2.31" transform="translate(-26.55 -152.55)"/><path class="c" d="M377.78,391.73a1.39,1.39,0,1,0-1.28-1.39,1.24,1.24,0,0,0,1.28,1.39m0-3.41a2,2,0,1,1-2.07,2A1.9,1.9,0,0,1,377.78,388.32Z" transform="translate(-26.55 -152.55)"/><path class="c" d="M381.65,389.06a1.34,1.34,0,0,1,1.22-.74,1.2,1.2,0,0,1,1.19.77,1.41,1.41,0,0,1,1.3-.77,1.36,1.36,0,0,1,1.43,1.56v2.38H386v-2.13c0-.66-0.19-1.17-0.85-1.17-1.39,0-.87,2-1,3.3h-0.76V390a0.83,0.83,0,0,0-.81-1,1.11,1.11,0,0,0-1,1.26v2h-0.76c0-1.28,0-2.61,0-3.84h0.72c0,0.16,0,.45,0,0.63h0" transform="translate(-26.55 -152.55)"/><path class="c" d="M388.84,389.06a1.34,1.34,0,0,1,1.22-.74,1.2,1.2,0,0,1,1.19.77,1.41,1.41,0,0,1,1.3-.77,1.36,1.36,0,0,1,1.43,1.56v2.38h-0.76v-2.13c0-.66-0.19-1.17-0.85-1.17-1.39,0-.87,2-1,3.3h-0.76V390a0.83,0.83,0,0,0-.81-1,1.11,1.11,0,0,0-1,1.26v2h-0.76c0-1.28,0-2.61,0-3.84h0.72c0,0.16,0,.45,0,0.63h0" transform="translate(-26.55 -152.55)"/><path class="c" d="M397.09,391.73a1.39,1.39,0,1,0-1.28-1.39,1.24,1.24,0,0,0,1.28,1.39m0-3.41a2,2,0,1,1-2.07,2A1.9,1.9,0,0,1,397.09,388.32Z" transform="translate(-26.55 -152.55)"/><path class="c" d="M400.22,392.27c0-1.28,0-2.61,0-3.84h0.72c0,0.16,0,.45,0,0.63h0a1.34,1.34,0,0,1,1.25-.74,1.36,1.36,0,0,1,1.43,1.56v2.38h-0.76v-2.13c0-.68-0.19-1.17-0.87-1.17a1.11,1.11,0,0,0-1,1.26v2h-0.76" transform="translate(-26.55 -152.55)"/><path class="c" d="M364.73,401.42a1.88,1.88,0,0,1,2-2,1.82,1.82,0,0,1,1.44.63l-0.55.45a1.05,1.05,0,0,0-.88-0.44,1.39,1.39,0,0,0,0,2.77,1.1,1.1,0,0,0,.92-0.42l0.51,0.46a1.77,1.77,0,0,1-1.43.6,1.9,1.9,0,0,1-2.07-2" transform="translate(-26.55 -152.55)"/><path class="c" d="M370.79,400a1.12,1.12,0,0,0-1,1.26v2H369v-6.12h0.76c0,0.95,0,1.94,0,2.87a1.35,1.35,0,0,1,1.21-.69,1.37,1.37,0,0,1,1.43,1.56v2.38h-0.76v-2.12c0-.67-0.19-1.17-0.87-1.17" transform="translate(-26.55 -152.55)"/><path class="c" d="M374.1,397.62a0.5,0.5,0,0,1,.51.49,0.51,0.51,0,1,1-.51-0.49m0.38,5.72h-0.76V399.5h0.76v3.84Z" transform="translate(-26.55 -152.55)"/><path class="c" d="M376.55,400.13a1.34,1.34,0,0,1,1.22-.74,1.2,1.2,0,0,1,1.19.77,1.41,1.41,0,0,1,1.3-.77A1.36,1.36,0,0,1,381.7,401v2.38h-0.76V401.2c0-.66-0.19-1.17-0.85-1.17-1.39,0-.87,2-1,3.3h-0.76v-2.28a0.83,0.83,0,0,0-.81-1,1.11,1.11,0,0,0-1,1.26v2h-0.76c0-1.28,0-2.61,0-3.84h0.72c0,0.16,0,.45,0,0.63h0" transform="translate(-26.55 -152.55)"/><path class="c" d="M385,402.8a1.39,1.39,0,0,0,0-2.78,1.39,1.39,0,0,0,0,2.78m0.13,0.64a1.59,1.59,0,0,1-1.35-.68h0v2.52H383V399.5h0.75v0.6h0a1.54,1.54,0,0,1,1.39-.7A2,2,0,0,1,385.13,403.44Z" transform="translate(-26.55 -152.55)"/><path class="c" d="M389.41,402.83a1.09,1.09,0,0,0,1.11-1.33c-0.83,0-1.9,0-1.9.73a0.65,0.65,0,0,0,.79.6m-1.56-.58c0-1.24,1.4-1.26,2.67-1.3a0.83,0.83,0,0,0-.95-0.95,1.6,1.6,0,0,0-1.09.45l-0.4-.49a2.26,2.26,0,0,1,1.57-.58,1.42,1.42,0,0,1,1.6,1.51,23.92,23.92,0,0,0,.06,2.44h-0.69a2.56,2.56,0,0,1-.06-0.55h0a1.47,1.47,0,0,1-1.29.65A1.19,1.19,0,0,1,387.84,402.25Z" transform="translate(-26.55 -152.55)"/><path class="c" d="M392.52,403.33c0-1.28,0-2.61,0-3.84h0.72c0,0.16,0,.45,0,0.63h0a1.34,1.34,0,0,1,1.25-.74,1.36,1.36,0,0,1,1.43,1.56v2.38h-0.76V401.2c0-.68-0.19-1.17-0.87-1.17a1.11,1.11,0,0,0-1,1.26v2h-0.76" transform="translate(-26.55 -152.55)"/><polyline class="c" points="373.42 247.57 371.23 250.15 373.51 250.15 373.51 250.47 373.51 250.78 370.29 250.78 370.29 250.47 370.29 250.16 372.46 247.57 370.4 247.57 370.4 247.26 370.4 246.95 373.42 246.95 373.42 247.26 373.42 247.57"/><path class="c" d="M402.71,399.39c1.3,0,1.9.87,1.84,2.25h-3a1.2,1.2,0,0,0,1.25,1.17,1.28,1.28,0,0,0,1.12-.58l0.53,0.43a1.92,1.92,0,0,1-1.65.79,2,2,0,0,1,0-4m1.08,1.68a1.07,1.07,0,0,0-1.54-1,1.12,1.12,0,0,0-.75,1h2.28Z" transform="translate(-26.55 -152.55)"/><path class="c" d="M407.35,399.39c1.3,0,1.9.87,1.84,2.25h-3a1.2,1.2,0,0,0,1.25,1.17,1.28,1.28,0,0,0,1.12-.58l0.53,0.43a1.92,1.92,0,0,1-1.65.79,2,2,0,0,1,0-4m1.08,1.68a1.07,1.07,0,0,0-1.54-1,1.12,1.12,0,0,0-.75,1h2.28Z" transform="translate(-26.55 -152.55)"/><rect class="d" x="243.45" y="216.45" width="72" height="54" rx="1.8" ry="1.8"/><rect class="b" x="243.45" y="216.45" width="72" height="54" rx="1.8" ry="1.8"/><path class="c" d="M278.6,393.28c0.43,1.51.83,3.07,1.28,4.57l1.34-4.57h0.88c0.45,1.51.87,3.07,1.35,4.57l1.26-4.57h0.85L283.89,399h-0.83c-0.47-1.53-.92-3.09-1.41-4.61L280.25,399h-0.83l-1.68-5.73h0.87" transform="translate(-26.55 -152.55)"/><path class="c" d="M287.75,395.07c1.3,0,1.9.87,1.84,2.25h-3a1.2,1.2,0,0,0,1.25,1.17,1.28,1.28,0,0,0,1.12-.58l0.53,0.43a1.92,1.92,0,0,1-1.65.79,2,2,0,0,1,0-4m1.08,1.68a1.07,1.07,0,0,0-1.54-1,1.12,1.12,0,0,0-.75,1h2.28Z" transform="translate(-26.55 -152.55)"/><path class="c" d="M290.52,396.7c-0.5-1.26.95-2,2.14-1.47a1.3,1.3,0,0,1,.6.47l-0.53.45a1,1,0,0,0-.89-0.48,0.58,0.58,0,0,0-.71.5c0,0.59.92,0.51,1.39,0.73a1.08,1.08,0,0,1,.78,1c0.06,1.56-2.45,1.51-3.08.55l0.54-.46a1.24,1.24,0,0,0,1,.53,0.62,0.62,0,0,0,.76-0.56c0-.73-1.27-0.51-1.76-0.95a0.84,0.84,0,0,1-.26-0.3" transform="translate(-26.55 -152.55)"/><path class="c" d="M295.48,399.08a1,1,0,0,1-1.12-1.2V395.8h-0.74v-0.62h0.74v-1.1h0.75v1.1h1v0.62h-1v2c0,0.44.13,0.64,0.54,0.65a1.09,1.09,0,0,0,.45-0.1l0,0.62a1.94,1.94,0,0,1-.65.11" transform="translate(-26.55 -152.55)"/><path class="c" d="M298.65,395.07c1.3,0,1.9.87,1.84,2.25h-3a1.2,1.2,0,0,0,1.25,1.17,1.28,1.28,0,0,0,1.12-.58l0.53,0.43a1.92,1.92,0,0,1-1.65.79,2,2,0,0,1,0-4m1.08,1.68a1.07,1.07,0,0,0-1.54-1,1.12,1.12,0,0,0-.75,1h2.28Z" transform="translate(-26.55 -152.55)"/><path class="c" d="M301.56,399c0-1.28,0-2.61,0-3.84h0.72c0,0.16,0,.48,0,0.65h0a1.3,1.3,0,0,1,1.47-.72l0,0.7a1.1,1.1,0,0,0-1.43,1.19v2h-0.76" transform="translate(-26.55 -152.55)"/><path class="c" d="M304.49,399c0-1.28,0-2.61,0-3.84h0.72c0,0.16,0,.45,0,0.63h0a1.34,1.34,0,0,1,1.25-.74,1.36,1.36,0,0,1,1.43,1.56V399h-0.76v-2.13c0-.68-0.19-1.17-0.87-1.17a1.11,1.11,0,0,0-1,1.26v2h-0.76" transform="translate(-26.55 -152.55)"/><path class="c" d="M313.05,395.7a1.36,1.36,0,0,0,0,2.71,1.35,1.35,0,0,0,0-2.71m2,3.12a1.92,1.92,0,0,1-2.12,2.14,2.81,2.81,0,0,1-1.88-.7l0.49-.59a2,2,0,0,0,1.4.62c1.1,0,1.47-.77,1.34-1.91a1.56,1.56,0,0,1-1.35.66,2,2,0,0,1,0-4,1.63,1.63,0,0,1,1.4.72v-0.62h0.74v3.64Z" transform="translate(-26.55 -152.55)"/><path class="c" d="M318.18,398.48a1.39,1.39,0,1,0-1.28-1.39,1.24,1.24,0,0,0,1.28,1.39m0-3.41a2,2,0,1,1-2.07,2A1.9,1.9,0,0,1,318.18,395.07Z" transform="translate(-26.55 -152.55)"/><path class="c" d="M321.31,399c0-1.28,0-2.61,0-3.84H322c0,0.16,0,.48,0,0.65h0a1.3,1.3,0,0,1,1.47-.72l0,0.7a1.1,1.1,0,0,0-1.43,1.19v2h-0.76" transform="translate(-26.55 -152.55)"/><path class="c" d="M324.63,393.3a0.5,0.5,0,0,1,.51.49,0.51,0.51,0,1,1-.51-0.49M325,399h-0.76v-3.84H325V399Z" transform="translate(-26.55 -152.55)"/><polyline class="c" points="300.56 246.47 299.8 246.47 299.8 243.4 299.8 240.34 300.56 240.34 300.56 243.4 300.56 246.47"/><polyline class="c" points="302.67 246.47 301.91 246.47 301.91 243.4 301.91 240.34 302.67 240.34 302.67 243.4 302.67 246.47"/><path class="c" d="M331.83,398.51a1.09,1.09,0,0,0,1.11-1.33c-0.83,0-1.9,0-1.9.73a0.65,0.65,0,0,0,.79.6m-1.56-.58c0-1.24,1.4-1.26,2.67-1.3a0.83,0.83,0,0,0-.95-0.95,1.6,1.6,0,0,0-1.09.45l-0.4-.49a2.26,2.26,0,0,1,1.57-.58,1.42,1.42,0,0,1,1.6,1.51,23.92,23.92,0,0,0,.06,2.44H333a2.56,2.56,0,0,1-.06-0.55h0a1.47,1.47,0,0,1-1.29.65A1.19,1.19,0,0,1,330.26,397.93Z" transform="translate(-26.55 -152.55)"/><rect class="d" x="162.45" y="216.45" width="72" height="54" rx="1.8" ry="1.8"/><rect class="b" x="162.45" y="216.45" width="72" height="54" rx="1.8" ry="1.8"/><polyline class="c" points="173.17 245.75 176.17 245.75 176.17 246.11 176.17 246.47 172.37 246.47 172.37 243.6 172.37 240.73 176.05 240.73 176.05 241.08 176.05 241.44 173.17 241.44 173.17 242.29 173.17 243.15 175.88 243.15 175.88 243.5 175.88 243.84 173.17 243.84 173.17 244.8 173.17 245.75"/><path class="c" d="M205,398.51a1.09,1.09,0,0,0,1.11-1.33c-0.83,0-1.9,0-1.9.73a0.65,0.65,0,0,0,.79.6m-1.56-.58c0-1.24,1.4-1.26,2.67-1.3a0.83,0.83,0,0,0-.95-0.95,1.6,1.6,0,0,0-1.09.45l-0.4-.49a2.26,2.26,0,0,1,1.57-.58,1.42,1.42,0,0,1,1.6,1.51,23.92,23.92,0,0,0,.06,2.44h-0.69a2.56,2.56,0,0,1-.06-0.55h0a1.47,1.47,0,0,1-1.29.65A1.19,1.19,0,0,1,203.47,397.93Z" transform="translate(-26.55 -152.55)"/><path class="c" d="M208,396.7c-0.5-1.26.95-2,2.14-1.47a1.3,1.3,0,0,1,.6.47l-0.53.45a1,1,0,0,0-.89-0.48,0.58,0.58,0,0,0-.71.5c0,0.59.92,0.51,1.39,0.73a1.08,1.08,0,0,1,.78,1c0.06,1.56-2.45,1.51-3.08.55l0.54-.46a1.24,1.24,0,0,0,1,.53,0.62,0.62,0,0,0,.76-0.56c0-.73-1.27-0.51-1.76-0.95a0.84,0.84,0,0,1-.26-0.3" transform="translate(-26.55 -152.55)"/><path class="c" d="M213,399.08a1,1,0,0,1-1.12-1.2V395.8H211.1v-0.62h0.74v-1.1h0.75v1.1h1v0.62h-1v2c0,0.44.13,0.64,0.54,0.65a1.09,1.09,0,0,0,.45-0.1l0,0.62a1.94,1.94,0,0,1-.65.11" transform="translate(-26.55 -152.55)"/><path class="c" d="M216.13,395.07c1.3,0,1.9.87,1.84,2.25h-3a1.2,1.2,0,0,0,1.25,1.17,1.28,1.28,0,0,0,1.12-.58l0.53,0.43a1.92,1.92,0,0,1-1.65.79,2,2,0,0,1,0-4m1.08,1.68a1.07,1.07,0,0,0-1.54-1,1.12,1.12,0,0,0-.75,1h2.28Z" transform="translate(-26.55 -152.55)"/><path class="c" d="M219,399c0-1.28,0-2.61,0-3.84h0.72c0,0.16,0,.48,0,0.65h0a1.3,1.3,0,0,1,1.47-.72l0,0.7A1.1,1.1,0,0,0,219.8,397v2H219" transform="translate(-26.55 -152.55)"/><path class="c" d="M222,399c0-1.28,0-2.61,0-3.84h0.72c0,0.16,0,.45,0,0.63h0a1.34,1.34,0,0,1,1.25-.74,1.36,1.36,0,0,1,1.43,1.56V399h-0.76v-2.13c0-.68-0.19-1.17-0.87-1.17a1.11,1.11,0,0,0-1,1.26v2H222" transform="translate(-26.55 -152.55)"/><path class="c" d="M230.52,395.7a1.36,1.36,0,0,0,0,2.71,1.35,1.35,0,0,0,0-2.71m2,3.12a1.92,1.92,0,0,1-2.12,2.14,2.81,2.81,0,0,1-1.88-.7l0.49-.59a2,2,0,0,0,1.4.62c1.1,0,1.47-.77,1.34-1.91a1.56,1.56,0,0,1-1.35.66,2,2,0,0,1,0-4,1.63,1.63,0,0,1,1.4.72v-0.62h0.74v3.64Z" transform="translate(-26.55 -152.55)"/><path class="c" d="M235.65,398.48a1.39,1.39,0,1,0-1.28-1.39,1.24,1.24,0,0,0,1.28,1.39m0-3.41a2,2,0,1,1-2.07,2A1.9,1.9,0,0,1,235.65,395.07Z" transform="translate(-26.55 -152.55)"/><path class="c" d="M238.78,399c0-1.28,0-2.61,0-3.84h0.72c0,0.16,0,.48,0,0.65h0a1.3,1.3,0,0,1,1.47-.72l0,0.7a1.1,1.1,0,0,0-1.43,1.19v2h-0.76" transform="translate(-26.55 -152.55)"/><path class="c" d="M242.1,393.3a0.5,0.5,0,0,1,.51.49,0.51,0.51,0,1,1-.51-0.49m0.38,5.72h-0.76v-3.84h0.76V399Z" transform="translate(-26.55 -152.55)"/><polyline class="c" points="218.03 246.47 217.27 246.47 217.27 243.4 217.27 240.34 218.03 240.34 218.03 243.4 218.03 246.47"/><polyline class="c" points="220.14 246.47 219.38 246.47 219.38 243.4 219.38 240.34 220.14 240.34 220.14 243.4 220.14 246.47"/><path class="c" d="M249.3,398.51a1.09,1.09,0,0,0,1.11-1.33c-0.83,0-1.9,0-1.9.73a0.65,0.65,0,0,0,.79.6m-1.56-.58c0-1.24,1.4-1.26,2.67-1.3a0.83,0.83,0,0,0-.95-0.95,1.6,1.6,0,0,0-1.09.45l-0.4-.49a2.26,2.26,0,0,1,1.57-.58,1.42,1.42,0,0,1,1.6,1.51,23.92,23.92,0,0,0,.06,2.44h-0.69a2.56,2.56,0,0,1-.06-0.55h0a1.47,1.47,0,0,1-1.29.65A1.19,1.19,0,0,1,247.73,397.93Z" transform="translate(-26.55 -152.55)"/><rect class="d" x="81.45" y="216.45" width="72" height="54" rx="1.8" ry="1.8"/><rect class="b" x="81.45" y="216.45" width="72" height="54" rx="1.8" ry="1.8"/><path class="c" d="M126.77,388c0-1.43,1.6-1.93,2.91-1.46a1.65,1.65,0,0,1,.7.48l-0.57.55a1.38,1.38,0,0,0-1.12-.53,1,1,0,0,0-1,1.32c0.45,0.66,1.61.61,2.21,1.12a1.44,1.44,0,0,1,.55,1.17c0,1.54-1.67,2.07-3,1.53a2,2,0,0,1-.83-0.62l0.62-.53a1.6,1.6,0,0,0,1.28.67,1,1,0,0,0,1-1.42c-0.4-.71-1.68-0.61-2.27-1.17a1.44,1.44,0,0,1-.47-1.12" transform="translate(-26.55 -152.55)"/><path class="c" d="M134.93,388.43c0,1.28,0,2.61,0,3.84h-0.72c0-.16,0-0.49,0-0.63a1.41,1.41,0,0,1-1.26.74,1.36,1.36,0,0,1-1.43-1.56v-2.38h0.76v2.12c0,0.68.19,1.18,0.87,1.18a1.11,1.11,0,0,0,1-1.26v-2h0.76" transform="translate(-26.55 -152.55)"/><path class="c" d="M137,389.06a1.34,1.34,0,0,1,1.22-.74,1.2,1.2,0,0,1,1.19.77,1.41,1.41,0,0,1,1.3-.77,1.36,1.36,0,0,1,1.43,1.56v2.38h-0.76v-2.13c0-.66-0.19-1.17-0.85-1.17-1.39,0-.87,2-1,3.3H138.8V390a0.83,0.83,0,0,0-.81-1,1.11,1.11,0,0,0-1,1.26v2h-0.76c0-1.28,0-2.61,0-3.84h0.72c0,0.16,0,.45,0,0.63h0" transform="translate(-26.55 -152.55)"/><path class="c" d="M144.71,391.76a1.09,1.09,0,0,0,1.11-1.33c-0.83,0-1.9,0-1.9.73a0.65,0.65,0,0,0,.79.6m-1.56-.58c0-1.24,1.4-1.26,2.67-1.3a0.83,0.83,0,0,0-.95-0.95,1.6,1.6,0,0,0-1.09.45l-0.4-.49a2.26,2.26,0,0,1,1.57-.58,1.42,1.42,0,0,1,1.6,1.51,23.92,23.92,0,0,0,.06,2.44h-0.69a2.56,2.56,0,0,1-.06-0.55h0a1.47,1.47,0,0,1-1.29.65A1.19,1.19,0,0,1,143.15,391.18Z" transform="translate(-26.55 -152.55)"/><path class="c" d="M149,392.33a1,1,0,0,1-1.12-1.2V389h-0.74v-0.62h0.74v-1.1h0.75v1.1h1V389h-1v2c0,0.44.13,0.64,0.54,0.65a1.09,1.09,0,0,0,.45-0.1l0,0.62a1.94,1.94,0,0,1-.65.11" transform="translate(-26.55 -152.55)"/><path class="c" d="M150.41,392.27c0-1.28,0-2.61,0-3.84h0.72c0,0.16,0,.48,0,0.65h0a1.3,1.3,0,0,1,1.47-.72l0,0.7a1.1,1.1,0,0,0-1.43,1.19v2h-0.76" transform="translate(-26.55 -152.55)"/><path class="c" d="M154.51,391.76a1.09,1.09,0,0,0,1.11-1.33c-0.83,0-1.9,0-1.9.73a0.65,0.65,0,0,0,.79.6m-1.56-.58c0-1.24,1.4-1.26,2.67-1.3a0.83,0.83,0,0,0-.95-0.95,1.6,1.6,0,0,0-1.09.45l-0.4-.49a2.26,2.26,0,0,1,1.57-.58,1.42,1.42,0,0,1,1.6,1.51,23.92,23.92,0,0,0,.06,2.44h-0.69a2.56,2.56,0,0,1-.06-0.55h0a1.47,1.47,0,0,1-1.29.65A1.19,1.19,0,0,1,153,391.18Z" transform="translate(-26.55 -152.55)"/><path class="c" d="M157.63,392.27c0-1.28,0-2.61,0-3.84h0.72c0,0.16,0,.45,0,0.63h0a1.34,1.34,0,0,1,1.25-.74,1.36,1.36,0,0,1,1.43,1.56v2.38h-0.76v-2.13c0-.68-0.19-1.17-0.87-1.17a1.11,1.11,0,0,0-1,1.26v2h-0.76" transform="translate(-26.55 -152.55)"/><path class="c" d="M127.21,402.8a1.39,1.39,0,1,0-1.28-1.39,1.24,1.24,0,0,0,1.28,1.39m0-3.41a2,2,0,1,1-2.07,2A1.9,1.9,0,0,1,127.21,399.39Z" transform="translate(-26.55 -152.55)"/><path class="c" d="M130.34,403.33c0-1.28,0-2.61,0-3.84H131c0,0.16,0,.48,0,0.65h0a1.3,1.3,0,0,1,1.47-.72l0,0.7a1.1,1.1,0,0,0-1.43,1.19v2h-0.76" transform="translate(-26.55 -152.55)"/><path class="c" d="M134.44,402.83a1.09,1.09,0,0,0,1.11-1.33c-0.83,0-1.9,0-1.9.73a0.65,0.65,0,0,0,.79.6m-1.56-.58c0-1.24,1.4-1.26,2.67-1.3a0.83,0.83,0,0,0-.95-0.95,1.6,1.6,0,0,0-1.09.45l-0.4-.49a2.26,2.26,0,0,1,1.57-.58,1.42,1.42,0,0,1,1.6,1.51,23.92,23.92,0,0,0,.06,2.44h-0.69a2.56,2.56,0,0,1-.06-0.55h0a1.47,1.47,0,0,1-1.29.65A1.19,1.19,0,0,1,132.88,402.25Z" transform="translate(-26.55 -152.55)"/><path class="c" d="M137.55,403.33c0-1.28,0-2.61,0-3.84h0.72c0,0.16,0,.45,0,0.63h0a1.34,1.34,0,0,1,1.25-.74A1.36,1.36,0,0,1,141,401v2.38h-0.76V401.2c0-.68-0.19-1.17-0.87-1.17a1.11,1.11,0,0,0-1,1.26v2h-0.76" transform="translate(-26.55 -152.55)"/><path class="c" d="M144.07,400a1.36,1.36,0,0,0,0,2.71,1.35,1.35,0,0,0,0-2.71m2,3.12a1.92,1.92,0,0,1-2.12,2.14,2.81,2.81,0,0,1-1.88-.7l0.49-.59a2,2,0,0,0,1.4.62c1.1,0,1.47-.77,1.34-1.91a1.56,1.56,0,0,1-1.35.66,2,2,0,0,1,0-4,1.63,1.63,0,0,1,1.4.72V399.5h0.74v3.64Z" transform="translate(-26.55 -152.55)"/><path class="c" d="M150.78,399.5c0,1.28,0,2.61,0,3.84h-0.72c0-.16,0-0.49,0-0.63a1.41,1.41,0,0,1-1.26.74,1.36,1.36,0,0,1-1.43-1.56V399.5h0.76v2.12c0,0.68.19,1.18,0.87,1.18a1.11,1.11,0,0,0,1-1.26v-2h0.76" transform="translate(-26.55 -152.55)"/><path class="c" d="M153.32,403.4a1,1,0,0,1-1.12-1.2v-2.08h-0.74V399.5h0.74v-1.1H153v1.1h1v0.62h-1v2c0,0.44.13,0.64,0.54,0.65a1.09,1.09,0,0,0,.45-0.1l0,0.62a1.94,1.94,0,0,1-.65.11" transform="translate(-26.55 -152.55)"/><path class="c" d="M156,402.83a1.09,1.09,0,0,0,1.11-1.33c-0.83,0-1.9,0-1.9.73a0.65,0.65,0,0,0,.79.6m-1.56-.58c0-1.24,1.4-1.26,2.67-1.3a0.83,0.83,0,0,0-.95-0.95,1.6,1.6,0,0,0-1.09.45l-0.4-.49a2.26,2.26,0,0,1,1.57-.58,1.42,1.42,0,0,1,1.6,1.51,23.92,23.92,0,0,0,.06,2.44h-0.69a2.56,2.56,0,0,1-.06-0.55h0a1.47,1.47,0,0,1-1.29.65A1.19,1.19,0,0,1,154.48,402.25Z" transform="translate(-26.55 -152.55)"/><path class="c" d="M159.16,403.33c0-1.28,0-2.61,0-3.84h0.72c0,0.16,0,.45,0,0.63h0a1.34,1.34,0,0,1,1.25-.74,1.36,1.36,0,0,1,1.43,1.56v2.38h-0.76V401.2c0-.68-0.19-1.17-0.87-1.17a1.11,1.11,0,0,0-1,1.26v2h-0.76" transform="translate(-26.55 -152.55)"/><rect class="d" x="0.45" y="216.45" width="72" height="54" rx="1.8" ry="1.8"/><rect class="b" x="0.45" y="216.45" width="72" height="54" rx="1.8" ry="1.8"/><path class="c" d="M51.18,390.6c0-1.13-1.3-1-2.43-1v2c1.13,0,2.4.12,2.43-1m-0.26-2.54c0-1-1.17-.86-2.17-0.86V389C49.78,389,50.92,389.07,50.92,388.06ZM52,390.64c0,1.84-2.15,1.64-4,1.63v-5.73h2c1,0,1.77.4,1.8,1.45a1.3,1.3,0,0,1-1,1.26A1.32,1.32,0,0,1,52,390.64Z" transform="translate(-26.55 -152.55)"/><path class="c" d="M54.92,391.73a1.39,1.39,0,1,0-1.28-1.39,1.24,1.24,0,0,0,1.28,1.39m0-3.41a2,2,0,1,1-2.07,2A1.9,1.9,0,0,1,54.92,388.32Z" transform="translate(-26.55 -152.55)"/><path class="c" d="M58,392.27c0-1.28,0-2.61,0-3.84h0.72c0,0.16,0,.48,0,0.65h0a1.3,1.3,0,0,1,1.47-.72l0,0.7a1.1,1.1,0,0,0-1.43,1.19v2H58" transform="translate(-26.55 -152.55)"/><path class="c" d="M61,392.27c0-1.28,0-2.61,0-3.84h0.72c0,0.16,0,.45,0,0.63h0a1.34,1.34,0,0,1,1.25-.74,1.36,1.36,0,0,1,1.43,1.56v2.38H63.64v-2.13c0-.68-0.19-1.17-0.87-1.17a1.11,1.11,0,0,0-1,1.26v2H61" transform="translate(-26.55 -152.55)"/><path class="c" d="M67.43,388.32c1.3,0,1.9.87,1.84,2.25h-3a1.2,1.2,0,0,0,1.25,1.17,1.28,1.28,0,0,0,1.12-.58l0.53,0.43a1.92,1.92,0,0,1-1.65.79,2,2,0,0,1,0-4M68.5,390A1.07,1.07,0,0,0,67,389a1.12,1.12,0,0,0-.75,1H68.5Z" transform="translate(-26.55 -152.55)"/><path class="c" d="M71.57,391.76a1.09,1.09,0,0,0,1.11-1.33c-0.83,0-1.9,0-1.9.73a0.65,0.65,0,0,0,.79.6M70,391.18c0-1.24,1.4-1.26,2.67-1.3a0.83,0.83,0,0,0-.95-0.95,1.6,1.6,0,0,0-1.09.45l-0.4-.49a2.26,2.26,0,0,1,1.57-.58,1.42,1.42,0,0,1,1.6,1.51,23.93,23.93,0,0,0,.06,2.44H72.77a2.56,2.56,0,0,1-.06-0.55h0a1.47,1.47,0,0,1-1.29.65A1.19,1.19,0,0,1,70,391.18Z" transform="translate(-26.55 -152.55)"/><path class="c" d="M74.68,392.27c0-1.28,0-2.61,0-3.84h0.72c0,0.16,0,.45,0,0.63h0a1.34,1.34,0,0,1,1.25-.74,1.36,1.36,0,0,1,1.43,1.56v2.38H77.34v-2.13c0-.68-0.19-1.17-0.87-1.17a1.11,1.11,0,0,0-1,1.26v2H74.68" transform="translate(-26.55 -152.55)"/><path class="c" d="M46.21,402.8a1.39,1.39,0,1,0-1.28-1.39,1.24,1.24,0,0,0,1.28,1.39m0-3.41a2,2,0,1,1-2.07,2A1.9,1.9,0,0,1,46.21,399.39Z" transform="translate(-26.55 -152.55)"/><path class="c" d="M49.34,403.33c0-1.28,0-2.61,0-3.84H50c0,0.16,0,.48,0,0.65h0a1.3,1.3,0,0,1,1.47-.72l0,0.7a1.1,1.1,0,0,0-1.43,1.19v2H49.34" transform="translate(-26.55 -152.55)"/><path class="c" d="M53.44,402.83a1.09,1.09,0,0,0,1.11-1.33c-0.83,0-1.9,0-1.9.73a0.65,0.65,0,0,0,.79.6m-1.56-.58c0-1.24,1.4-1.26,2.67-1.3a0.83,0.83,0,0,0-.95-0.95,1.6,1.6,0,0,0-1.09.45l-0.4-.49a2.26,2.26,0,0,1,1.57-.58,1.42,1.42,0,0,1,1.6,1.51,23.93,23.93,0,0,0,.06,2.44H54.65a2.56,2.56,0,0,1-.06-0.55h0a1.47,1.47,0,0,1-1.29.65A1.19,1.19,0,0,1,51.88,402.25Z" transform="translate(-26.55 -152.55)"/><path class="c" d="M56.55,403.33c0-1.28,0-2.61,0-3.84h0.72c0,0.16,0,.45,0,0.63h0a1.34,1.34,0,0,1,1.25-.74A1.36,1.36,0,0,1,60,401v2.38H59.22V401.2c0-.68-0.19-1.17-0.87-1.17a1.11,1.11,0,0,0-1,1.26v2H56.55" transform="translate(-26.55 -152.55)"/><path class="c" d="M63.07,400a1.36,1.36,0,0,0,0,2.71,1.35,1.35,0,0,0,0-2.71m2,3.12A1.92,1.92,0,0,1,63,405.28a2.81,2.81,0,0,1-1.88-.7l0.49-.59a2,2,0,0,0,1.4.62c1.1,0,1.47-.77,1.34-1.91a1.56,1.56,0,0,1-1.35.66,2,2,0,0,1,0-4,1.63,1.63,0,0,1,1.4.72V399.5h0.74v3.64Z" transform="translate(-26.55 -152.55)"/><path class="c" d="M69.78,399.5c0,1.28,0,2.61,0,3.84H69.09c0-.16,0-0.49,0-0.63a1.41,1.41,0,0,1-1.26.74,1.36,1.36,0,0,1-1.43-1.56V399.5h0.76v2.12c0,0.68.19,1.18,0.87,1.18a1.11,1.11,0,0,0,1-1.26v-2h0.76" transform="translate(-26.55 -152.55)"/><path class="c" d="M72.32,403.4a1,1,0,0,1-1.12-1.2v-2.08H70.47V399.5h0.74v-1.1H72v1.1h1v0.62H72v2c0,0.44.13,0.64,0.54,0.65a1.09,1.09,0,0,0,.45-0.1l0,0.62a1.94,1.94,0,0,1-.65.11" transform="translate(-26.55 -152.55)"/><path class="c" d="M75,402.83a1.09,1.09,0,0,0,1.11-1.33c-0.83,0-1.9,0-1.9.73a0.65,0.65,0,0,0,.79.6m-1.56-.58c0-1.24,1.4-1.26,2.67-1.3a0.83,0.83,0,0,0-.95-0.95,1.6,1.6,0,0,0-1.09.45l-0.4-.49a2.26,2.26,0,0,1,1.57-.58,1.42,1.42,0,0,1,1.6,1.51,23.93,23.93,0,0,0,.06,2.44H76.25a2.56,2.56,0,0,1-.06-0.55h0a1.47,1.47,0,0,1-1.29.65A1.19,1.19,0,0,1,73.48,402.25Z" transform="translate(-26.55 -152.55)"/><path class="c" d="M78.16,403.33c0-1.28,0-2.61,0-3.84h0.72c0,0.16,0,.45,0,0.63h0a1.34,1.34,0,0,1,1.25-.74A1.36,1.36,0,0,1,81.58,401v2.38H80.82V401.2c0-.68-0.19-1.17-0.87-1.17a1.11,1.11,0,0,0-1,1.26v2H78.16" transform="translate(-26.55 -152.55)"/><path class="e" d="M130.5,315v23.4a3.61,3.61,0,0,1-3.6,3.6H66.6a3.61,3.61,0,0,0-3.6,3.6V369" transform="translate(-26.55 -152.55)"/><polygon class="c" points="36.45 216.45 34.38 210.01 38.52 210.01 36.45 216.45"/><path class="c" d="M61.51,363L63,367.56,64.48,363h-3Zm2,6h-1l-2.2-6.88h5.4Z" transform="translate(-26.55 -152.55)"/><path class="e" d="M130.5,315v23.4a3.61,3.61,0,0,0,3.6,3.6h6.3a3.61,3.61,0,0,1,3.6,3.6V369" transform="translate(-26.55 -152.55)"/><polygon class="c" points="117.45 216.45 115.38 210.01 119.52 210.01 117.45 216.45"/><path class="c" d="M142.51,363l1.48,4.54,1.49-4.54h-3Zm2,6h-1l-2.21-6.88h5.4Z" transform="translate(-26.55 -152.55)"/><path class="e" d="M247.5,315v23.4a3.61,3.61,0,0,1-3.6,3.6H228.6a3.61,3.61,0,0,0-3.6,3.6V369" transform="translate(-26.55 -152.55)"/><polygon class="c" points="198.45 216.45 196.38 210.01 200.52 210.01 198.45 216.45"/><path class="c" d="M223.51,363l1.48,4.54,1.49-4.54h-3Zm2,6h-1l-2.21-6.88h5.4Z" transform="translate(-26.55 -152.55)"/><path class="e" d="M247.5,315v23.4a3.61,3.61,0,0,0,3.6,3.6h51.3a3.61,3.61,0,0,1,3.6,3.6V369" transform="translate(-26.55 -152.55)"/><polygon class="c" points="279.45 216.45 277.38 210.01 281.52 210.01 279.45 216.45"/><path class="c" d="M304.51,363l1.48,4.54,1.49-4.54h-3Zm2,6h-1l-2.2-6.88h5.4Z" transform="translate(-26.55 -152.55)"/><path class="e" d="M364.5,315v23.4a3.61,3.61,0,0,0,3.6,3.6h15.3a3.61,3.61,0,0,1,3.6,3.6V369" transform="translate(-26.55 -152.55)"/><polygon class="c" points="360.45 216.45 358.38 210.01 362.52 210.01 360.45 216.45"/><path class="c" d="M385.51,363l1.48,4.54,1.48-4.54h-3Zm2,6h-1l-2.2-6.88h5.4Z" transform="translate(-26.55 -152.55)"/><path class="e" d="M364.5,315v23.4a3.61,3.61,0,0,0,3.6,3.6h96.3a3.61,3.61,0,0,1,3.6,3.6V369" transform="translate(-26.55 -152.55)"/><polygon class="c" points="441.45 216.45 439.38 210.01 443.52 210.01 441.45 216.45"/><path class="c" d="M466.51,363l1.49,4.54,1.49-4.54h-3Zm2,6h-1l-2.21-6.88h5.4Z" transform="translate(-26.55 -152.55)"/><path class="e" d="M481.5,315v23.4a3.61,3.61,0,0,0,3.6,3.6h60.3a3.61,3.61,0,0,1,3.6,3.6V369" transform="translate(-26.55 -152.55)"/><polygon class="c" points="522.45 216.45 520.38 210.01 524.52 210.01 522.45 216.45"/><path class="c" d="M547.51,363l1.48,4.54,1.49-4.54h-3Zm2,6h-1l-2.21-6.88h5.4Z" transform="translate(-26.55 -152.55)"/></svg>