<svg xmlns="http://www.w3.org/2000/svg" viewBox="0 0 252.9 234.9"><defs><style>.a{fill:#d2e5b3;}.b,.d{fill:none;stroke-miterlimit:10;stroke-width:0.9px;}.b{stroke:#000;opacity:0;}.c{fill:#3d4752;}.d{stroke:#3d4752;}.e{fill:#d6d6d6;}</style></defs><title>network-model</title><rect class="a" x="90.45" y="0.45" width="72" height="54" rx="2.25" ry="2.25"/><rect class="b" x="90.45" y="0.45" width="72" height="54" rx="2.25" ry="2.25"/><polyline class="c" points="115.42 29.43 115.44 29.43 117.17 24.73 118.03 24.73 115.78 30.46 115.03 30.46 112.8 24.73 113.69 24.73"/><path class="c" d="M200.61,179.07c1.3,0,1.9.87,1.84,2.25h-3a1.2,1.2,0,0,0,1.25,1.17,1.28,1.28,0,0,0,1.12-.58l0.53,0.43a1.92,1.92,0,0,1-1.65.79,2,2,0,0,1,0-4m1.08,1.68a1.07,1.07,0,0,0-1.54-1,1.12,1.12,0,0,0-.75,1h2.28Z" transform="translate(-80.55 -152.55)"/><path class="c" d="M203.52,183c0-1.28,0-2.61,0-3.84h0.72c0,0.16,0,.45,0,0.63h0a1.34,1.34,0,0,1,1.25-.74,1.36,1.36,0,0,1,1.43,1.56V183h-0.76v-2.13c0-.68-0.19-1.17-0.87-1.17a1.11,1.11,0,0,0-1,1.26v2h-0.76" transform="translate(-80.55 -152.55)"/><path class="c" d="M210,179.7a1.39,1.39,0,0,0,0,2.78,1.39,1.39,0,0,0,0-2.78m-0.14-.63a1.7,1.7,0,0,1,1.39.68v-2.86h0.76V183h-0.74a3.73,3.73,0,0,0,0-.61,1.6,1.6,0,0,1-1.39.71,1.84,1.84,0,0,1-1.94-2A1.86,1.86,0,0,1,209.91,179.07Z" transform="translate(-80.55 -152.55)"/><path class="c" d="M215.19,182.48a1.39,1.39,0,1,0-1.28-1.39,1.24,1.24,0,0,0,1.28,1.39m0-3.41a2,2,0,1,1-2.07,2A1.9,1.9,0,0,1,215.19,179.07Z" transform="translate(-80.55 -152.55)"/><path class="c" d="M218.32,183c0-1.28,0-2.61,0-3.84H219c0,0.16,0,.48,0,0.65h0a1.3,1.3,0,0,1,1.47-.72l0,0.7a1.1,1.1,0,0,0-1.43,1.19v2h-0.76" transform="translate(-80.55 -152.55)"/><path class="d" d="M207,207v14.4a3.61,3.61,0,0,1-3.6,3.6H120.6a3.61,3.61,0,0,0-3.6,3.6V243" transform="translate(-80.55 -152.55)"/><polygon class="c" points="36.45 90.45 34.38 84.02 38.52 84.02 36.45 90.45"/><path class="c" d="M115.51,237l1.48,4.54,1.48-4.54h-3Zm2,6h-1l-2.2-6.88h5.4Z" transform="translate(-80.55 -152.55)"/><rect class="e" x="0.45" y="90.45" width="72" height="54" rx="2.25" ry="2.25"/><rect class="b" x="0.45" y="90.45" width="72" height="54" rx="2.25" ry="2.25"/><polyline class="c" points="19.14 119.75 22.14 119.75 22.14 120.11 22.14 120.47 18.34 120.47 18.34 117.6 18.34 114.73 22.01 114.73 22.01 115.08 22.01 115.44 19.14 115.44 19.14 116.29 19.14 117.15 21.84 117.15 21.84 117.5 21.84 117.84 19.14 117.84 19.14 118.8 19.14 119.75"/><path class="c" d="M104.46,269.81a1.34,1.34,0,0,1,1.22-.74,1.2,1.2,0,0,1,1.19.77,1.41,1.41,0,0,1,1.3-.77,1.36,1.36,0,0,1,1.43,1.56V273h-0.76v-2.13c0-.66-0.19-1.17-0.85-1.17-1.39,0-.87,2-1,3.3h-0.76v-2.28a0.83,0.83,0,0,0-.81-1,1.11,1.11,0,0,0-1,1.26v2h-0.76c0-1.28,0-2.61,0-3.84h0.72c0,0.16,0,.45,0,0.63h0" transform="translate(-80.55 -152.55)"/><path class="c" d="M112.91,272.48a1.39,1.39,0,0,0,0-2.78,1.39,1.39,0,0,0,0,2.78m0.13,0.64a1.59,1.59,0,0,1-1.35-.68h0V275H110.9v-5.78h0.75v0.6h0a1.54,1.54,0,0,1,1.39-.7A2,2,0,0,1,113,273.12Z" transform="translate(-80.55 -152.55)"/><polyline class="c" points="36.26 120.47 35.5 120.47 35.5 117.4 35.5 114.34 36.26 114.34 36.26 117.4 36.26 120.47"/><path class="c" d="M120,272.48a1.39,1.39,0,1,0-1.28-1.39,1.24,1.24,0,0,0,1.28,1.39m0-3.41a2,2,0,1,1-2.07,2A1.9,1.9,0,0,1,120,269.07Z" transform="translate(-80.55 -152.55)"/><path class="c" d="M123.35,269.18c0.41,1,.78,2,1.21,3l1.06-3h0.81l-1.86,4.75a1.4,1.4,0,0,1-1.83,1l0.07-.67a0.79,0.79,0,0,0,.83-0.1,4.73,4.73,0,0,0,.51-1.12l-1.64-3.84h0.85" transform="translate(-80.55 -152.55)"/><path class="c" d="M128.9,269.07c1.3,0,1.9.87,1.84,2.25h-3a1.2,1.2,0,0,0,1.25,1.17,1.28,1.28,0,0,0,1.12-.58l0.53,0.43a1.92,1.92,0,0,1-1.65.79,2,2,0,0,1,0-4m1.08,1.68a1.07,1.07,0,0,0-1.54-1,1.12,1.12,0,0,0-.75,1H130Z" transform="translate(-80.55 -152.55)"/><path class="c" d="M133.54,269.07c1.3,0,1.9.87,1.84,2.25h-3a1.2,1.2,0,0,0,1.25,1.17,1.28,1.28,0,0,0,1.12-.58l0.53,0.43a1.92,1.92,0,0,1-1.65.79,2,2,0,0,1,0-4m1.08,1.68a1.07,1.07,0,0,0-1.54-1,1.12,1.12,0,0,0-.75,1h2.28Z" transform="translate(-80.55 -152.55)"/><line class="d" x1="126.45" y1="54.45" x2="126.45" y2="90.45"/><polygon class="c" points="126.45 90.45 124.38 84.02 128.52 84.02 126.45 90.45"/><path class="c" d="M205.51,237l1.48,4.54,1.49-4.54h-3Zm2,6h-1l-2.21-6.88h5.4Z" transform="translate(-80.55 -152.55)"/><rect class="e" x="90.45" y="90.45" width="72" height="54" rx="2.25" ry="2.25"/><rect class="b" x="90.45" y="90.45" width="72" height="54" rx="2.25" ry="2.25"/><path class="c" d="M192.21,272.45a1.78,1.78,0,0,0,1.54-.76l0.64,0.44a2.57,2.57,0,0,1-2.19,1,2.87,2.87,0,0,1-2.79-1.8,3.44,3.44,0,0,1,0-2.45,3,3,0,0,1,3.42-1.73,2.23,2.23,0,0,1,1.47.83l-0.63.49a1.73,1.73,0,0,0-1.43-.67,2.1,2.1,0,0,0-2.18,2.3,2.06,2.06,0,0,0,2.15,2.31" transform="translate(-80.55 -152.55)"/><path class="c" d="M198.56,269.18c0,1.28,0,2.61,0,3.84h-0.72c0-.16,0-0.49,0-0.63a1.41,1.41,0,0,1-1.26.74,1.36,1.36,0,0,1-1.43-1.56v-2.38h0.76v2.12c0,0.68.19,1.18,0.87,1.18a1.11,1.11,0,0,0,1-1.26v-2h0.76" transform="translate(-80.55 -152.55)"/><path class="c" d="M199.74,270.7c-0.5-1.26.95-2,2.14-1.47a1.3,1.3,0,0,1,.6.47l-0.53.45a1,1,0,0,0-.89-0.48,0.58,0.58,0,0,0-.71.5c0,0.59.92,0.51,1.39,0.73a1.08,1.08,0,0,1,.78,1c0.06,1.56-2.45,1.51-3.08.55L200,272a1.24,1.24,0,0,0,1,.53,0.62,0.62,0,0,0,.76-0.56c0-.73-1.27-0.51-1.76-0.95a0.84,0.84,0,0,1-.26-0.3" transform="translate(-80.55 -152.55)"/><path class="c" d="M204.7,273.08a1,1,0,0,1-1.12-1.2V269.8h-0.74v-0.62h0.74v-1.1h0.75v1.1h1v0.62h-1v2c0,0.44.13,0.64,0.54,0.65a1.09,1.09,0,0,0,.45-0.1l0,0.62a1.94,1.94,0,0,1-.65.11" transform="translate(-80.55 -152.55)"/><path class="c" d="M208,272.48a1.39,1.39,0,1,0-1.28-1.39,1.24,1.24,0,0,0,1.28,1.39m0-3.41a2,2,0,1,1-2.07,2A1.9,1.9,0,0,1,208,269.07Z" transform="translate(-80.55 -152.55)"/><path class="c" d="M211.83,269.81a1.34,1.34,0,0,1,1.22-.74,1.2,1.2,0,0,1,1.19.77,1.41,1.41,0,0,1,1.3-.77,1.36,1.36,0,0,1,1.43,1.56V273h-0.76v-2.13c0-.66-0.19-1.17-0.85-1.17-1.39,0-.87,2-1,3.3h-0.76v-2.28a0.83,0.83,0,0,0-.81-1,1.11,1.11,0,0,0-1,1.26v2h-0.76c0-1.28,0-2.61,0-3.84h0.72c0,0.16,0,.45,0,0.63h0" transform="translate(-80.55 -152.55)"/><path class="c" d="M220,269.07c1.3,0,1.9.87,1.84,2.25h-3a1.2,1.2,0,0,0,1.25,1.17,1.28,1.28,0,0,0,1.12-.58l0.53,0.43a1.92,1.92,0,0,1-1.65.79,2,2,0,0,1,0-4m1.08,1.68a1.07,1.07,0,0,0-1.54-1,1.12,1.12,0,0,0-.75,1h2.28Z" transform="translate(-80.55 -152.55)"/><path class="c" d="M222.91,273c0-1.28,0-2.61,0-3.84h0.72c0,0.16,0,.48,0,0.65h0a1.3,1.3,0,0,1,1.47-.72l0,0.7a1.1,1.1,0,0,0-1.43,1.19v2h-0.76" transform="translate(-80.55 -152.55)"/><line class="d" x1="126.45" y1="144.45" x2="126.45" y2="180.45"/><polygon class="c" points="126.45 180.45 124.38 174.01 128.52 174.01 126.45 180.45"/><path class="c" d="M205.51,327l1.48,4.54,1.49-4.54h-3Zm2,6h-1l-2.21-6.88h5.4Z" transform="translate(-80.55 -152.55)"/><rect class="e" x="90.45" y="180.45" width="72" height="54" rx="2.25" ry="2.25"/><rect class="b" x="90.45" y="180.45" width="72" height="54" rx="2.25" ry="2.25"/><path class="c" d="M176.32,358.77c0-1.43,1.6-1.93,2.91-1.46a1.65,1.65,0,0,1,.7.48l-0.57.55a1.38,1.38,0,0,0-1.12-.53,1,1,0,0,0-1,1.32c0.45,0.66,1.61.61,2.21,1.12a1.44,1.44,0,0,1,.55,1.17c0,1.54-1.67,2.07-3,1.53a2,2,0,0,1-.83-0.62l0.62-.53a1.6,1.6,0,0,0,1.28.67,1,1,0,0,0,1-1.42c-0.4-.71-1.68-0.61-2.27-1.17a1.44,1.44,0,0,1-.47-1.12" transform="translate(-80.55 -152.55)"/><path class="c" d="M182.36,362.51a1.09,1.09,0,0,0,1.11-1.33c-0.83,0-1.9,0-1.9.73a0.65,0.65,0,0,0,.79.6m-1.56-.58c0-1.24,1.4-1.26,2.67-1.3a0.83,0.83,0,0,0-.95-0.95,1.6,1.6,0,0,0-1.09.45l-0.4-.49a2.26,2.26,0,0,1,1.57-.58,1.42,1.42,0,0,1,1.6,1.51,23.92,23.92,0,0,0,.06,2.44h-0.69a2.56,2.56,0,0,1-.06-0.55h0a1.47,1.47,0,0,1-1.29.65A1.19,1.19,0,0,1,180.8,361.93Z" transform="translate(-80.55 -152.55)"/><polyline class="c" points="105.7 210.47 104.94 210.47 104.94 207.4 104.94 204.34 105.7 204.34 105.7 207.4 105.7 210.47"/><path class="c" d="M189.31,359.07c1.3,0,1.9.87,1.84,2.25h-3a1.2,1.2,0,0,0,1.25,1.17,1.28,1.28,0,0,0,1.12-.58l0.53,0.43a1.92,1.92,0,0,1-1.65.79,2,2,0,0,1,0-4m1.08,1.68a1.07,1.07,0,0,0-1.54-1,1.12,1.12,0,0,0-.75,1h2.28Z" transform="translate(-80.55 -152.55)"/><path class="c" d="M192.08,360.7c-0.5-1.26.95-2,2.14-1.47a1.3,1.3,0,0,1,.6.47l-0.53.45a1,1,0,0,0-.89-0.48,0.58,0.58,0,0,0-.71.5c0,0.59.92,0.51,1.39,0.73a1.08,1.08,0,0,1,.78,1c0.06,1.56-2.45,1.51-3.08.55l0.54-.46a1.24,1.24,0,0,0,1,.53,0.62,0.62,0,0,0,.76-0.56c0-.73-1.27-0.51-1.76-0.95a0.84,0.84,0,0,1-.26-0.3" transform="translate(-80.55 -152.55)"/><path class="c" d="M199,363.08a1,1,0,0,1-1.12-1.2V359.8h-0.74v-0.62h0.74v-1.1h0.75v1.1h1v0.62h-1v2c0,0.44.13,0.64,0.54,0.65a1.09,1.09,0,0,0,.45-0.1l0,0.62a1.94,1.94,0,0,1-.65.11" transform="translate(-80.55 -152.55)"/><path class="c" d="M200.47,363c0-1.28,0-2.61,0-3.84h0.72c0,0.16,0,.48,0,0.65h0a1.3,1.3,0,0,1,1.47-.72l0,0.7a1.1,1.1,0,0,0-1.43,1.19v2h-0.76" transform="translate(-80.55 -152.55)"/><path class="c" d="M204.57,362.51a1.09,1.09,0,0,0,1.11-1.33c-0.83,0-1.9,0-1.9.73a0.65,0.65,0,0,0,.79.6m-1.56-.58c0-1.24,1.4-1.26,2.67-1.3a0.83,0.83,0,0,0-.95-0.95,1.6,1.6,0,0,0-1.09.45l-0.4-.49a2.26,2.26,0,0,1,1.57-.58,1.42,1.42,0,0,1,1.6,1.51,23.92,23.92,0,0,0,.06,2.44h-0.69a2.56,2.56,0,0,1-.06-0.55h0a1.47,1.47,0,0,1-1.29.65A1.19,1.19,0,0,1,203,361.93Z" transform="translate(-80.55 -152.55)"/><path class="c" d="M207.68,363c0-1.28,0-2.61,0-3.84h0.72c0,0.16,0,.45,0,0.63h0a1.34,1.34,0,0,1,1.25-.74,1.36,1.36,0,0,1,1.43,1.56V363h-0.76v-2.13c0-.68-0.19-1.17-0.87-1.17a1.11,1.11,0,0,0-1,1.26v2h-0.76" transform="translate(-80.55 -152.55)"/><path class="c" d="M212.26,360.7c-0.5-1.26.95-2,2.14-1.47a1.3,1.3,0,0,1,.6.47l-0.53.45a1,1,0,0,0-.89-0.48,0.58,0.58,0,0,0-.71.5c0,0.59.92,0.51,1.39,0.73a1.08,1.08,0,0,1,.78,1c0.06,1.56-2.45,1.51-3.08.55l0.54-.46a1.24,1.24,0,0,0,1,.53,0.62,0.62,0,0,0,.76-0.56c0-.73-1.27-0.51-1.76-0.95a0.84,0.84,0,0,1-.26-0.3" transform="translate(-80.55 -152.55)"/><path class="c" d="M217.27,362.51a1.09,1.09,0,0,0,1.11-1.33c-0.83,0-1.9,0-1.9.73a0.65,0.65,0,0,0,.79.6m-1.56-.58c0-1.24,1.4-1.26,2.67-1.3a0.83,0.83,0,0,0-.95-0.95,1.6,1.6,0,0,0-1.09.45l-0.4-.49a2.26,2.26,0,0,1,1.57-.58,1.42,1.42,0,0,1,1.6,1.51,23.92,23.92,0,0,0,.06,2.44h-0.69a2.56,2.56,0,0,1-.06-0.55h0a1.47,1.47,0,0,1-1.29.65A1.19,1.19,0,0,1,215.71,361.93Z" transform="translate(-80.55 -152.55)"/><path class="c" d="M220.13,361.1a1.88,1.88,0,0,1,2-2,1.82,1.82,0,0,1,1.44.63l-0.55.45a1.05,1.05,0,0,0-.88-0.44,1.39,1.39,0,0,0,0,2.77,1.1,1.1,0,0,0,.92-0.42l0.51,0.46a1.77,1.77,0,0,1-1.43.6,1.9,1.9,0,0,1-2.07-2" transform="translate(-80.55 -152.55)"/><path class="c" d="M225.61,363.08a1,1,0,0,1-1.12-1.2V359.8h-0.74v-0.62h0.74v-1.1h0.75v1.1h1v0.62h-1v2c0,0.44.13,0.64,0.54,0.65a1.09,1.09,0,0,0,.45-0.1l0,0.62a1.94,1.94,0,0,1-.65.11" transform="translate(-80.55 -152.55)"/><path class="c" d="M227.44,357.3a0.5,0.5,0,0,1,.51.49,0.51,0.51,0,1,1-.51-0.49m0.38,5.72h-0.76v-3.84h0.76V363Z" transform="translate(-80.55 -152.55)"/><path class="c" d="M231,362.48a1.39,1.39,0,1,0-1.28-1.39,1.24,1.24,0,0,0,1.28,1.39m0-3.41a2,2,0,1,1-2.07,2A1.9,1.9,0,0,1,231,359.07Z" transform="translate(-80.55 -152.55)"/><path class="c" d="M234.09,363c0-1.28,0-2.61,0-3.84h0.72c0,0.16,0,.45,0,0.63h0a1.34,1.34,0,0,1,1.25-.74,1.36,1.36,0,0,1,1.43,1.56V363h-0.76v-2.13c0-.68-0.19-1.17-0.87-1.17a1.11,1.11,0,0,0-1,1.26v2h-0.76" transform="translate(-80.55 -152.55)"/><path class="d" d="M117,297v14.4a3.61,3.61,0,0,0,3.6,3.6h82.8a3.61,3.61,0,0,1,3.6,3.6V333" transform="translate(-80.55 -152.55)"/><polygon class="c" points="126.45 180.45 124.38 174.01 128.52 174.01 126.45 180.45"/><path class="c" d="M205.51,327l1.48,4.54,1.49-4.54h-3Zm2,6h-1l-2.21-6.88h5.4Z" transform="translate(-80.55 -152.55)"/><rect class="e" x="180.45" y="90.45" width="72" height="54" rx="2.25" ry="2.25"/><rect class="b" x="180.45" y="90.45" width="72" height="54" rx="2.25" ry="2.25"/><path class="c" d="M286.33,268.88c0-1-1.15-.92-2.19-0.92v1.85c1,0,2.19.09,2.19-.94m0.81,0c0,1.51-1.39,1.69-3,1.62V273h-0.8v-5.73h1.75C286.28,267.3,287.14,267.69,287.14,268.88Z" transform="translate(-80.55 -152.55)"/><path class="c" d="M287.75,273c0-1.28,0-2.61,0-3.84h0.72c0,0.16,0,.48,0,0.65h0a1.3,1.3,0,0,1,1.47-.72l0,0.7a1.1,1.1,0,0,0-1.43,1.19v2h-0.76" transform="translate(-80.55 -152.55)"/><path class="c" d="M292.35,272.48a1.39,1.39,0,1,0-1.28-1.39,1.24,1.24,0,0,0,1.28,1.39m0-3.41a2,2,0,1,1-2.07,2A1.9,1.9,0,0,1,292.35,269.07Z" transform="translate(-80.55 -152.55)"/><path class="c" d="M297.28,269.7a1.39,1.39,0,0,0,0,2.78,1.39,1.39,0,0,0,0-2.78m-0.14-.63a1.7,1.7,0,0,1,1.39.68v-2.86h0.76V273h-0.74a3.73,3.73,0,0,0,0-.61,1.6,1.6,0,0,1-1.39.71,1.84,1.84,0,0,1-1.94-2A1.86,1.86,0,0,1,297.14,269.07Z" transform="translate(-80.55 -152.55)"/><path class="c" d="M304,269.18c0,1.28,0,2.61,0,3.84h-0.72c0-.16,0-0.49,0-0.63a1.41,1.41,0,0,1-1.26.74,1.36,1.36,0,0,1-1.43-1.56v-2.38h0.76v2.12c0,0.68.19,1.18,0.87,1.18a1.11,1.11,0,0,0,1-1.26v-2H304" transform="translate(-80.55 -152.55)"/><path class="c" d="M305.08,271.1a1.88,1.88,0,0,1,2-2,1.82,1.82,0,0,1,1.44.63l-0.55.45a1.05,1.05,0,0,0-.88-0.44,1.39,1.39,0,0,0,0,2.77,1.1,1.1,0,0,0,.92-0.42l0.51,0.46a1.77,1.77,0,0,1-1.43.6,1.9,1.9,0,0,1-2.07-2" transform="translate(-80.55 -152.55)"/><path class="c" d="M310.56,273.08a1,1,0,0,1-1.12-1.2V269.8H308.7v-0.62h0.74v-1.1h0.75v1.1h1v0.62h-1v2c0,0.44.13,0.64,0.54,0.65a1.09,1.09,0,0,0,.45-0.1l0,0.62a1.94,1.94,0,0,1-.65.11" transform="translate(-80.55 -152.55)"/><path class="d" d="M207,207v14.4a3.61,3.61,0,0,0,3.6,3.6h82.8a3.61,3.61,0,0,1,3.6,3.6V243" transform="translate(-80.55 -152.55)"/><polygon class="c" points="216.45 90.45 214.38 84.02 218.52 84.02 216.45 90.45"/><path class="c" d="M295.51,237l1.48,4.54,1.49-4.54h-3Zm2,6h-1l-2.2-6.88h5.4Z" transform="translate(-80.55 -152.55)"/><path class="d" d="M297,297v14.4a3.61,3.61,0,0,1-3.6,3.6H210.6a3.61,3.61,0,0,0-3.6,3.6V333" transform="translate(-80.55 -152.55)"/><polygon class="c" points="126.45 180.45 124.38 174.01 128.52 174.01 126.45 180.45"/><path class="c" d="M205.51,327l1.48,4.54,1.49-4.54h-3Zm2,6h-1l-2.21-6.88h5.4Z" transform="translate(-80.55 -152.55)"/></svg>