<svg xmlns="http://www.w3.org/2000/svg" viewBox="0 0 221.4 261.54"><defs><style>.a{opacity:0;}.b{fill:none;stroke:#3d4752;stroke-miterlimit:10;stroke-width:0.9px;}.c{fill:#3d4752;}</style></defs><title>object-oriented-model</title><rect class="a" x="22.95" y="27.09" width="85.5" height="18"/><rect class="a" x="108.45" y="27.09" width="22.5" height="18"/><rect class="a" x="22.95" y="45.09" width="85.5" height="18"/><rect class="a" x="108.45" y="45.09" width="22.5" height="18"/><rect class="a" x="22.95" y="63.09" width="85.5" height="18"/><rect class="a" x="108.45" y="63.09" width="22.5" height="18"/><rect class="a" x="22.95" y="81.09" width="85.5" height="18"/><rect class="a" x="108.45" y="81.09" width="22.5" height="18"/><rect class="b" x="22.95" y="27.09" width="108" height="72"/><rect class="b" x="22.95" y="27.09" width="85.5" height="18"/><rect class="b" x="108.45" y="27.09" width="22.5" height="18"/><rect class="b" x="22.95" y="45.09" width="85.5" height="18"/><rect class="b" x="108.45" y="45.09" width="22.5" height="18"/><rect class="b" x="22.95" y="63.09" width="85.5" height="18"/><rect class="b" x="108.45" y="63.09" width="22.5" height="18"/><rect class="b" x="22.95" y="81.09" width="85.5" height="18"/><rect class="b" x="108.45" y="81.09" width="22.5" height="18"/><path class="c" d="M250.75,104.83c0.58,1.47,1.13,3,1.73,4.41l1.69-4.41h1.25v5.73h-0.8c0-1.6,0-3.23,0-4.8l-1.9,4.8h-0.51c-0.64-1.6-1.25-3.22-1.91-4.8v4.8H249.5v-5.73h1.25" transform="translate(-195.3 -71.91)"/><path class="c" d="M258.59,110a1.39,1.39,0,1,0-1.28-1.39,1.24,1.24,0,0,0,1.28,1.39m0-3.41a2,2,0,1,1-2.07,2A1.9,1.9,0,0,1,258.59,106.62Z" transform="translate(-195.3 -71.91)"/><path class="c" d="M261.72,110.57c0-1.28,0-2.61,0-3.84h0.72c0,0.16,0,.45,0,0.63h0a1.34,1.34,0,0,1,1.25-.74,1.36,1.36,0,0,1,1.43,1.56v2.38h-0.76v-2.13c0-.68-0.19-1.17-0.87-1.17a1.11,1.11,0,0,0-1,1.26v2h-0.76" transform="translate(-195.3 -71.91)"/><path class="c" d="M267.65,110.63a1,1,0,0,1-1.12-1.2v-2.08H265.8v-0.62h0.74v-1.1h0.75v1.1h1v0.62h-1v2c0,0.44.13,0.64,0.54,0.65a1.09,1.09,0,0,0,.45-0.1l0,0.62a1.94,1.94,0,0,1-.65.11" transform="translate(-195.3 -71.91)"/><path class="c" d="M270.91,107.27a1.12,1.12,0,0,0-1,1.26v2h-0.76v-6.12h0.76c0,0.95,0,1.94,0,2.87a1.35,1.35,0,0,1,1.21-.69,1.37,1.37,0,0,1,1.43,1.56v2.38h-0.76v-2.12c0-.67-0.19-1.17-0.87-1.17" transform="translate(-195.3 -71.91)"/><path class="c" d="M239.94,124.43c0-1-1.15-.92-2.19-0.92v1.85c1,0,2.19.09,2.19-.94m0.81,0c0,1.51-1.39,1.69-3,1.62v2.52h-0.8v-5.73h1.75C239.89,122.85,240.75,123.24,240.75,124.43Z" transform="translate(-195.3 -71.91)"/><path class="c" d="M241.35,128.57c0-1.28,0-2.61,0-3.84H242c0,0.16,0,.48,0,0.65h0a1.3,1.3,0,0,1,1.47-.72l0,0.7a1.1,1.1,0,0,0-1.43,1.19v2h-0.76" transform="translate(-195.3 -71.91)"/><path class="c" d="M246,128a1.39,1.39,0,1,0-1.28-1.39A1.24,1.24,0,0,0,246,128m0-3.41a2,2,0,1,1-2.07,2A1.9,1.9,0,0,1,246,124.62Z" transform="translate(-195.3 -71.91)"/><path class="c" d="M250.89,125.25a1.39,1.39,0,0,0,0,2.78,1.39,1.39,0,0,0,0-2.78m-0.14-.63a1.7,1.7,0,0,1,1.39.68v-2.86h0.76v6.12h-0.74a3.73,3.73,0,0,0,0-.61,1.6,1.6,0,0,1-1.39.71,1.84,1.84,0,0,1-1.94-2A1.86,1.86,0,0,1,250.75,124.62Z" transform="translate(-195.3 -71.91)"/><path class="c" d="M257.62,124.73c0,1.28,0,2.61,0,3.84h-0.72c0-.16,0-0.49,0-0.63a1.41,1.41,0,0,1-1.26.74,1.36,1.36,0,0,1-1.43-1.56v-2.38H255v2.12c0,0.68.19,1.18,0.87,1.18a1.11,1.11,0,0,0,1-1.26v-2h0.76" transform="translate(-195.3 -71.91)"/><path class="c" d="M258.69,126.65a1.88,1.88,0,0,1,2-2,1.82,1.82,0,0,1,1.44.63l-0.55.45a1.05,1.05,0,0,0-.88-0.44,1.39,1.39,0,0,0,0,2.77,1.1,1.1,0,0,0,.92-0.42l0.51,0.46a1.77,1.77,0,0,1-1.43.6,1.9,1.9,0,0,1-2.07-2" transform="translate(-195.3 -71.91)"/><path class="c" d="M264.16,128.63a1,1,0,0,1-1.12-1.2v-2.08h-0.74v-0.62H263v-1.1h0.75v1.1h1v0.62h-1v2c0,0.44.13,0.64,0.54,0.65a1.09,1.09,0,0,0,.45-0.1l0,0.62a1.94,1.94,0,0,1-.65.11" transform="translate(-195.3 -71.91)"/><path class="c" d="M267.39,126.65a1.88,1.88,0,0,1,2-2,1.82,1.82,0,0,1,1.44.63l-0.55.45a1.05,1.05,0,0,0-.88-0.44,1.39,1.39,0,0,0,0,2.77,1.1,1.1,0,0,0,.92-0.42l0.51,0.46a1.77,1.77,0,0,1-1.43.6,1.9,1.9,0,0,1-2.07-2" transform="translate(-195.3 -71.91)"/><path class="c" d="M273.46,128a1.39,1.39,0,1,0-1.28-1.39,1.24,1.24,0,0,0,1.28,1.39m0-3.41a2,2,0,1,1-2.07,2A1.9,1.9,0,0,1,273.46,124.62Z" transform="translate(-195.3 -71.91)"/><path class="c" d="M278.39,125.25a1.39,1.39,0,0,0,0,2.78,1.39,1.39,0,0,0,0-2.78m-0.14-.63a1.7,1.7,0,0,1,1.39.68v-2.86h0.76v6.12h-0.74a3.73,3.73,0,0,0,0-.61,1.6,1.6,0,0,1-1.39.71,1.84,1.84,0,0,1-1.94-2A1.86,1.86,0,0,1,278.25,124.62Z" transform="translate(-195.3 -71.91)"/><path class="c" d="M283.46,124.62c1.3,0,1.9.87,1.84,2.25h-3A1.2,1.2,0,0,0,283.5,128a1.28,1.28,0,0,0,1.12-.58l0.53,0.43a1.92,1.92,0,0,1-1.65.79,2,2,0,0,1,0-4m1.08,1.68a1.07,1.07,0,0,0-1.54-1,1.12,1.12,0,0,0-.75,1h2.28Z" transform="translate(-195.3 -71.91)"/><polyline class="c" points="54.66 73.62 54.69 73.62 56.41 68.92 57.28 68.92 55.03 74.66 54.28 74.66 52.05 68.92 52.94 68.92"/><path class="c" d="M254.61,142.62c1.3,0,1.9.87,1.84,2.25h-3a1.2,1.2,0,0,0,1.25,1.17,1.28,1.28,0,0,0,1.12-.58l0.53,0.43a1.92,1.92,0,0,1-1.65.79,2,2,0,0,1,0-4m1.08,1.68a1.07,1.07,0,0,0-1.54-1,1.12,1.12,0,0,0-.75,1h2.28Z" transform="translate(-195.3 -71.91)"/><path class="c" d="M257.52,146.57c0-1.28,0-2.61,0-3.84h0.72c0,0.16,0,.45,0,0.63h0a1.34,1.34,0,0,1,1.25-.74,1.36,1.36,0,0,1,1.43,1.56v2.38h-0.76v-2.13c0-.68-0.19-1.17-0.87-1.17a1.11,1.11,0,0,0-1,1.26v2h-0.76" transform="translate(-195.3 -71.91)"/><path class="c" d="M264,143.25a1.39,1.39,0,0,0,0,2.78,1.39,1.39,0,0,0,0-2.78m-0.14-.63a1.7,1.7,0,0,1,1.39.68v-2.86h0.76v6.12h-0.74a3.73,3.73,0,0,0,0-.61,1.6,1.6,0,0,1-1.39.71,1.84,1.84,0,0,1-1.94-2A1.86,1.86,0,0,1,263.91,142.62Z" transform="translate(-195.3 -71.91)"/><path class="c" d="M269.19,146a1.39,1.39,0,1,0-1.28-1.39,1.24,1.24,0,0,0,1.28,1.39m0-3.41a2,2,0,1,1-2.07,2A1.9,1.9,0,0,1,269.19,142.62Z" transform="translate(-195.3 -71.91)"/><path class="c" d="M272.32,146.57c0-1.28,0-2.61,0-3.84H273c0,0.16,0,.48,0,0.65h0a1.3,1.3,0,0,1,1.47-.72l0,0.7a1.1,1.1,0,0,0-1.43,1.19v2h-0.76" transform="translate(-195.3 -71.91)"/><path class="c" d="M248.57,160.42c0-1-1.21-.91-2.27-0.91v1.83c1.06,0,2.27.11,2.27-.92m0.81,0a1.53,1.53,0,0,1-1.39,1.51l1.6,2.63h-1L247.16,162H246.3v2.55h-0.8v-5.73C247.32,158.82,249.38,158.58,249.38,160.42Z" transform="translate(-195.3 -71.91)"/><path class="c" d="M252.07,160.62c1.3,0,1.9.87,1.84,2.25h-3a1.2,1.2,0,0,0,1.25,1.17,1.28,1.28,0,0,0,1.12-.58l0.53,0.43a1.92,1.92,0,0,1-1.65.79,2,2,0,0,1,0-4m1.08,1.68a1.07,1.07,0,0,0-1.54-1,1.12,1.12,0,0,0-.75,1h2.28Z" transform="translate(-195.3 -71.91)"/><path class="c" d="M256.78,164.57H256l-1.56-3.84h0.84c0.38,1,.74,2,1.14,3l1.13-3h0.81" transform="translate(-195.3 -71.91)"/><path class="c" d="M260.79,160.62c1.3,0,1.9.87,1.84,2.25h-3a1.2,1.2,0,0,0,1.25,1.17,1.28,1.28,0,0,0,1.12-.58l0.53,0.43a1.92,1.92,0,0,1-1.65.79,2,2,0,0,1,0-4m1.08,1.68a1.07,1.07,0,0,0-1.54-1,1.12,1.12,0,0,0-.75,1h2.28Z" transform="translate(-195.3 -71.91)"/><path class="c" d="M263.7,164.57c0-1.28,0-2.61,0-3.84h0.72c0,0.16,0,.45,0,0.63h0a1.34,1.34,0,0,1,1.25-.74,1.36,1.36,0,0,1,1.43,1.56v2.38h-0.76v-2.13c0-.68-0.19-1.17-0.87-1.17a1.11,1.11,0,0,0-1,1.26v2H263.7" transform="translate(-195.3 -71.91)"/><path class="c" d="M271.81,160.73c0,1.28,0,2.61,0,3.84h-0.72c0-.16,0-0.49,0-0.63a1.41,1.41,0,0,1-1.26.74,1.36,1.36,0,0,1-1.43-1.56v-2.38h0.76v2.12c0,0.68.19,1.18,0.87,1.18a1.11,1.11,0,0,0,1-1.26v-2h0.76" transform="translate(-195.3 -71.91)"/><path class="c" d="M274.86,160.62c1.3,0,1.9.87,1.84,2.25h-3A1.2,1.2,0,0,0,274.9,164a1.28,1.28,0,0,0,1.12-.58l0.53,0.43a1.92,1.92,0,0,1-1.65.79,2,2,0,0,1,0-4m1.08,1.68a1.07,1.07,0,0,0-1.54-1,1.12,1.12,0,0,0-.75,1h2.28Z" transform="translate(-195.3 -71.91)"/><rect class="a" x="157.95" y="27.09" width="63" height="18"/><rect class="a" x="157.95" y="45.09" width="63" height="18"/><rect class="a" x="157.95" y="63.09" width="63" height="18"/><rect class="a" x="157.95" y="81.09" width="63" height="18"/><rect class="b" x="157.95" y="27.09" width="63" height="72"/><rect class="b" x="157.95" y="27.09" width="63" height="18"/><rect class="b" x="157.95" y="45.09" width="63" height="18"/><rect class="b" x="157.95" y="63.09" width="63" height="18"/><rect class="b" x="157.95" y="81.09" width="63" height="18"/><path class="c" d="M370.68,105.58a0.85,0.85,0,0,0-1.15,0c-0.68.71-.72,2.57-0.36,3.66a1,1,0,0,0,.94.81c1.21,0,1.21-1.83,1.1-3.13a2.3,2.3,0,0,0-.53-1.34m-2.41,3.3c-0.32-1.88,0-4.2,1.85-4.2,1.53,0,2,1.43,2,3a3.17,3.17,0,0,1-1.08,2.78,1.79,1.79,0,0,1-1.76,0A2.3,2.3,0,0,1,368.26,108.88Z" transform="translate(-195.3 -71.91)"/><polyline class="c" points="180.28 38.66 179.5 38.66 179.5 36.27 179.5 33.88 178.41 34.79 177.95 34.24 179.58 32.92 180.28 32.92 180.28 35.79 180.28 38.66"/><polyline class="c" points="184.27 37.01 182.39 37.01 182.39 36.68 182.39 36.36 184.27 36.36 184.27 36.68 184.27 37.01"/><polyline class="c" points="187.7 38.66 186.91 38.66 186.91 36.27 186.91 33.88 185.82 34.79 185.36 34.24 186.99 32.92 187.7 32.92 187.7 35.79 187.7 38.66"/><path class="c" d="M386.81,107.56a2.89,2.89,0,0,0-1.27.32l0.08-3h3.09v0.7h-2.37l0,1.51c1.4-.36,2.69.3,2.66,1.7a2,2,0,0,1-3.83.83l0.71-.28A1.18,1.18,0,0,0,387,110a1.13,1.13,0,0,0,1.2-1.23,1.19,1.19,0,0,0-1.34-1.26" transform="translate(-195.3 -71.91)"/><polyline class="c" points="196.5 37.01 194.62 37.01 194.62 36.68 194.62 36.36 196.5 36.36 196.5 36.68 196.5 37.01"/><polyline class="c" points="199.93 38.66 199.14 38.66 199.14 36.27 199.14 33.88 198.06 34.79 197.59 34.24 199.22 32.92 199.93 32.92 199.93 35.79 199.93 38.66"/><path class="c" d="M399.39,107.62a1.11,1.11,0,0,0-1.2,1.21,1.19,1.19,0,1,0,2.37,0,1.09,1.09,0,0,0-1.17-1.2m0,3.09a1.8,1.8,0,0,1-2-1.89,2.73,2.73,0,0,1,.56-1.63l1.5-2.37h0.93l-1.54,2.31v0a1.45,1.45,0,0,1,.71-0.15,1.7,1.7,0,0,1,1.79,1.8A1.8,1.8,0,0,1,399.38,110.71Z" transform="translate(-195.3 -71.91)"/><path class="c" d="M382,125.56a2.89,2.89,0,0,0-1.27.32l0.08-3h3.09v0.7h-2.37l0,1.51c1.4-.36,2.69.3,2.66,1.7a2,2,0,0,1-3.83.83l0.71-.28a1.18,1.18,0,0,0,1.12.77,1.13,1.13,0,0,0,1.2-1.23,1.19,1.19,0,0,0-1.34-1.26" transform="translate(-195.3 -71.91)"/><path class="c" d="M387.6,126.6c0-1,0-2,0-2.88l-1.81,2.88h1.83m0.76,0h0.83v0.67h-0.83v1.29H387.6v-1.29H385v-0.71l2.44-3.73h1v3.77Z" transform="translate(-195.3 -71.91)"/><polyline class="c" points="176.72 74.66 175.94 74.66 175.94 72.27 175.94 69.88 174.85 70.79 174.39 70.24 176.02 68.92 176.72 68.92 176.72 71.79 176.72 74.66"/><path class="c" d="M375.84,143.56a2.89,2.89,0,0,0-1.27.32l0.08-3h3.09v0.7h-2.37l0,1.51c1.4-.36,2.69.3,2.66,1.7a2,2,0,0,1-3.83.83l0.71-.28A1.18,1.18,0,0,0,376,146a1.13,1.13,0,0,0,1.2-1.23,1.19,1.19,0,0,0-1.34-1.26" transform="translate(-195.3 -71.91)"/><path class="c" d="M381.49,144.6c0-1,0-2,0-2.88l-1.81,2.88h1.83m0.76,0h0.83v0.67h-0.83v1.29h-0.76v-1.29h-2.64v-0.71l2.44-3.73h1v3.77Z" transform="translate(-195.3 -71.91)"/><polyline class="c" points="190.35 73.01 188.47 73.01 188.47 72.68 188.47 72.36 190.35 72.36 190.35 72.68 190.35 73.01"/><path class="c" d="M388.39,140.68a1.63,1.63,0,0,1,1.74,2.14,2.64,2.64,0,0,1-.85,1.22l-1.86,1.81h2.81v0.7h-3.74v-0.75l2.28-2.27a1.75,1.75,0,0,0,.63-1.22,0.94,0.94,0,0,0-1-1,1.08,1.08,0,0,0-1.08,1l-0.77-.13a1.76,1.76,0,0,1,1.85-1.52" transform="translate(-195.3 -71.91)"/><path class="c" d="M394.24,145c0-.87-0.77-1.09-1.68-1.06v-0.65c0.85,0,1.53-.15,1.53-1a0.92,0.92,0,0,0-1-.95,1,1,0,0,0-1,.7l-0.71-.25a1.81,1.81,0,0,1,1.75-1.11,1.53,1.53,0,0,1,1.77,1.56,1.34,1.34,0,0,1-1,1.32A1.36,1.36,0,0,1,395,145a1.7,1.7,0,0,1-1.92,1.75,1.89,1.89,0,0,1-2-1.26l0.73-.24a1.21,1.21,0,0,0,1.21.84,1,1,0,0,0,1.15-1.09" transform="translate(-195.3 -71.91)"/><path class="c" d="M398.54,144.6c0-1,0-2,0-2.88l-1.81,2.88h1.83m0.76,0h0.83v0.67H399.3v1.29h-0.76v-1.29H395.9v-0.71l2.44-3.73h1v3.77Z" transform="translate(-195.3 -71.91)"/><path class="c" d="M377.21,159.37a0.87,0.87,0,0,0-.86.89,1,1,0,0,0,.86.92v-1.81m0.41,4.63a0.9,0.9,0,0,0,.91-1,1.08,1.08,0,0,0-.91-1V164Zm1.68-1a1.57,1.57,0,0,1-1.68,1.63v0.58h-0.41v-0.58a2.5,2.5,0,0,1-1.81-.8l0.59-.5a1.62,1.62,0,0,0,1.22.66v-2.06c-0.83-.25-1.63-0.58-1.63-1.64a1.56,1.56,0,0,1,1.63-1.57v-0.57h0.41v0.56a2.36,2.36,0,0,1,1.6.62l-0.55.51a1.4,1.4,0,0,0-1-.49v1.93C378.46,161.59,379.31,161.92,379.31,163Z" transform="translate(-195.3 -71.91)"/><path class="c" d="M382.31,161.88a1.09,1.09,0,1,0,1.12,1.09,1,1,0,0,0-1.12-1.09m0-2.54a0.94,0.94,0,1,0,0,1.87A0.94,0.94,0,1,0,382.31,159.33Zm1.72,0.9a1.36,1.36,0,0,1-.88,1.31,1.43,1.43,0,0,1,1.09,1.46,1.94,1.94,0,0,1-3.85,0,1.44,1.44,0,0,1,1.09-1.46h0a1.29,1.29,0,0,1-.88-1.28A1.73,1.73,0,0,1,384,160.23Z" transform="translate(-195.3 -71.91)"/><path class="c" d="M387.13,161.88a1.09,1.09,0,1,0,1.12,1.09,1,1,0,0,0-1.12-1.09m0-2.54a0.94,0.94,0,1,0,0,1.87A0.94,0.94,0,1,0,387.13,159.33Zm1.72,0.9a1.36,1.36,0,0,1-.88,1.31A1.43,1.43,0,0,1,389,163a1.94,1.94,0,0,1-3.85,0,1.44,1.44,0,0,1,1.09-1.46h0a1.29,1.29,0,0,1-.88-1.28A1.73,1.73,0,0,1,388.85,160.23Z" transform="translate(-195.3 -71.91)"/><polyline class="c" points="198.41 87.64 196.1 92.66 195.21 92.66 197.59 87.62 194.75 87.62 194.75 87.27 194.75 86.92 198.41 86.92 198.41 87.28 198.41 87.64"/><rect class="a" x="112.95" y="153.09" width="85.5" height="18"/><rect class="a" x="198.45" y="153.09" width="22.5" height="18"/><rect class="a" x="112.95" y="171.09" width="85.5" height="18"/><rect class="a" x="198.45" y="171.09" width="22.5" height="18"/><rect class="a" x="112.95" y="189.09" width="85.5" height="18"/><rect class="a" x="198.45" y="189.09" width="22.5" height="18"/><rect class="a" x="112.95" y="207.09" width="85.5" height="18"/><rect class="a" x="198.45" y="207.09" width="22.5" height="18"/><rect class="a" x="112.95" y="225.09" width="85.5" height="18"/><rect class="a" x="198.45" y="225.09" width="22.5" height="18"/><rect class="a" x="112.95" y="243.09" width="85.5" height="18"/><rect class="a" x="198.45" y="243.09" width="22.5" height="18"/><rect class="b" x="112.95" y="153.09" width="108" height="108"/><rect class="b" x="112.95" y="153.09" width="85.5" height="18"/><rect class="b" x="198.45" y="153.09" width="22.5" height="18"/><rect class="b" x="112.95" y="171.09" width="85.5" height="18"/><rect class="b" x="198.45" y="171.09" width="22.5" height="18"/><rect class="b" x="112.95" y="189.09" width="85.5" height="18"/><rect class="b" x="198.45" y="189.09" width="22.5" height="18"/><rect class="b" x="112.95" y="207.09" width="85.5" height="18"/><rect class="b" x="198.45" y="207.09" width="22.5" height="18"/><rect class="b" x="112.95" y="225.09" width="85.5" height="18"/><rect class="b" x="198.45" y="225.09" width="22.5" height="18"/><rect class="b" x="112.95" y="243.09" width="85.5" height="18"/><rect class="b" x="198.45" y="243.09" width="22.5" height="18"/><path class="c" d="M336.21,236a1.78,1.78,0,0,0,1.54-.76l0.64,0.44a2.57,2.57,0,0,1-2.19,1,2.87,2.87,0,0,1-2.79-1.8,3.44,3.44,0,0,1,0-2.45,3,3,0,0,1,3.42-1.73,2.23,2.23,0,0,1,1.47.83l-0.63.49a1.73,1.73,0,0,0-1.43-.67,2.1,2.1,0,0,0-2.18,2.3,2.06,2.06,0,0,0,2.15,2.31" transform="translate(-195.3 -71.91)"/><path class="c" d="M342.56,232.73c0,1.28,0,2.61,0,3.84h-0.72c0-.16,0-0.49,0-0.63a1.41,1.41,0,0,1-1.26.74,1.36,1.36,0,0,1-1.43-1.56v-2.38h0.76v2.12c0,0.68.19,1.18,0.87,1.18a1.11,1.11,0,0,0,1-1.26v-2h0.76" transform="translate(-195.3 -71.91)"/><path class="c" d="M343.74,234.25c-0.5-1.26.95-2,2.14-1.47a1.3,1.3,0,0,1,.6.47l-0.53.45a1,1,0,0,0-.89-0.48,0.58,0.58,0,0,0-.71.5c0,0.59.92,0.51,1.39,0.73a1.08,1.08,0,0,1,.78,1c0.06,1.56-2.45,1.51-3.08.55l0.54-.46a1.24,1.24,0,0,0,1,.53,0.62,0.62,0,0,0,.76-0.56c0-.73-1.27-0.51-1.76-0.95a0.84,0.84,0,0,1-.26-0.3" transform="translate(-195.3 -71.91)"/><path class="c" d="M348.7,236.63a1,1,0,0,1-1.12-1.2v-2.08h-0.74v-0.62h0.74v-1.1h0.75v1.1h1v0.62h-1v2c0,0.44.13,0.64,0.54,0.65a1.09,1.09,0,0,0,.45-0.1l0,0.62a1.94,1.94,0,0,1-.65.11" transform="translate(-195.3 -71.91)"/><path class="c" d="M352,236a1.39,1.39,0,1,0-1.28-1.39A1.24,1.24,0,0,0,352,236m0-3.41a2,2,0,1,1-2.07,2A1.9,1.9,0,0,1,352,232.62Z" transform="translate(-195.3 -71.91)"/><path class="c" d="M355.83,233.36a1.34,1.34,0,0,1,1.22-.74,1.2,1.2,0,0,1,1.19.77,1.41,1.41,0,0,1,1.3-.77,1.36,1.36,0,0,1,1.43,1.56v2.38h-0.76v-2.13c0-.66-0.19-1.17-0.85-1.17-1.39,0-.87,2-1,3.3h-0.76v-2.28a0.83,0.83,0,0,0-.81-1,1.11,1.11,0,0,0-1,1.26v2h-0.76c0-1.28,0-2.61,0-3.84h0.72c0,0.16,0,.45,0,0.63h0" transform="translate(-195.3 -71.91)"/><path class="c" d="M364,232.62c1.3,0,1.9.87,1.84,2.25h-3A1.2,1.2,0,0,0,364,236a1.28,1.28,0,0,0,1.12-.58l0.53,0.43a1.92,1.92,0,0,1-1.65.79,2,2,0,0,1,0-4m1.08,1.68a1.07,1.07,0,0,0-1.54-1,1.12,1.12,0,0,0-.75,1h2.28Z" transform="translate(-195.3 -71.91)"/><path class="c" d="M366.91,236.57c0-1.28,0-2.61,0-3.84h0.72c0,0.16,0,.48,0,0.65h0a1.3,1.3,0,0,1,1.47-.72l0,0.7a1.1,1.1,0,0,0-1.43,1.19v2h-0.76" transform="translate(-195.3 -71.91)"/><path class="c" d="M329.94,250.43c0-1-1.15-.92-2.19-0.92v1.85c1,0,2.19.09,2.19-.94m0.81,0c0,1.51-1.39,1.69-3,1.62v2.52h-0.8v-5.73h1.75C329.89,248.85,330.75,249.24,330.75,250.43Z" transform="translate(-195.3 -71.91)"/><path class="c" d="M331.35,254.57c0-1.28,0-2.61,0-3.84H332c0,0.16,0,.48,0,0.65h0a1.3,1.3,0,0,1,1.47-.72l0,0.7a1.1,1.1,0,0,0-1.43,1.19v2h-0.76" transform="translate(-195.3 -71.91)"/><path class="c" d="M336,254a1.39,1.39,0,1,0-1.28-1.39A1.24,1.24,0,0,0,336,254m0-3.41a2,2,0,1,1-2.07,2A1.9,1.9,0,0,1,336,250.62Z" transform="translate(-195.3 -71.91)"/><path class="c" d="M340.89,251.25a1.39,1.39,0,0,0,0,2.78,1.39,1.39,0,0,0,0-2.78m-0.14-.63a1.7,1.7,0,0,1,1.39.68v-2.86h0.76v6.12h-0.74a3.73,3.73,0,0,0,0-.61,1.6,1.6,0,0,1-1.39.71,1.84,1.84,0,0,1-1.94-2A1.86,1.86,0,0,1,340.75,250.62Z" transform="translate(-195.3 -71.91)"/><path class="c" d="M347.62,250.73c0,1.28,0,2.61,0,3.84h-0.72c0-.16,0-0.49,0-0.63a1.41,1.41,0,0,1-1.26.74,1.36,1.36,0,0,1-1.43-1.56v-2.38H345v2.12c0,0.68.19,1.18,0.87,1.18a1.11,1.11,0,0,0,1-1.26v-2h0.76" transform="translate(-195.3 -71.91)"/><path class="c" d="M348.69,252.65a1.88,1.88,0,0,1,2-2,1.82,1.82,0,0,1,1.44.63l-0.55.45a1.05,1.05,0,0,0-.88-0.44,1.39,1.39,0,0,0,0,2.77,1.1,1.1,0,0,0,.92-0.42l0.51,0.46a1.77,1.77,0,0,1-1.43.6,1.9,1.9,0,0,1-2.07-2" transform="translate(-195.3 -71.91)"/><path class="c" d="M354.16,254.63a1,1,0,0,1-1.12-1.2v-2.08h-0.74v-0.62H353v-1.1h0.75v1.1h1v0.62h-1v2c0,0.44.13,0.64,0.54,0.65a1.09,1.09,0,0,0,.45-0.1l0,0.62a1.94,1.94,0,0,1-.65.11" transform="translate(-195.3 -71.91)"/><path class="c" d="M357.39,252.65a1.88,1.88,0,0,1,2-2,1.82,1.82,0,0,1,1.44.63l-0.55.45a1.05,1.05,0,0,0-.88-0.44,1.39,1.39,0,0,0,0,2.77,1.1,1.1,0,0,0,.92-0.42l0.51,0.46a1.77,1.77,0,0,1-1.43.6,1.9,1.9,0,0,1-2.07-2" transform="translate(-195.3 -71.91)"/><path class="c" d="M363.46,254a1.39,1.39,0,1,0-1.28-1.39,1.24,1.24,0,0,0,1.28,1.39m0-3.41a2,2,0,1,1-2.07,2A1.9,1.9,0,0,1,363.46,250.62Z" transform="translate(-195.3 -71.91)"/><path class="c" d="M368.39,251.25a1.39,1.39,0,0,0,0,2.78,1.39,1.39,0,0,0,0-2.78m-0.14-.63a1.7,1.7,0,0,1,1.39.68v-2.86h0.76v6.12h-0.74a3.73,3.73,0,0,0,0-.61,1.6,1.6,0,0,1-1.39.71,1.84,1.84,0,0,1-1.94-2A1.86,1.86,0,0,1,368.25,250.62Z" transform="translate(-195.3 -71.91)"/><path class="c" d="M373.46,250.62c1.3,0,1.9.87,1.84,2.25h-3A1.2,1.2,0,0,0,373.5,254a1.28,1.28,0,0,0,1.12-.58l0.53,0.43a1.92,1.92,0,0,1-1.65.79,2,2,0,0,1,0-4m1.08,1.68a1.07,1.07,0,0,0-1.54-1,1.12,1.12,0,0,0-.75,1h2.28Z" transform="translate(-195.3 -71.91)"/><path class="c" d="M328.86,268.43c0-1-1.15-.92-2.19-0.92v1.85c1,0,2.19.09,2.19-.94m0.81,0c0,1.51-1.39,1.69-3,1.62v2.52h-0.8v-5.73h1.75C328.81,266.85,329.67,267.24,329.67,268.43Z" transform="translate(-195.3 -71.91)"/><path class="c" d="M330.27,272.57c0-1.28,0-2.61,0-3.84H331c0,0.16,0,.48,0,0.65h0a1.3,1.3,0,0,1,1.47-.72l0,0.7a1.1,1.1,0,0,0-1.43,1.19v2h-0.76" transform="translate(-195.3 -71.91)"/><path class="c" d="M334.87,272a1.39,1.39,0,1,0-1.28-1.39,1.24,1.24,0,0,0,1.28,1.39m0-3.41a2,2,0,1,1-2.07,2A1.9,1.9,0,0,1,334.87,268.62Z" transform="translate(-195.3 -71.91)"/><path class="c" d="M339.81,269.25a1.39,1.39,0,0,0,0,2.78,1.39,1.39,0,0,0,0-2.78m-0.14-.63a1.7,1.7,0,0,1,1.39.68v-2.86h0.76v6.12h-0.74a3.73,3.73,0,0,0,0-.61,1.6,1.6,0,0,1-1.39.71,1.84,1.84,0,0,1-1.94-2A1.86,1.86,0,0,1,339.67,268.62Z" transform="translate(-195.3 -71.91)"/><path class="c" d="M346.54,268.73c0,1.28,0,2.61,0,3.84h-0.72c0-.16,0-0.49,0-0.63a1.41,1.41,0,0,1-1.26.74,1.36,1.36,0,0,1-1.43-1.56v-2.38h0.76v2.12c0,0.68.19,1.18,0.87,1.18a1.11,1.11,0,0,0,1-1.26v-2h0.76" transform="translate(-195.3 -71.91)"/><path class="c" d="M347.61,270.65a1.88,1.88,0,0,1,2-2,1.82,1.82,0,0,1,1.44.63l-0.55.45a1.05,1.05,0,0,0-.88-0.44,1.39,1.39,0,0,0,0,2.77,1.1,1.1,0,0,0,.92-0.42l0.51,0.46a1.77,1.77,0,0,1-1.43.6,1.9,1.9,0,0,1-2.07-2" transform="translate(-195.3 -71.91)"/><path class="c" d="M353.08,272.63a1,1,0,0,1-1.12-1.2v-2.08h-0.74v-0.62H352v-1.1h0.75v1.1h1v0.62h-1v2c0,0.44.13,0.64,0.54,0.65a1.09,1.09,0,0,0,.45-0.1l0,0.62a1.94,1.94,0,0,1-.65.11" transform="translate(-195.3 -71.91)"/><path class="c" d="M356.52,272.57c0-1.28,0-2.61,0-3.84h0.72c0,0.16,0,.45,0,0.63h0a1.34,1.34,0,0,1,1.25-.74,1.36,1.36,0,0,1,1.43,1.56v2.38h-0.76v-2.13c0-.68-0.19-1.17-0.87-1.17a1.11,1.11,0,0,0-1,1.26v2h-0.76" transform="translate(-195.3 -71.91)"/><path class="c" d="M362.51,272.06a1.09,1.09,0,0,0,1.11-1.33c-0.83,0-1.9,0-1.9.73a0.65,0.65,0,0,0,.79.6m-1.56-.58c0-1.24,1.4-1.26,2.67-1.3a0.83,0.83,0,0,0-.95-0.95,1.6,1.6,0,0,0-1.09.45l-0.4-.49a2.26,2.26,0,0,1,1.57-.58,1.42,1.42,0,0,1,1.6,1.51,23.92,23.92,0,0,0,.06,2.44h-0.69a2.56,2.56,0,0,1-.06-0.55h0a1.47,1.47,0,0,1-1.29.65A1.19,1.19,0,0,1,360.95,271.48Z" transform="translate(-195.3 -71.91)"/><path class="c" d="M366.37,269.36a1.34,1.34,0,0,1,1.22-.74,1.2,1.2,0,0,1,1.19.77,1.41,1.41,0,0,1,1.3-.77,1.36,1.36,0,0,1,1.43,1.56v2.38h-0.76v-2.13c0-.66-0.19-1.17-0.85-1.17-1.39,0-.87,2-1,3.3h-0.76v-2.28a0.83,0.83,0,0,0-.81-1,1.11,1.11,0,0,0-1,1.26v2h-0.76c0-1.28,0-2.61,0-3.84h0.72c0,0.16,0,.45,0,0.63h0" transform="translate(-195.3 -71.91)"/><path class="c" d="M374.54,268.62c1.3,0,1.9.87,1.84,2.25h-3a1.2,1.2,0,0,0,1.25,1.17,1.28,1.28,0,0,0,1.12-.58l0.53,0.43a1.92,1.92,0,0,1-1.65.79,2,2,0,0,1,0-4m1.08,1.68a1.07,1.07,0,0,0-1.54-1,1.12,1.12,0,0,0-.75,1h2.28Z" transform="translate(-195.3 -71.91)"/><path class="c" d="M323.69,286.32c0-1.43,1.6-1.93,2.91-1.46a1.65,1.65,0,0,1,.7.48l-0.57.55a1.38,1.38,0,0,0-1.12-.53,1,1,0,0,0-1,1.32c0.45,0.66,1.61.61,2.21,1.12a1.44,1.44,0,0,1,.55,1.17c0,1.54-1.67,2.07-3,1.53a2,2,0,0,1-.83-0.62l0.62-.53a1.6,1.6,0,0,0,1.28.67,1,1,0,0,0,1-1.42c-0.4-.71-1.68-0.61-2.27-1.17a1.44,1.44,0,0,1-.47-1.12" transform="translate(-195.3 -71.91)"/><path class="c" d="M329.73,290.06a1.09,1.09,0,0,0,1.11-1.33c-0.83,0-1.9,0-1.9.73a0.65,0.65,0,0,0,.79.6m-1.56-.58c0-1.24,1.4-1.26,2.67-1.3a0.83,0.83,0,0,0-.95-0.95,1.6,1.6,0,0,0-1.09.45l-0.4-.49a2.26,2.26,0,0,1,1.57-.58,1.42,1.42,0,0,1,1.6,1.51,23.92,23.92,0,0,0,.06,2.44h-0.69a2.56,2.56,0,0,1-.06-0.55h0a1.47,1.47,0,0,1-1.29.65A1.19,1.19,0,0,1,328.17,289.48Z" transform="translate(-195.3 -71.91)"/><polyline class="c" points="138.32 218.66 137.56 218.66 137.56 215.6 137.56 212.53 138.32 212.53 138.32 215.6 138.32 218.66"/><path class="c" d="M336.68,286.62c1.3,0,1.9.87,1.84,2.25h-3a1.2,1.2,0,0,0,1.25,1.17,1.28,1.28,0,0,0,1.12-.58l0.53,0.43a1.92,1.92,0,0,1-1.65.79,2,2,0,0,1,0-4m1.08,1.68a1.07,1.07,0,0,0-1.54-1,1.12,1.12,0,0,0-.75,1h2.28Z" transform="translate(-195.3 -71.91)"/><path class="c" d="M339.45,288.25c-0.5-1.26.95-2,2.14-1.47a1.3,1.3,0,0,1,.6.47l-0.53.45a1,1,0,0,0-.89-0.48,0.58,0.58,0,0,0-.71.5c0,0.59.92,0.51,1.39,0.73a1.08,1.08,0,0,1,.78,1c0.06,1.56-2.45,1.51-3.08.55l0.54-.46a1.24,1.24,0,0,0,1,.53,0.62,0.62,0,0,0,.76-0.56c0-.73-1.27-0.51-1.76-0.95a0.84,0.84,0,0,1-.26-0.3" transform="translate(-195.3 -71.91)"/><path class="c" d="M346.46,290.06a1.09,1.09,0,0,0,1.11-1.33c-0.83,0-1.9,0-1.9.73a0.65,0.65,0,0,0,.79.6m-1.56-.58c0-1.24,1.4-1.26,2.67-1.3a0.83,0.83,0,0,0-.95-0.95,1.6,1.6,0,0,0-1.09.45l-0.4-.49a2.26,2.26,0,0,1,1.57-.58,1.42,1.42,0,0,1,1.6,1.51,23.92,23.92,0,0,0,.06,2.44h-0.69a2.56,2.56,0,0,1-.06-0.55h0a1.47,1.47,0,0,1-1.29.65A1.19,1.19,0,0,1,344.89,289.48Z" transform="translate(-195.3 -71.91)"/><path class="c" d="M349.43,288.25c-0.5-1.26.95-2,2.14-1.47a1.3,1.3,0,0,1,.6.47l-0.53.45a1,1,0,0,0-.89-0.48,0.58,0.58,0,0,0-.71.5c0,0.59.92,0.51,1.39,0.73a1.08,1.08,0,0,1,.78,1c0.06,1.56-2.45,1.51-3.08.55l0.54-.46a1.24,1.24,0,0,0,1,.53,0.62,0.62,0,0,0,.76-0.56c0-.73-1.27-0.51-1.76-0.95a0.84,0.84,0,0,1-.26-0.3" transform="translate(-195.3 -71.91)"/><path class="c" d="M353,288.25c-0.5-1.26.95-2,2.14-1.47a1.3,1.3,0,0,1,.6.47l-0.53.45a1,1,0,0,0-.89-0.48,0.58,0.58,0,0,0-.71.5c0,0.59.92,0.51,1.39,0.73a1.08,1.08,0,0,1,.78,1c0.06,1.56-2.45,1.51-3.08.55l0.54-.46a1.24,1.24,0,0,0,1,.53,0.62,0.62,0,0,0,.76-0.56c0-.73-1.27-0.51-1.76-0.95a0.84,0.84,0,0,1-.26-0.3" transform="translate(-195.3 -71.91)"/><path class="c" d="M358.57,290a1.39,1.39,0,1,0-1.28-1.39,1.24,1.24,0,0,0,1.28,1.39m0-3.41a2,2,0,1,1-2.07,2A1.9,1.9,0,0,1,358.57,286.62Z" transform="translate(-195.3 -71.91)"/><path class="c" d="M361.45,288.65a1.88,1.88,0,0,1,2-2,1.82,1.82,0,0,1,1.44.63l-0.55.45a1.05,1.05,0,0,0-.88-0.44,1.39,1.39,0,0,0,0,2.77,1.1,1.1,0,0,0,.92-0.42l0.51,0.46a1.77,1.77,0,0,1-1.43.6,1.9,1.9,0,0,1-2.07-2" transform="translate(-195.3 -71.91)"/><path class="c" d="M366.09,284.85a0.5,0.5,0,0,1,.51.49,0.51,0.51,0,1,1-.51-0.49m0.38,5.72h-0.76v-3.84h0.76v3.84Z" transform="translate(-195.3 -71.91)"/><path class="c" d="M369.08,290.06a1.09,1.09,0,0,0,1.11-1.33c-0.83,0-1.9,0-1.9.73a0.65,0.65,0,0,0,.79.6m-1.56-.58c0-1.24,1.4-1.26,2.67-1.3a0.83,0.83,0,0,0-.95-0.95,1.6,1.6,0,0,0-1.09.45l-0.4-.49a2.26,2.26,0,0,1,1.57-.58,1.42,1.42,0,0,1,1.6,1.51,23.92,23.92,0,0,0,.06,2.44h-0.69a2.56,2.56,0,0,1-.06-0.55h0a1.47,1.47,0,0,1-1.29.65A1.19,1.19,0,0,1,367.52,289.48Z" transform="translate(-195.3 -71.91)"/><path class="c" d="M373.33,290.63a1,1,0,0,1-1.12-1.2v-2.08h-0.74v-0.62h0.74v-1.1H373v1.1h1v0.62h-1v2c0,0.44.13,0.64,0.54,0.65a1.09,1.09,0,0,0,.45-0.1l0,0.62a1.94,1.94,0,0,1-.65.11" transform="translate(-195.3 -71.91)"/><path class="c" d="M376.51,286.62c1.3,0,1.9.87,1.84,2.25h-3a1.2,1.2,0,0,0,1.25,1.17,1.28,1.28,0,0,0,1.12-.58l0.53,0.43a1.92,1.92,0,0,1-1.65.79,2,2,0,0,1,0-4m1.08,1.68a1.07,1.07,0,0,0-1.54-1,1.12,1.12,0,0,0-.75,1h2.28Z" transform="translate(-195.3 -71.91)"/><path class="c" d="M333.76,305.7c0-1.46-.95-2.13-2.4-2.17h-1v4.33h1c1.44,0,2.4-.72,2.4-2.16m-2.24-2.87c1.84,0.09,3.09,1,3.09,2.87a2.67,2.67,0,0,1-2,2.69,12,12,0,0,1-3.07.18v-5.73h2Z" transform="translate(-195.3 -71.91)"/><path class="c" d="M337,308.06a1.09,1.09,0,0,0,1.11-1.33c-0.83,0-1.9,0-1.9.73a0.65,0.65,0,0,0,.79.6m-1.56-.58c0-1.24,1.4-1.26,2.67-1.3a0.83,0.83,0,0,0-.95-0.95,1.6,1.6,0,0,0-1.09.45l-0.4-.49a2.26,2.26,0,0,1,1.57-.58,1.42,1.42,0,0,1,1.6,1.51,23.92,23.92,0,0,0,.06,2.44h-0.69a2.56,2.56,0,0,1-.06-0.55h0a1.47,1.47,0,0,1-1.29.65A1.19,1.19,0,0,1,335.4,307.48Z" transform="translate(-195.3 -71.91)"/><path class="c" d="M341.21,308.63a1,1,0,0,1-1.12-1.2v-2.08h-0.74v-0.62h0.74v-1.1h0.75v1.1h1v0.62h-1v2c0,0.44.13,0.64,0.54,0.65a1.09,1.09,0,0,0,.45-0.1l0,0.62a1.94,1.94,0,0,1-.65.11" transform="translate(-195.3 -71.91)"/><path class="c" d="M344.39,304.62c1.3,0,1.9.87,1.84,2.25h-3a1.2,1.2,0,0,0,1.25,1.17,1.28,1.28,0,0,0,1.12-.58l0.53,0.43a1.92,1.92,0,0,1-1.65.79,2,2,0,0,1,0-4m1.08,1.68a1.07,1.07,0,0,0-1.54-1,1.12,1.12,0,0,0-.75,1h2.28Z" transform="translate(-195.3 -71.91)"/><path class="c" d="M351.13,308a1.39,1.39,0,1,0-1.28-1.39,1.24,1.24,0,0,0,1.28,1.39m0-3.41a2,2,0,1,1-2.07,2A1.9,1.9,0,0,1,351.13,304.62Z" transform="translate(-195.3 -71.91)"/><path class="c" d="M355.85,303c-0.83,0-.66.93-0.68,1.73h0.89v0.62h-0.89v3.22h-0.76v-3.22h-0.76v-0.62h0.76v-0.8a1.42,1.42,0,0,1,1.91-1.52l-0.09.66a1.35,1.35,0,0,0-.38-0.06" transform="translate(-195.3 -71.91)"/><path class="c" d="M358.85,306.25c-0.5-1.26.95-2,2.14-1.47a1.3,1.3,0,0,1,.6.47l-0.53.45a1,1,0,0,0-.89-0.48,0.58,0.58,0,0,0-.71.5c0,0.59.92,0.51,1.39,0.73a1.08,1.08,0,0,1,.78,1c0.06,1.56-2.45,1.51-3.08.55l0.54-.46a1.24,1.24,0,0,0,1,.53,0.62,0.62,0,0,0,.76-0.56c0-.73-1.27-0.51-1.76-0.95a0.84,0.84,0,0,1-.26-0.3" transform="translate(-195.3 -71.91)"/><path class="c" d="M363.87,308.06a1.09,1.09,0,0,0,1.11-1.33c-0.83,0-1.9,0-1.9.73a0.65,0.65,0,0,0,.79.6m-1.56-.58c0-1.24,1.4-1.26,2.67-1.3a0.83,0.83,0,0,0-.95-0.95,1.6,1.6,0,0,0-1.09.45l-0.4-.49a2.26,2.26,0,0,1,1.57-.58,1.42,1.42,0,0,1,1.6,1.51,23.92,23.92,0,0,0,.06,2.44h-0.69A2.56,2.56,0,0,1,365,308h0a1.47,1.47,0,0,1-1.29.65A1.19,1.19,0,0,1,362.3,307.48Z" transform="translate(-195.3 -71.91)"/><polyline class="c" points="172.46 236.66 171.69 236.66 171.69 233.6 171.69 230.53 172.46 230.53 172.46 233.6 172.46 236.66"/><path class="c" d="M370.82,304.62c1.3,0,1.9.87,1.84,2.25h-3a1.2,1.2,0,0,0,1.25,1.17,1.28,1.28,0,0,0,1.12-.58l0.53,0.43a1.92,1.92,0,0,1-1.65.79,2,2,0,0,1,0-4m1.08,1.68a1.07,1.07,0,0,0-1.54-1,1.12,1.12,0,0,0-.75,1h2.28Z" transform="translate(-195.3 -71.91)"/><path class="c" d="M345.6,322.43c0-1-1.15-.92-2.19-0.92v1.85c1,0,2.19.09,2.19-.94m0.81,0c0,1.51-1.39,1.69-3,1.62v2.52h-0.8v-5.73h1.75C345.55,320.85,346.41,321.24,346.41,322.43Z" transform="translate(-195.3 -71.91)"/><path class="c" d="M347,326.57c0-1.28,0-2.61,0-3.84h0.72c0,0.16,0,.48,0,0.65h0a1.3,1.3,0,0,1,1.47-.72l0,0.7a1.1,1.1,0,0,0-1.43,1.19v2H347" transform="translate(-195.3 -71.91)"/><path class="c" d="M350.33,320.85a0.5,0.5,0,0,1,.51.49,0.51,0.51,0,1,1-.51-0.49m0.38,5.72H350v-3.84h0.76v3.84Z" transform="translate(-195.3 -71.91)"/><path class="c" d="M351.79,324.65a1.88,1.88,0,0,1,2-2,1.82,1.82,0,0,1,1.44.63l-0.55.45a1.05,1.05,0,0,0-.88-0.44,1.39,1.39,0,0,0,0,2.77,1.1,1.1,0,0,0,.92-0.42l0.51,0.46a1.77,1.77,0,0,1-1.43.6,1.9,1.9,0,0,1-2.07-2" transform="translate(-195.3 -71.91)"/><path class="c" d="M357.78,322.62c1.3,0,1.9.87,1.84,2.25h-3a1.2,1.2,0,0,0,1.25,1.17,1.28,1.28,0,0,0,1.12-.58l0.53,0.43a1.92,1.92,0,0,1-1.65.79,2,2,0,0,1,0-4m1.08,1.68a1.07,1.07,0,0,0-1.54-1,1.12,1.12,0,0,0-.75,1h2.28Z" transform="translate(-195.3 -71.91)"/><path class="b" d="M218.25,126.18h-18.9a3.61,3.61,0,0,0-3.6,3.6V248.67a3.61,3.61,0,0,0,3.6,3.6h108.9" transform="translate(-195.3 -71.91)"/><polygon class="c" points="22.95 54.27 16.52 56.39 16.52 52.2 22.95 54.27"/><path class="c" d="M212.26,127.67l4.54-1.48-4.54-1.44v2.92Zm6-1.93v0.95l-6.88,2.2v-5.4Z" transform="translate(-195.3 -71.91)"/><polygon class="c" points="112.95 180.36 106.52 182.43 106.52 178.29 112.95 180.36"/><path class="c" d="M302.26,253.76l4.54-1.48-4.54-1.48v3Zm6-1.93v0.95L301.36,255v-5.4Z" transform="translate(-195.3 -71.91)"/><path class="c" d="M232.94,82.46a1.77,1.77,0,0,0,0-3.53,1.56,1.56,0,0,0-1.64,1.75,1.58,1.58,0,0,0,1.64,1.78m0-4.78a2.82,2.82,0,0,1,3.13,3,3.12,3.12,0,0,1-6.25,0A2.81,2.81,0,0,1,232.94,77.68Z" transform="translate(-195.3 -71.91)"/><path class="c" d="M239.17,82.58a1,1,0,0,0,0-2.07,1,1,0,0,0,0,2.07m0.33-3.16a2.14,2.14,0,0,1,0,4.26,1.54,1.54,0,0,1-1.32-.64h0v0.53h-1.22V77.44h1.33c0,0.83,0,1.71,0,2.52A1.57,1.57,0,0,1,239.5,79.42Z" transform="translate(-195.3 -71.91)"/><path class="c" d="M241.52,84.33c0.52,0.17.77-.15,0.77-0.66V79.53h1.33v4.14c0.09,1.37-.79,2.07-2.19,1.77M243,77.51a0.7,0.7,0,0,1,.76.73A0.71,0.71,0,0,1,243,79a0.73,0.73,0,0,1-.76-0.73A0.71,0.71,0,0,1,243,77.51Z" transform="translate(-195.3 -71.91)"/><path class="c" d="M246.65,79.4c1.43,0,2.09,1,2,2.51h-2.92a0.91,0.91,0,0,0,1,.76,1,1,0,0,0,.89-0.42l0.92,0.58a2.09,2.09,0,0,1-1.83.86,2.15,2.15,0,1,1,0-4.29m0.8,1.68a0.84,0.84,0,0,0-1.43-.54,0.77,0.77,0,0,0-.28.54h1.71Z" transform="translate(-195.3 -71.91)"/><path class="c" d="M249.3,81.55a2,2,0,0,1,2.25-2.15,2.13,2.13,0,0,1,1.5.54l-0.77.89a0.91,0.91,0,0,0-.7-0.32,1,1,0,0,0,0,2.07,1,1,0,0,0,.72-0.3l0.74,0.9a2.11,2.11,0,0,1-1.49.52,2,2,0,0,1-2.26-2.15" transform="translate(-195.3 -71.91)"/><path class="c" d="M255.15,83.66a1.26,1.26,0,0,1-1.43-1.43v-1.7h-0.65v-1h0.64V78.47H255v1.06H256v1H255v1.54c0,0.38.11,0.57,0.5,0.57a1.11,1.11,0,0,0,.39-0.06l0,1a2.69,2.69,0,0,1-.77.12" transform="translate(-195.3 -71.91)"/><polyline class="c" points="65.07 11.66 65.07 9.55 65.07 7.45 64 8.27 63.29 7.31 65.18 5.92 66.43 5.92 66.43 8.79 66.43 11.66 65.07 11.66"/><path class="c" d="M264.66,82.07a0.77,0.77,0,1,1-.8.78,0.75,0.75,0,0,1,.8-0.78m0-2.59a0.77,0.77,0,1,1-.8.78A0.75,0.75,0,0,1,264.66,79.48Z" transform="translate(-195.3 -71.91)"/><path class="c" d="M268.42,79.48c0-1.57,1.73-2.1,3.21-1.62a2.41,2.41,0,0,1,.89.53l-0.88.93a1.55,1.55,0,0,0-1-.49c-0.64-.07-1.13.66-0.56,1,0.94,0.53,2.42.53,2.42,2s-0.91,1.91-2.2,1.91a3,3,0,0,1-2.15-.83L269,82a2,2,0,0,0,1.24.61c0.72,0.07,1.1-.79.49-1.11-0.94-.49-2.35-0.52-2.35-2" transform="translate(-195.3 -71.91)"/><path class="c" d="M274.94,80.39a1.54,1.54,0,0,0-1,.41l-0.67-.72a2.59,2.59,0,0,1,1.8-.68c1.38,0,1.85.76,1.85,2.13v2h-1.21V83.14h0a1.49,1.49,0,0,1-2.61-.74c0-1.21,1.34-1.33,2.59-1.36a0.62,0.62,0,0,0-.73-0.65m-0.06,2.38a0.79,0.79,0,0,0,.83-1c-0.62,0-1.41,0-1.41.55A0.47,0.47,0,0,0,274.87,82.77Z" transform="translate(-195.3 -71.91)"/><polyline class="c" points="82.63 11.66 82.63 8.6 82.63 5.54 83.97 5.54 83.97 8.6 83.97 11.66 82.63 11.66"/><path class="c" d="M282.3,79.4c1.43,0,2.09,1,2,2.51h-2.92a0.91,0.91,0,0,0,1,.76,1,1,0,0,0,.89-0.42l0.92,0.58a2.09,2.09,0,0,1-1.83.86,2.15,2.15,0,1,1,0-4.29m0.8,1.68a0.84,0.84,0,0,0-1.43-.54,0.77,0.77,0,0,0-.28.54h1.71Z" transform="translate(-195.3 -71.91)"/><path class="c" d="M285,80.75c0-1.59,2.44-1.65,3.3-.79l-0.73.75a1.27,1.27,0,0,0-.84-0.36c-0.23,0-.53.08-0.5,0.32,0.06,0.43.78,0.34,1.19,0.54a1.19,1.19,0,0,1,.83,1.09c0,1.7-2.63,1.65-3.48.75l0.75-.79a1.39,1.39,0,0,0,1,.45c0.22,0,.51-0.1.48-0.35-0.06-.46-0.79-0.39-1.22-0.59a1.11,1.11,0,0,1-.75-1" transform="translate(-195.3 -71.91)"/><path class="c" d="M292.33,80.11a1.21,1.21,0,0,1,1.38-.66l-0.06,1.17a0.94,0.94,0,0,0-1.29.87v2.07H291v-4h1.28a3.43,3.43,0,0,0,0,.58" transform="translate(-195.3 -71.91)"/><path class="c" d="M296.08,79.4c1.43,0,2.09,1,2,2.51h-2.92a0.91,0.91,0,0,0,1,.76,1,1,0,0,0,.89-0.42l0.92,0.58a2.09,2.09,0,0,1-1.83.86,2.15,2.15,0,1,1,0-4.29m0.8,1.68a0.84,0.84,0,0,0-1.43-.54,0.77,0.77,0,0,0-.28.54h1.71Z" transform="translate(-195.3 -71.91)"/><path class="c" d="M301.18,82.58a1,1,0,0,0,0-2.07,1,1,0,0,0,0,2.07m0.32-3.16a1.9,1.9,0,0,1,1.91,2.11,1.92,1.92,0,0,1-1.92,2.15,1.53,1.53,0,0,1-1.24-.56v2.39h-1.33v-6h1.26V80h0A1.58,1.58,0,0,1,301.5,79.42Z" transform="translate(-195.3 -71.91)"/><path class="c" d="M306.29,82.58a1,1,0,0,0,0-2.07,0.92,0.92,0,0,0-.95,1,0.93,0.93,0,0,0,1,1m0-3.18A2.15,2.15,0,1,1,304,81.53,2,2,0,0,1,306.28,79.4Z" transform="translate(-195.3 -71.91)"/><path class="c" d="M310.66,80.11a1.21,1.21,0,0,1,1.38-.66L312,80.62a0.94,0.94,0,0,0-1.29.87v2.07h-1.33v-4h1.28a3.43,3.43,0,0,0,0,.58" transform="translate(-195.3 -71.91)"/><path class="c" d="M314.06,83.66a1.26,1.26,0,0,1-1.43-1.43v-1.7H312v-1h0.64V78.47h1.3v1.06h0.95v1h-0.95v1.54c0,0.38.11,0.57,0.5,0.57a1.12,1.12,0,0,0,.39-0.06l0,1a2.69,2.69,0,0,1-.77.12" transform="translate(-195.3 -71.91)"/><path class="c" d="M320.83,213a1.77,1.77,0,0,0,0-3.53,1.56,1.56,0,0,0-1.64,1.75,1.58,1.58,0,0,0,1.64,1.78m0-4.78a2.82,2.82,0,0,1,3.13,3,3.12,3.12,0,0,1-6.25,0A2.81,2.81,0,0,1,320.83,208.18Z" transform="translate(-195.3 -71.91)"/><path class="c" d="M327.06,213.08a1,1,0,0,0,0-2.07,1,1,0,0,0,0,2.07m0.33-3.16a2.14,2.14,0,0,1,0,4.26,1.54,1.54,0,0,1-1.32-.64h0v0.53h-1.22v-6.12h1.33c0,0.83,0,1.71,0,2.52A1.57,1.57,0,0,1,327.39,209.92Z" transform="translate(-195.3 -71.91)"/><path class="c" d="M329.41,214.83c0.52,0.17.77-.15,0.77-0.66V210h1.33v4.14c0.09,1.37-.79,2.07-2.19,1.77m1.52-7.93a0.7,0.7,0,0,1,.76.73,0.71,0.71,0,0,1-.76.73,0.73,0.73,0,0,1-.76-0.73A0.71,0.71,0,0,1,330.84,208Z" transform="translate(-195.3 -71.91)"/><path class="c" d="M334.53,209.9c1.43,0,2.09,1,2,2.51h-2.92a0.91,0.91,0,0,0,1,.76,1,1,0,0,0,.89-0.42l0.92,0.58a2.09,2.09,0,0,1-1.83.86,2.15,2.15,0,1,1,0-4.29m0.8,1.68a0.84,0.84,0,0,0-1.43-.54,0.77,0.77,0,0,0-.28.54h1.71Z" transform="translate(-195.3 -71.91)"/><path class="c" d="M337.18,212a2,2,0,0,1,2.25-2.15,2.13,2.13,0,0,1,1.5.54l-0.77.89a0.91,0.91,0,0,0-.7-0.32,1,1,0,0,0,0,2.07,1,1,0,0,0,.72-0.3l0.74,0.9a2.11,2.11,0,0,1-1.49.52,2,2,0,0,1-2.26-2.15" transform="translate(-195.3 -71.91)"/><path class="c" d="M343,214.16a1.26,1.26,0,0,1-1.43-1.43V211H341v-1h0.64V209h1.3V210h0.95v1H342.9v1.54c0,0.38.11,0.57,0.5,0.57a1.12,1.12,0,0,0,.39-0.06l0,1a2.69,2.69,0,0,1-.77.12" transform="translate(-195.3 -71.91)"/><path class="c" d="M348.62,208.18a1.79,1.79,0,0,1,2,2.31,2.53,2.53,0,0,1-.92,1.21l-1.33,1.18h2.34v1.18h-4.15v-1.13l2.24-2a1.23,1.23,0,0,0,.47-0.88,0.66,0.66,0,0,0-.71-0.69,0.85,0.85,0,0,0-.81.87l-1.3-.18a2,2,0,0,1,2.19-1.85" transform="translate(-195.3 -71.91)"/><path class="c" d="M352.59,212.57a0.77,0.77,0,1,1-.8.78,0.75,0.75,0,0,1,.8-0.78m0-2.59a0.77,0.77,0,1,1-.8.78A0.75,0.75,0,0,1,352.59,210Z" transform="translate(-195.3 -71.91)"/><path class="c" d="M356.36,210c0-1.57,1.73-2.1,3.21-1.62a2.41,2.41,0,0,1,.89.53l-0.88.93a1.55,1.55,0,0,0-1-.49c-0.64-.07-1.13.66-0.56,1,0.94,0.53,2.42.53,2.42,2s-0.91,1.91-2.2,1.91a3,3,0,0,1-2.15-.83l0.91-.92a2,2,0,0,0,1.24.61c0.72,0.07,1.1-.79.49-1.11-0.94-.49-2.35-0.52-2.35-2" transform="translate(-195.3 -71.91)"/><path class="c" d="M362.87,210.89a1.54,1.54,0,0,0-1,.41l-0.67-.72a2.59,2.59,0,0,1,1.8-.68c1.38,0,1.85.76,1.85,2.13v2h-1.21v-0.43h0a1.49,1.49,0,0,1-2.61-.74c0-1.21,1.34-1.33,2.59-1.36a0.62,0.62,0,0,0-.73-0.65m-0.06,2.38a0.79,0.79,0,0,0,.83-1c-0.62,0-1.41,0-1.41.55A0.47,0.47,0,0,0,362.8,213.27Z" transform="translate(-195.3 -71.91)"/><polyline class="c" points="170.56 142.16 170.56 139.1 170.56 136.03 171.9 136.03 171.9 139.1 171.9 142.16 170.56 142.16"/><path class="c" d="M370.23,209.9c1.43,0,2.09,1,2,2.51h-2.92a0.91,0.91,0,0,0,1,.76,1,1,0,0,0,.89-0.42l0.92,0.58a2.09,2.09,0,0,1-1.83.86,2.15,2.15,0,1,1,0-4.29m0.8,1.68a0.84,0.84,0,0,0-1.43-.54,0.77,0.77,0,0,0-.28.54H371Z" transform="translate(-195.3 -71.91)"/><path class="c" d="M372.89,211.25c0-1.59,2.44-1.65,3.3-.79l-0.73.75a1.27,1.27,0,0,0-.84-0.36c-0.23,0-.53.08-0.5,0.32,0.06,0.43.78,0.34,1.19,0.54a1.19,1.19,0,0,1,.83,1.09c0,1.7-2.63,1.65-3.48.75l0.75-.79a1.39,1.39,0,0,0,1,.45c0.22,0,.51-0.1.48-0.35-0.06-.46-0.79-0.39-1.22-0.59a1.11,1.11,0,0,1-.75-1" transform="translate(-195.3 -71.91)"/><path class="c" d="M380.54,210.89a1.54,1.54,0,0,0-1,.41l-0.67-.72a2.59,2.59,0,0,1,1.8-.68c1.38,0,1.85.76,1.85,2.13v2H381.3v-0.43h0a1.49,1.49,0,0,1-2.61-.74c0-1.21,1.34-1.33,2.59-1.36a0.62,0.62,0,0,0-.73-0.65m-0.06,2.38a0.79,0.79,0,0,0,.83-1c-0.62,0-1.41,0-1.41.55A0.47,0.47,0,0,0,380.47,213.27Z" transform="translate(-195.3 -71.91)"/><path class="c" d="M383.31,212a2,2,0,0,1,2.25-2.15,2.13,2.13,0,0,1,1.5.54l-0.77.89a0.91,0.91,0,0,0-.7-0.32,1,1,0,0,0,0,2.07,1,1,0,0,0,.72-0.3l0.74,0.9a2.11,2.11,0,0,1-1.49.52,2,2,0,0,1-2.26-2.15" transform="translate(-195.3 -71.91)"/><path class="c" d="M389.16,214.16a1.26,1.26,0,0,1-1.43-1.43V211h-0.65v-1h0.64V209H389V210H390v1H389v1.54c0,0.38.11,0.57,0.5,0.57a1.12,1.12,0,0,0,.39-0.06l0,1a2.69,2.69,0,0,1-.77.12" transform="translate(-195.3 -71.91)"/><path class="c" d="M390.61,214.07v-4h1.33v4h-1.33m0.66-6.05a0.7,0.7,0,0,1,.76.73,0.71,0.71,0,0,1-.76.73,0.73,0.73,0,0,1-.76-0.73A0.71,0.71,0,0,1,391.28,208Z" transform="translate(-195.3 -71.91)"/><polyline class="c" points="200.19 142.16 198.75 142.16 197.17 138.13 198.63 138.13 199.48 140.74 199.51 140.74 200.36 138.13 201.78 138.13"/><path class="c" d="M397.6,214.07v-4h1.33v4H397.6m0.66-6.05a0.7,0.7,0,0,1,.76.73,0.71,0.71,0,0,1-.76.73,0.73,0.73,0,0,1-.76-0.73A0.71,0.71,0,0,1,398.27,208Z" transform="translate(-195.3 -71.91)"/><path class="c" d="M401.56,214.16a1.26,1.26,0,0,1-1.43-1.43V211h-0.65v-1h0.64V209h1.3V210h0.95v1h-0.95v1.54c0,0.38.11,0.57,0.5,0.57a1.12,1.12,0,0,0,.39-0.06l0,1a2.69,2.69,0,0,1-.77.12" transform="translate(-195.3 -71.91)"/><path class="c" d="M402.92,214.8a1,1,0,0,0,.87-0.07,2.56,2.56,0,0,0,.36-0.73l-1.68-4h1.47l0.9,2.59h0l0.8-2.59h1.41l-1.81,4.64a1.87,1.87,0,0,1-2.5,1.25" transform="translate(-195.3 -71.91)"/><path class="c" d="M371.27,76.92a1.77,1.77,0,0,0,0-3.53,1.56,1.56,0,0,0-1.64,1.75,1.58,1.58,0,0,0,1.64,1.78m0-4.78a2.82,2.82,0,0,1,3.13,3,3.12,3.12,0,0,1-6.25,0A2.81,2.81,0,0,1,371.27,72.14Z" transform="translate(-195.3 -71.91)"/><path class="c" d="M377.5,77a1,1,0,0,0,0-2.07,1,1,0,0,0,0,2.07m0.33-3.16a2.14,2.14,0,0,1,0,4.26,1.54,1.54,0,0,1-1.32-.64h0V78h-1.22V71.91h1.33c0,0.83,0,1.71,0,2.52A1.57,1.57,0,0,1,377.83,73.88Z" transform="translate(-195.3 -71.91)"/><path class="c" d="M379.85,78.8c0.52,0.17.77-.15,0.77-0.66V74h1.33v4.14c0.09,1.37-.79,2.07-2.19,1.77M381.28,72a0.7,0.7,0,0,1,.76.73,0.71,0.71,0,0,1-.76.73,0.73,0.73,0,0,1-.76-0.73A0.71,0.71,0,0,1,381.28,72Z" transform="translate(-195.3 -71.91)"/><path class="c" d="M385,73.87c1.43,0,2.09,1,2,2.51h-2.92a0.91,0.91,0,0,0,1,.76,1,1,0,0,0,.89-0.42l0.92,0.58a2.09,2.09,0,0,1-1.83.86,2.15,2.15,0,1,1,0-4.29m0.8,1.68a0.84,0.84,0,0,0-1.43-.54,0.77,0.77,0,0,0-.28.54h1.71Z" transform="translate(-195.3 -71.91)"/><path class="c" d="M387.63,76a2,2,0,0,1,2.25-2.15,2.13,2.13,0,0,1,1.5.54l-0.77.89a0.91,0.91,0,0,0-.7-0.32,1,1,0,0,0,0,2.07,1,1,0,0,0,.72-0.3l0.74,0.9a2.11,2.11,0,0,1-1.49.52A2,2,0,0,1,387.63,76" transform="translate(-195.3 -71.91)"/><path class="c" d="M393.48,78.13A1.26,1.26,0,0,1,392,76.69V75H391.4V74H392V72.94h1.3V74h0.95v1h-0.95v1.54c0,0.38.11,0.57,0.5,0.57a1.12,1.12,0,0,0,.39-0.06l0,1a2.69,2.69,0,0,1-.77.12" transform="translate(-195.3 -71.91)"/><polyline class="c" points="203.4 6.12 203.4 4.02 203.4 1.91 202.33 2.74 201.62 1.77 203.51 0.39 204.76 0.39 204.76 3.26 204.76 6.12 203.4 6.12"/><path class="c" d="M368.9,89.1v-4h1.33v4H368.9M369.57,83a0.7,0.7,0,0,1,.76.73,0.71,0.71,0,0,1-.76.73,0.73,0.73,0,0,1-.76-0.73A0.71,0.71,0,0,1,369.57,83Z" transform="translate(-195.3 -71.91)"/><path class="c" d="M373.8,85a1.42,1.42,0,0,1,1.47,1.65V89.1h-1.34V86.9c0-.47-0.12-0.85-0.6-0.85a0.73,0.73,0,0,0-.71.87V89.1h-1.34v-4h1.29a3.15,3.15,0,0,0,0,.56A1.34,1.34,0,0,1,373.8,85" transform="translate(-195.3 -71.91)"/><path class="c" d="M376.08,86.29c0-1.59,2.44-1.65,3.3-.79l-0.73.75a1.27,1.27,0,0,0-.84-0.36c-0.23,0-.53.08-0.5,0.32,0.06,0.43.78,0.34,1.19,0.54a1.19,1.19,0,0,1,.83,1.09c0,1.7-2.63,1.65-3.48.75l0.75-.79a1.39,1.39,0,0,0,1,.45c0.22,0,.51-0.1.48-0.35-0.06-.46-0.79-0.39-1.22-0.59a1.11,1.11,0,0,1-.75-1" transform="translate(-195.3 -71.91)"/><path class="c" d="M381.68,89.2a1.26,1.26,0,0,1-1.43-1.43v-1.7H379.6v-1h0.64V84h1.3v1.06h0.95v1h-0.95V87.6c0,0.38.11,0.57,0.5,0.57a1.12,1.12,0,0,0,.39-0.06l0,1a2.69,2.69,0,0,1-.77.12" transform="translate(-195.3 -71.91)"/><path class="c" d="M384.72,85.92a1.54,1.54,0,0,0-1,.41l-0.67-.72a2.59,2.59,0,0,1,1.8-.68c1.38,0,1.85.76,1.85,2.13v2h-1.21V88.67h0a1.49,1.49,0,0,1-2.61-.74c0-1.21,1.34-1.33,2.59-1.36a0.62,0.62,0,0,0-.73-0.65m-0.06,2.38a0.79,0.79,0,0,0,.83-1c-0.62,0-1.41,0-1.41.55A0.47,0.47,0,0,0,384.66,88.31Z" transform="translate(-195.3 -71.91)"/><path class="c" d="M390.21,85a1.42,1.42,0,0,1,1.47,1.65V89.1h-1.34V86.9c0-.47-0.12-0.85-0.6-0.85a0.73,0.73,0,0,0-.71.87V89.1H387.7v-4H389a3.15,3.15,0,0,0,0,.56,1.34,1.34,0,0,1,1.21-.67" transform="translate(-195.3 -71.91)"/><path class="c" d="M392.48,87.08a2,2,0,0,1,2.25-2.15,2.13,2.13,0,0,1,1.5.54l-0.77.89a0.91,0.91,0,0,0-.7-0.32,1,1,0,0,0,0,2.07,1,1,0,0,0,.72-0.3l0.74,0.9a2.11,2.11,0,0,1-1.49.52,2,2,0,0,1-2.26-2.15" transform="translate(-195.3 -71.91)"/><path class="c" d="M398.74,84.94c1.43,0,2.09,1,2,2.51h-2.92a0.91,0.91,0,0,0,1,.76,1,1,0,0,0,.89-0.42l0.92,0.58a2.09,2.09,0,0,1-1.83.86,2.15,2.15,0,1,1,0-4.29m0.8,1.68a0.84,0.84,0,0,0-1.43-.54,0.77,0.77,0,0,0-.28.54h1.71Z" transform="translate(-195.3 -71.91)"/></svg>