<?xml version="1.0" standalone="no"?>
<!DOCTYPE svg PUBLIC "-//W3C//DTD SVG 20010904//EN"
 "http://www.w3.org/TR/2001/REC-SVG-20010904/DTD/svg10.dtd">
<svg version="1.0" xmlns="http://www.w3.org/2000/svg"
 width="2500.000000pt" height="2500.000000pt" viewBox="0 0 2500.000000 2500.000000"
 preserveAspectRatio="xMidYMid meet">
<metadata>
Created by potrace 1.14, written by Peter Selinger 2001-2017
</metadata>
<g transform="translate(0.000000,2500.000000) scale(0.100000,-0.100000)"
fill="#000000" stroke="none">
<path d="M19425 24723 c-661 -29 -1254 -191 -1720 -471 -232 -140 -493 -364
-651 -562 -672 -838 -1029 -2074 -1035 -3581 l0 -256 -132 54 c-668 274 -1433
435 -2299 484 -271 15 -999 6 -1238 -15 -1083 -97 -2012 -341 -2998 -787 -148
-67 -155 -69 -232 -69 l-80 0 0 368 c-1 1915 -344 3103 -1125 3888 -480 483
-1100 766 -1885 863 -304 37 -1006 48 -1236 18 -577 -74 -1032 -256 -1479
-592 -174 -131 -278 -227 -381 -353 -481 -589 -715 -1323 -718 -2252 -1 -203
3 -277 17 -365 72 -431 226 -797 522 -1240 218 -326 439 -588 795 -946 140
-141 320 -314 400 -386 568 -508 1254 -1030 2055 -1563 127 -84 234 -156 238
-160 5 -4 -34 -79 -85 -166 -956 -1605 -1456 -3455 -1549 -5734 -13 -328 -7
-1397 10 -1665 64 -1002 176 -1774 367 -2538 187 -748 412 -1362 729 -1992
301 -598 625 -1089 1045 -1581 156 -183 528 -565 710 -729 866 -779 1841
-1331 2965 -1681 1281 -399 2726 -524 4490 -389 734 57 1594 178 2170 305 764
170 1747 508 2568 883 l77 36 0 805 c0 578 -3 806 -11 806 -6 0 -116 -40 -245
-90 -1421 -546 -2540 -862 -3524 -994 -354 -48 -726 -80 -1230 -108 -323 -17
-1627 -18 -1845 0 -1120 90 -2011 323 -2833 742 -1320 672 -2284 1762 -2881
3257 -330 827 -551 1795 -660 2893 -38 374 -71 923 -71 1162 l0 118 7010 0
7010 0 0 868 c0 873 -7 1213 -35 1617 -91 1330 -350 2472 -802 3535 -92 217
-294 627 -405 821 l-84 146 115 79 c2027 1396 3177 2642 3467 3754 56 213 68
324 68 605 -2 889 -211 1585 -651 2174 -114 152 -212 248 -352 346 -688 479
-1427 679 -2356 638z m-1660 -8825 c409 -850 664 -1795 784 -2898 40 -366 71
-896 71 -1212 l0 -138 -6010 0 -6010 0 5 53 c3 28 12 131 21 227 114 1299 459
2564 990 3630 68 135 129 254 137 264 13 18 30 9 303 -169 473 -306 873 -590
1109 -786 50 -41 160 -124 245 -184 1027 -721 2058 -1536 2823 -2231 115 -104
228 -206 253 -227 l44 -39 227 199 c1102 962 2110 1760 2978 2359 866 598
1158 797 1515 1036 228 153 420 278 426 278 6 0 46 -73 89 -162z"/>
</g>
</svg>
